<ttFont>
    <TTGlyph name="A" xMin="0" yMin="-27" xMax="539" yMax="725">
      <contour>
        <pt x="233" y="725" on="1"/>
        <pt x="309" y="720" on="1"/>
        <pt x="337" y="596" on="0"/>
        <pt x="511" y="143" on="0"/>
        <pt x="539" y="31" on="1"/>
        <pt x="539" y="2" on="0"/>
        <pt x="519" y="-27" on="0"/>
        <pt x="504" y="-27" on="1"/>
        <pt x="491" y="-27" on="0"/>
        <pt x="468" y="-6" on="0"/>
        <pt x="464" y="13" on="1"/>
        <pt x="455" y="57" on="0"/>
        <pt x="406" y="189" on="1"/>
        <pt x="200" y="215" on="0"/>
        <pt x="147" y="221" on="1"/>
        <pt x="134" y="185" on="0"/>
        <pt x="96" y="23" on="0"/>
        <pt x="85" y="-8" on="1"/>
        <pt x="70" y="-26" on="0"/>
        <pt x="51" y="-26" on="1"/>
        <pt x="30" y="-26" on="0"/>
        <pt x="0" y="11" on="0"/>
        <pt x="0" y="38" on="1"/>
        <pt x="32" y="155" on="0"/>
        <pt x="200" y="609" on="0"/>
      </contour>
      <contour>
        <pt x="268" y="624" on="1"/>
        <pt x="248" y="503" on="0"/>
        <pt x="157" y="269" on="1"/>
        <pt x="269" y="269" on="1"/>
        <pt x="345" y="269" on="0"/>
        <pt x="396" y="264" on="1"/>
        <pt x="293" y="485" on="0"/>
      </contour>
    </TTGlyph>
    <TTGlyph name="AE" xMin="10" yMin="-26" xMax="838" yMax="732">
      <contour>
        <pt x="811" y="45" on="1"/>
        <pt x="821" y="0" on="1"/>
        <pt x="782" y="0" on="0"/>
        <pt x="577" y="-7" on="0"/>
        <pt x="531" y="-7" on="1"/>
        <pt x="457" y="-7" on="0"/>
        <pt x="430" y="0" on="1"/>
        <pt x="434" y="52" on="0"/>
        <pt x="439" y="205" on="1"/>
        <pt x="385" y="212" on="0"/>
        <pt x="247" y="216" on="0"/>
        <pt x="199" y="221" on="1"/>
        <pt x="187" y="189" on="0"/>
        <pt x="97" y="27" on="0"/>
        <pt x="85" y="-8" on="1"/>
        <pt x="70" y="-26" on="0"/>
        <pt x="51" y="-26" on="1"/>
        <pt x="31" y="-26" on="0"/>
        <pt x="10" y="9" on="0"/>
        <pt x="10" y="38" on="1"/>
        <pt x="58" y="147" on="0"/>
        <pt x="352" y="620" on="0"/>
        <pt x="408" y="732" on="1"/>
        <pt x="827" y="714" on="1"/>
        <pt x="838" y="669" on="1"/>
        <pt x="793" y="661" on="0"/>
        <pt x="523" y="639" on="0"/>
        <pt x="516" y="638" on="1"/>
        <pt x="517" y="615" on="0"/>
        <pt x="524" y="473" on="0"/>
        <pt x="525" y="427" on="1"/>
        <pt x="559" y="423" on="0"/>
        <pt x="739" y="408" on="0"/>
        <pt x="763" y="406" on="1"/>
        <pt x="773" y="360" on="1"/>
        <pt x="562" y="341" on="0"/>
        <pt x="526" y="340" on="1"/>
        <pt x="526" y="301" on="0"/>
        <pt x="523" y="144" on="0"/>
        <pt x="523" y="106" on="1"/>
        <pt x="524" y="97" on="0"/>
        <pt x="528" y="74" on="1"/>
        <pt x="753" y="53" on="0"/>
      </contour>
      <contour>
        <pt x="449" y="651" on="1"/>
        <pt x="434" y="627" on="0"/>
        <pt x="349" y="500" on="0"/>
        <pt x="296" y="418" on="0"/>
        <pt x="232" y="312" on="0"/>
        <pt x="215" y="276" on="1"/>
        <pt x="266" y="273" on="0"/>
        <pt x="431" y="274" on="0"/>
        <pt x="440" y="272" on="1"/>
        <pt x="441" y="315" on="0"/>
        <pt x="443" y="475" on="0"/>
        <pt x="446" y="599" on="0"/>
      </contour>
    </TTGlyph>
    <TTGlyph name="Aacute" xMin="0" yMin="-27" xMax="539" yMax="950">
      <component glyphName="A" x="0" y="0" flags="0x200"/>
      <component glyphName="acute" x="83" y="184" flags="0x0"/>
    </TTGlyph>
    <TTGlyph name="Acircumflex" xMin="0" yMin="-27" xMax="539" yMax="902">
      <component glyphName="A" x="0" y="0" flags="0x204"/>
      <component glyphName="circumflex" x="22" y="160" flags="0x4"/>
    </TTGlyph>
    <TTGlyph name="Adieresis" xMin="0" yMin="-27" xMax="539" yMax="893">
      <contour>
        <pt x="233" y="725" on="1"/>
        <pt x="309" y="720" on="1"/>
        <pt x="337" y="596" on="0"/>
        <pt x="511" y="143" on="0"/>
        <pt x="539" y="31" on="1"/>
        <pt x="539" y="2" on="0"/>
        <pt x="519" y="-27" on="0"/>
        <pt x="504" y="-27" on="1"/>
        <pt x="491" y="-27" on="0"/>
        <pt x="468" y="-6" on="0"/>
        <pt x="464" y="13" on="1"/>
        <pt x="455" y="57" on="0"/>
        <pt x="406" y="189" on="1"/>
        <pt x="200" y="215" on="0"/>
        <pt x="147" y="221" on="1"/>
        <pt x="134" y="185" on="0"/>
        <pt x="96" y="23" on="0"/>
        <pt x="85" y="-8" on="1"/>
        <pt x="70" y="-26" on="0"/>
        <pt x="51" y="-26" on="1"/>
        <pt x="30" y="-26" on="0"/>
        <pt x="0" y="11" on="0"/>
        <pt x="0" y="38" on="1"/>
        <pt x="32" y="155" on="0"/>
        <pt x="200" y="609" on="0"/>
      </contour>
      <contour>
        <pt x="268" y="624" on="1"/>
        <pt x="248" y="503" on="0"/>
        <pt x="157" y="269" on="1"/>
        <pt x="269" y="269" on="1"/>
        <pt x="345" y="269" on="0"/>
        <pt x="396" y="264" on="1"/>
        <pt x="293" y="485" on="0"/>
      </contour>
      <contour>
        <pt x="165" y="893" on="1"/>
        <pt x="192" y="893" on="0"/>
        <pt x="228" y="846" on="0"/>
        <pt x="228" y="816" on="1"/>
        <pt x="228" y="794" on="0"/>
        <pt x="207" y="767" on="0"/>
        <pt x="189" y="767" on="1"/>
        <pt x="161" y="767" on="0"/>
        <pt x="129" y="813" on="0"/>
        <pt x="129" y="844" on="1"/>
        <pt x="129" y="866" on="0"/>
        <pt x="148" y="893" on="0"/>
      </contour>
      <contour>
        <pt x="338" y="893" on="1"/>
        <pt x="365" y="893" on="0"/>
        <pt x="401" y="846" on="0"/>
        <pt x="401" y="816" on="1"/>
        <pt x="401" y="794" on="0"/>
        <pt x="380" y="767" on="0"/>
        <pt x="362" y="767" on="1"/>
        <pt x="334" y="767" on="0"/>
        <pt x="302" y="813" on="0"/>
        <pt x="302" y="844" on="1"/>
        <pt x="302" y="866" on="0"/>
        <pt x="321" y="893" on="0"/>
      </contour>
    </TTGlyph>
    <TTGlyph name="Agrave" xMin="0" yMin="-27" xMax="539" yMax="950">
      <component glyphName="A" x="0" y="0" flags="0x204"/>
      <component glyphName="grave" x="-23" y="184" flags="0x4"/>
    </TTGlyph>
    <TTGlyph name="Aring" xMin="0" yMin="-27" xMax="539" yMax="831">
      <contour>
        <pt x="187" y="749" on="1"/>
        <pt x="187" y="783" on="0"/>
        <pt x="235" y="831" on="0"/>
        <pt x="267" y="831" on="1"/>
        <pt x="297" y="831" on="0"/>
        <pt x="341" y="788" on="0"/>
        <pt x="341" y="755" on="1"/>
        <pt x="341" y="720" on="0"/>
        <pt x="315" y="692" on="1"/>
        <pt x="343" y="577" on="0"/>
        <pt x="511" y="143" on="0"/>
        <pt x="539" y="31" on="1"/>
        <pt x="539" y="2" on="0"/>
        <pt x="519" y="-27" on="0"/>
        <pt x="504" y="-27" on="1"/>
        <pt x="491" y="-27" on="0"/>
        <pt x="468" y="-6" on="0"/>
        <pt x="464" y="13" on="1"/>
        <pt x="455" y="57" on="0"/>
        <pt x="406" y="189" on="1"/>
        <pt x="200" y="215" on="0"/>
        <pt x="147" y="221" on="1"/>
        <pt x="134" y="185" on="0"/>
        <pt x="96" y="23" on="0"/>
        <pt x="85" y="-8" on="1"/>
        <pt x="70" y="-26" on="0"/>
        <pt x="51" y="-26" on="1"/>
        <pt x="30" y="-26" on="0"/>
        <pt x="0" y="11" on="0"/>
        <pt x="0" y="38" on="1"/>
        <pt x="31" y="155" on="0"/>
        <pt x="192" y="588" on="0"/>
        <pt x="222" y="686" on="1"/>
        <pt x="187" y="707" on="0"/>
      </contour>
      <contour>
        <pt x="268" y="624" on="1"/>
        <pt x="248" y="503" on="0"/>
        <pt x="157" y="269" on="1"/>
        <pt x="269" y="269" on="1"/>
        <pt x="345" y="269" on="0"/>
        <pt x="396" y="264" on="1"/>
        <pt x="293" y="485" on="0"/>
      </contour>
      <contour>
        <pt x="266" y="790" on="1"/>
        <pt x="249" y="790" on="0"/>
        <pt x="227" y="767" on="0"/>
        <pt x="227" y="751" on="1"/>
        <pt x="227" y="737" on="0"/>
        <pt x="246" y="713" on="0"/>
        <pt x="266" y="713" on="1"/>
        <pt x="285" y="713" on="0"/>
        <pt x="303" y="738" on="0"/>
        <pt x="303" y="755" on="1"/>
        <pt x="303" y="769" on="0"/>
        <pt x="284" y="790" on="0"/>
      </contour>
    </TTGlyph>
    <TTGlyph name="B" xMin="41" yMin="-4" xMax="457" yMax="767">
      <contour>
        <pt x="41" y="26" on="1"/>
        <pt x="46" y="730" on="1"/>
        <pt x="57" y="767" on="0"/>
        <pt x="132" y="767" on="1"/>
        <pt x="201" y="767" on="0"/>
        <pt x="317" y="730" on="0"/>
        <pt x="396" y="643" on="0"/>
        <pt x="396" y="582" on="1"/>
        <pt x="396" y="534" on="0"/>
        <pt x="349" y="444" on="0"/>
        <pt x="315" y="431" on="1"/>
        <pt x="379" y="422" on="0"/>
        <pt x="457" y="286" on="0"/>
        <pt x="457" y="193" on="1"/>
        <pt x="457" y="130" on="0"/>
        <pt x="357" y="37" on="0"/>
        <pt x="224" y="-4" on="0"/>
        <pt x="156" y="-4" on="1"/>
        <pt x="73" y="-4" on="0"/>
      </contour>
      <contour>
        <pt x="123" y="376" on="1"/>
        <pt x="123" y="307" on="0"/>
        <pt x="121" y="99" on="1"/>
        <pt x="151" y="65" on="0"/>
        <pt x="198" y="65" on="1"/>
        <pt x="260" y="65" on="0"/>
        <pt x="376" y="168" on="0"/>
        <pt x="376" y="227" on="1"/>
        <pt x="376" y="300" on="0"/>
        <pt x="278" y="382" on="0"/>
        <pt x="201" y="382" on="1"/>
        <pt x="150" y="382" on="0"/>
      </contour>
      <contour>
        <pt x="121" y="450" on="1"/>
        <pt x="183" y="451" on="1"/>
        <pt x="247" y="451" on="0"/>
        <pt x="316" y="526" on="0"/>
        <pt x="316" y="578" on="1"/>
        <pt x="316" y="631" on="0"/>
        <pt x="246" y="708" on="0"/>
        <pt x="184" y="708" on="1"/>
        <pt x="156" y="708" on="0"/>
        <pt x="118" y="696" on="1"/>
        <pt x="120" y="635" on="0"/>
        <pt x="121" y="455" on="0"/>
      </contour>
    </TTGlyph>
    <TTGlyph name="C" xMin="41" yMin="-46" xMax="530" yMax="730">
      <contour>
        <pt x="499" y="660" on="1"/>
        <pt x="459" y="614" on="1"/>
        <pt x="381" y="672" on="0"/>
        <pt x="305" y="672" on="1"/>
        <pt x="255" y="672" on="0"/>
        <pt x="183" y="624" on="0"/>
        <pt x="146" y="556" on="0"/>
        <pt x="125" y="452" on="0"/>
        <pt x="120" y="376" on="0"/>
        <pt x="120" y="325" on="1"/>
        <pt x="120" y="275" on="0"/>
        <pt x="157" y="148" on="0"/>
        <pt x="245" y="38" on="0"/>
        <pt x="303" y="38" on="1"/>
        <pt x="366" y="38" on="0"/>
        <pt x="496" y="104" on="1"/>
        <pt x="509" y="85" on="0"/>
        <pt x="530" y="41" on="1"/>
        <pt x="404" y="-46" on="0"/>
        <pt x="305" y="-46" on="1"/>
        <pt x="241" y="-46" on="0"/>
        <pt x="135" y="32" on="0"/>
        <pt x="74" y="152" on="0"/>
        <pt x="41" y="283" on="0"/>
        <pt x="41" y="342" on="1"/>
        <pt x="41" y="407" on="0"/>
        <pt x="61" y="530" on="0"/>
        <pt x="109" y="654" on="0"/>
        <pt x="206" y="730" on="0"/>
        <pt x="273" y="730" on="1"/>
        <pt x="331" y="730" on="0"/>
        <pt x="455" y="690" on="0"/>
      </contour>
    </TTGlyph>
    <TTGlyph name="Ccedilla" xMin="41" yMin="-288" xMax="530" yMax="730">
      <contour>
        <pt x="327" y="-174" on="1"/>
        <pt x="327" y="-148" on="0"/>
        <pt x="277" y="-124" on="0"/>
        <pt x="241" y="-131" on="1"/>
        <pt x="241" y="-33" on="1"/>
        <pt x="181" y="-20" on="0"/>
        <pt x="86" y="110" on="0"/>
        <pt x="41" y="269" on="0"/>
        <pt x="41" y="342" on="1"/>
        <pt x="41" y="407" on="0"/>
        <pt x="61" y="530" on="0"/>
        <pt x="109" y="654" on="0"/>
        <pt x="206" y="730" on="0"/>
        <pt x="273" y="730" on="1"/>
        <pt x="331" y="730" on="0"/>
        <pt x="455" y="690" on="0"/>
        <pt x="499" y="660" on="1"/>
        <pt x="459" y="614" on="1"/>
        <pt x="381" y="672" on="0"/>
        <pt x="305" y="672" on="1"/>
        <pt x="255" y="672" on="0"/>
        <pt x="183" y="624" on="0"/>
        <pt x="146" y="556" on="0"/>
        <pt x="125" y="452" on="0"/>
        <pt x="120" y="376" on="0"/>
        <pt x="120" y="325" on="1"/>
        <pt x="120" y="275" on="0"/>
        <pt x="157" y="148" on="0"/>
        <pt x="245" y="38" on="0"/>
        <pt x="303" y="38" on="1"/>
        <pt x="366" y="38" on="0"/>
        <pt x="496" y="104" on="1"/>
        <pt x="509" y="85" on="0"/>
        <pt x="530" y="41" on="1"/>
        <pt x="439" y="-21" on="0"/>
        <pt x="303" y="-34" on="1"/>
        <pt x="303" y="-71" on="1"/>
        <pt x="344" y="-80" on="0"/>
        <pt x="402" y="-134" on="0"/>
        <pt x="402" y="-173" on="1"/>
        <pt x="402" y="-224" on="0"/>
        <pt x="336" y="-288" on="0"/>
        <pt x="282" y="-288" on="1"/>
        <pt x="259" y="-288" on="0"/>
        <pt x="236" y="-281" on="1"/>
        <pt x="244" y="-224" on="1"/>
        <pt x="327" y="-235" on="0"/>
      </contour>
    </TTGlyph>
    <TTGlyph name="D" xMin="41" yMin="0" xMax="508" yMax="728">
      <contour>
        <pt x="41" y="6" on="1"/>
        <pt x="44" y="728" on="1"/>
        <pt x="266" y="726" on="0"/>
        <pt x="508" y="503" on="0"/>
        <pt x="508" y="288" on="1"/>
        <pt x="508" y="219" on="0"/>
        <pt x="436" y="105" on="0"/>
        <pt x="323" y="37" on="0"/>
        <pt x="192" y="0" on="0"/>
        <pt x="128" y="0" on="1"/>
        <pt x="88" y="0" on="0"/>
      </contour>
      <contour>
        <pt x="116" y="67" on="1"/>
        <pt x="133" y="67" on="1"/>
        <pt x="190" y="67" on="0"/>
        <pt x="296" y="94" on="0"/>
        <pt x="386" y="148" on="0"/>
        <pt x="440" y="243" on="0"/>
        <pt x="440" y="305" on="1"/>
        <pt x="440" y="389" on="0"/>
        <pt x="339" y="562" on="0"/>
        <pt x="196" y="669" on="0"/>
        <pt x="135" y="669" on="1"/>
        <pt x="122" y="669" on="0"/>
        <pt x="110" y="666" on="1"/>
        <pt x="110" y="606" on="0"/>
      </contour>
    </TTGlyph>
    <TTGlyph name="E" xMin="41" yMin="-7" xMax="449" yMax="728">
      <contour>
        <pt x="422" y="45" on="1"/>
        <pt x="432" y="0" on="1"/>
        <pt x="393" y="0" on="0"/>
        <pt x="188" y="-7" on="0"/>
        <pt x="142" y="-7" on="1"/>
        <pt x="68" y="-7" on="0"/>
        <pt x="41" y="0" on="1"/>
        <pt x="51" y="110" on="0"/>
        <pt x="55" y="626" on="0"/>
        <pt x="66" y="728" on="1"/>
        <pt x="100" y="725" on="0"/>
        <pt x="393" y="721" on="0"/>
        <pt x="438" y="714" on="1"/>
        <pt x="449" y="669" on="1"/>
        <pt x="404" y="661" on="0"/>
        <pt x="134" y="639" on="0"/>
        <pt x="127" y="638" on="1"/>
        <pt x="128" y="615" on="0"/>
        <pt x="135" y="473" on="0"/>
        <pt x="136" y="427" on="1"/>
        <pt x="170" y="423" on="0"/>
        <pt x="350" y="408" on="0"/>
        <pt x="374" y="406" on="1"/>
        <pt x="384" y="360" on="1"/>
        <pt x="173" y="341" on="0"/>
        <pt x="137" y="340" on="1"/>
        <pt x="137" y="296" on="0"/>
        <pt x="134" y="117" on="0"/>
        <pt x="134" y="75" on="1"/>
        <pt x="363" y="54" on="0"/>
      </contour>
    </TTGlyph>
    <TTGlyph name="Eacute" xMin="41" yMin="-7" xMax="449" yMax="954">
      <contour>
        <pt x="422" y="45" on="1"/>
        <pt x="432" y="0" on="1"/>
        <pt x="393" y="0" on="0"/>
        <pt x="188" y="-7" on="0"/>
        <pt x="142" y="-7" on="1"/>
        <pt x="68" y="-7" on="0"/>
        <pt x="41" y="0" on="1"/>
        <pt x="51" y="110" on="0"/>
        <pt x="55" y="626" on="0"/>
        <pt x="66" y="728" on="1"/>
        <pt x="100" y="725" on="0"/>
        <pt x="393" y="721" on="0"/>
        <pt x="438" y="714" on="1"/>
        <pt x="449" y="669" on="1"/>
        <pt x="404" y="661" on="0"/>
        <pt x="134" y="639" on="0"/>
        <pt x="127" y="638" on="1"/>
        <pt x="128" y="615" on="0"/>
        <pt x="135" y="473" on="0"/>
        <pt x="136" y="427" on="1"/>
        <pt x="170" y="423" on="0"/>
        <pt x="350" y="408" on="0"/>
        <pt x="374" y="406" on="1"/>
        <pt x="384" y="360" on="1"/>
        <pt x="173" y="341" on="0"/>
        <pt x="137" y="340" on="1"/>
        <pt x="137" y="296" on="0"/>
        <pt x="134" y="117" on="0"/>
        <pt x="134" y="75" on="1"/>
        <pt x="363" y="54" on="0"/>
      </contour>
      <contour>
        <pt x="344" y="948" on="1"/>
        <pt x="358" y="943" on="1"/>
        <pt x="279" y="791" on="1"/>
        <pt x="199" y="781" on="1"/>
        <pt x="245" y="866" on="1"/>
        <pt x="249" y="874" on="0"/>
        <pt x="261" y="898" on="0"/>
        <pt x="269" y="914" on="0"/>
        <pt x="280" y="934" on="0"/>
        <pt x="293" y="945" on="0"/>
        <pt x="309" y="954" on="0"/>
        <pt x="331" y="953" on="0"/>
      </contour>
    </TTGlyph>
    <TTGlyph name="Ecircumflex" xMin="41" yMin="-7" xMax="449" yMax="931">
      <component glyphName="E" x="0" y="0" flags="0x204"/>
      <component glyphName="circumflex" x="1" y="189" flags="0x4"/>
    </TTGlyph>
    <TTGlyph name="Edieresis" xMin="41" yMin="-7" xMax="449" yMax="953">
      <contour>
        <pt x="422" y="45" on="1"/>
        <pt x="432" y="0" on="1"/>
        <pt x="414" y="0" on="1"/>
        <pt x="387" y="0" on="0"/>
        <pt x="191" y="-7" on="0"/>
        <pt x="142" y="-7" on="1"/>
        <pt x="68" y="-7" on="0"/>
        <pt x="41" y="0" on="1"/>
        <pt x="51" y="110" on="0"/>
        <pt x="55" y="626" on="0"/>
        <pt x="66" y="728" on="1"/>
        <pt x="100" y="725" on="0"/>
        <pt x="393" y="721" on="0"/>
        <pt x="438" y="714" on="1"/>
        <pt x="449" y="669" on="1"/>
        <pt x="404" y="661" on="0"/>
        <pt x="134" y="639" on="0"/>
        <pt x="127" y="638" on="1"/>
        <pt x="128" y="615" on="0"/>
        <pt x="135" y="473" on="0"/>
        <pt x="136" y="427" on="1"/>
        <pt x="170" y="423" on="0"/>
        <pt x="350" y="408" on="0"/>
        <pt x="374" y="406" on="1"/>
        <pt x="384" y="360" on="1"/>
        <pt x="173" y="341" on="0"/>
        <pt x="137" y="340" on="1"/>
        <pt x="137" y="296" on="0"/>
        <pt x="134" y="117" on="0"/>
        <pt x="134" y="75" on="1"/>
        <pt x="363" y="54" on="0"/>
      </contour>
      <contour>
        <pt x="129" y="953" on="1"/>
        <pt x="156" y="953" on="0"/>
        <pt x="193" y="907" on="0"/>
        <pt x="193" y="877" on="1"/>
        <pt x="193" y="855" on="0"/>
        <pt x="172" y="827" on="0"/>
        <pt x="154" y="827" on="1"/>
        <pt x="126" y="827" on="0"/>
        <pt x="93" y="873" on="0"/>
        <pt x="93" y="904" on="1"/>
        <pt x="93" y="926" on="0"/>
        <pt x="112" y="953" on="0"/>
      </contour>
      <contour>
        <pt x="343" y="953" on="1"/>
        <pt x="370" y="953" on="0"/>
        <pt x="407" y="907" on="0"/>
        <pt x="407" y="877" on="1"/>
        <pt x="407" y="855" on="0"/>
        <pt x="386" y="827" on="0"/>
        <pt x="368" y="827" on="1"/>
        <pt x="340" y="827" on="0"/>
        <pt x="307" y="873" on="0"/>
        <pt x="307" y="904" on="1"/>
        <pt x="307" y="926" on="0"/>
        <pt x="326" y="953" on="0"/>
      </contour>
    </TTGlyph>
    <TTGlyph name="Egrave" xMin="41" yMin="-7" xMax="449" yMax="951">
      <component glyphName="E" x="0" y="0" flags="0x204"/>
      <component glyphName="grave" x="-23" y="185" flags="0x4"/>
    </TTGlyph>
    <TTGlyph name="Euro" xMin="20" yMin="-46" xMax="580" yMax="730">
      <contour>
        <pt x="36" y="232" on="1"/>
        <pt x="26" y="278" on="1"/>
        <pt x="34" y="279" on="0"/>
        <pt x="82" y="282" on="0"/>
        <pt x="94" y="283" on="1"/>
        <pt x="90" y="310" on="0"/>
        <pt x="90" y="342" on="1"/>
        <pt x="90" y="369" on="1"/>
        <pt x="86" y="369" on="0"/>
        <pt x="66" y="368" on="0"/>
        <pt x="60" y="368" on="1"/>
        <pt x="20" y="372" on="0"/>
        <pt x="20" y="402" on="1"/>
        <pt x="20" y="422" on="0"/>
        <pt x="55" y="457" on="0"/>
        <pt x="80" y="458" on="1"/>
        <pt x="87" y="457" on="0"/>
        <pt x="98" y="457" on="1"/>
        <pt x="106" y="511" on="0"/>
        <pt x="137" y="603" on="0"/>
        <pt x="188" y="684" on="0"/>
        <pt x="271" y="730" on="0"/>
        <pt x="323" y="730" on="1"/>
        <pt x="381" y="730" on="0"/>
        <pt x="504" y="690" on="0"/>
        <pt x="548" y="660" on="1"/>
        <pt x="508" y="614" on="1"/>
        <pt x="430" y="672" on="0"/>
        <pt x="354" y="672" on="1"/>
        <pt x="200" y="672" on="0"/>
        <pt x="175" y="453" on="1"/>
        <pt x="318" y="448" on="0"/>
        <pt x="451" y="438" on="1"/>
        <pt x="440" y="393" on="1"/>
        <pt x="243" y="377" on="0"/>
        <pt x="169" y="373" on="1"/>
        <pt x="169" y="302" on="0"/>
        <pt x="171" y="290" on="1"/>
        <pt x="281" y="299" on="0"/>
        <pt x="412" y="305" on="1"/>
        <pt x="437" y="304" on="0"/>
        <pt x="471" y="270" on="0"/>
        <pt x="471" y="250" on="1"/>
        <pt x="471" y="237" on="0"/>
        <pt x="451" y="217" on="0"/>
        <pt x="431" y="215" on="1"/>
        <pt x="368" y="218" on="0"/>
        <pt x="213" y="222" on="0"/>
        <pt x="185" y="223" on="1"/>
        <pt x="207" y="146" on="0"/>
        <pt x="292" y="38" on="0"/>
        <pt x="352" y="38" on="1"/>
        <pt x="415" y="38" on="0"/>
        <pt x="545" y="104" on="1"/>
        <pt x="561" y="80" on="0"/>
        <pt x="580" y="41" on="1"/>
        <pt x="454" y="-46" on="0"/>
        <pt x="354" y="-46" on="1"/>
        <pt x="304" y="-46" on="0"/>
        <pt x="218" y="1" on="0"/>
        <pt x="157" y="81" on="0"/>
        <pt x="115" y="174" on="0"/>
        <pt x="103" y="227" on="1"/>
        <pt x="97" y="227" on="0"/>
      </contour>
    </TTGlyph>
    <TTGlyph name="F" xMin="41" yMin="-6" xMax="449" yMax="728">
      <contour>
        <pt x="132" y="-6" on="1"/>
        <pt x="41" y="0" on="1"/>
        <pt x="51" y="110" on="0"/>
        <pt x="55" y="626" on="0"/>
        <pt x="66" y="728" on="1"/>
        <pt x="100" y="725" on="0"/>
        <pt x="393" y="721" on="0"/>
        <pt x="438" y="714" on="1"/>
        <pt x="449" y="669" on="1"/>
        <pt x="404" y="661" on="0"/>
        <pt x="134" y="639" on="0"/>
        <pt x="127" y="638" on="1"/>
        <pt x="128" y="615" on="0"/>
        <pt x="135" y="473" on="0"/>
        <pt x="136" y="427" on="1"/>
        <pt x="170" y="423" on="0"/>
        <pt x="350" y="408" on="0"/>
        <pt x="374" y="406" on="1"/>
        <pt x="384" y="360" on="1"/>
        <pt x="173" y="341" on="0"/>
        <pt x="137" y="340" on="1"/>
        <pt x="137" y="323" on="1"/>
        <pt x="137" y="285" on="0"/>
        <pt x="132" y="46" on="0"/>
        <pt x="132" y="9" on="1"/>
      </contour>
    </TTGlyph>
    <TTGlyph name="G" xMin="41" yMin="-39" xMax="544" yMax="730">
      <contour>
        <pt x="368" y="230" on="1"/>
        <pt x="357" y="275" on="1"/>
        <pt x="377" y="278" on="0"/>
        <pt x="525" y="291" on="0"/>
        <pt x="544" y="295" on="1"/>
        <pt x="544" y="-23" on="1"/>
        <pt x="466" y="-39" on="1"/>
        <pt x="465" y="-29" on="0"/>
        <pt x="465" y="46" on="0"/>
        <pt x="464" y="57" on="1"/>
        <pt x="464" y="55" on="0"/>
        <pt x="450" y="36" on="0"/>
        <pt x="420" y="8" on="0"/>
        <pt x="380" y="-18" on="0"/>
        <pt x="318" y="-36" on="0"/>
        <pt x="284" y="-36" on="1"/>
        <pt x="41" y="-36" on="0"/>
        <pt x="41" y="342" on="1"/>
        <pt x="41" y="407" on="0"/>
        <pt x="61" y="530" on="0"/>
        <pt x="109" y="654" on="0"/>
        <pt x="206" y="730" on="0"/>
        <pt x="273" y="730" on="1"/>
        <pt x="331" y="730" on="0"/>
        <pt x="455" y="690" on="0"/>
        <pt x="499" y="660" on="1"/>
        <pt x="459" y="614" on="1"/>
        <pt x="381" y="672" on="0"/>
        <pt x="305" y="672" on="1"/>
        <pt x="255" y="672" on="0"/>
        <pt x="183" y="624" on="0"/>
        <pt x="146" y="556" on="0"/>
        <pt x="125" y="452" on="0"/>
        <pt x="120" y="376" on="0"/>
        <pt x="120" y="325" on="1"/>
        <pt x="120" y="203" on="0"/>
        <pt x="210" y="48" on="0"/>
        <pt x="282" y="48" on="1"/>
        <pt x="313" y="48" on="0"/>
        <pt x="372" y="68" on="0"/>
        <pt x="414" y="96" on="0"/>
        <pt x="448" y="126" on="0"/>
        <pt x="465" y="146" on="0"/>
        <pt x="465" y="148" on="1"/>
        <pt x="465" y="212" on="1"/>
      </contour>
    </TTGlyph>
    <TTGlyph name="H" xMin="41" yMin="-23" xMax="439" yMax="731">
      <contour>
        <pt x="349" y="719" on="1"/>
        <pt x="407" y="731" on="1"/>
        <pt x="425" y="590" on="0"/>
        <pt x="434" y="89" on="0"/>
        <pt x="439" y="8" on="1"/>
        <pt x="430" y="-23" on="0"/>
        <pt x="404" y="-23" on="1"/>
        <pt x="386" y="-23" on="0"/>
        <pt x="353" y="7" on="0"/>
        <pt x="349" y="28" on="1"/>
        <pt x="350" y="64" on="0"/>
        <pt x="350" y="148" on="1"/>
        <pt x="350" y="345" on="1"/>
        <pt x="328" y="344" on="0"/>
        <pt x="249" y="337" on="0"/>
        <pt x="184" y="333" on="0"/>
        <pt x="155" y="333" on="1"/>
        <pt x="129" y="333" on="0"/>
        <pt x="117" y="334" on="1"/>
        <pt x="119" y="273" on="0"/>
        <pt x="129" y="50" on="0"/>
        <pt x="131" y="8" on="1"/>
        <pt x="122" y="-23" on="0"/>
        <pt x="96" y="-23" on="1"/>
        <pt x="78" y="-23" on="0"/>
        <pt x="45" y="7" on="0"/>
        <pt x="41" y="28" on="1"/>
        <pt x="44" y="114" on="0"/>
        <pt x="49" y="610" on="0"/>
        <pt x="56" y="731" on="1"/>
        <pt x="101" y="721" on="1"/>
        <pt x="101" y="718" on="0"/>
        <pt x="102" y="705" on="0"/>
        <pt x="102" y="701" on="1"/>
        <pt x="115" y="455" on="0"/>
        <pt x="117" y="393" on="1"/>
        <pt x="151" y="396" on="0"/>
        <pt x="228" y="403" on="0"/>
        <pt x="321" y="412" on="0"/>
        <pt x="347" y="414" on="1"/>
        <pt x="348" y="414" on="0"/>
        <pt x="348" y="434" on="0"/>
        <pt x="349" y="576" on="0"/>
      </contour>
    </TTGlyph>
    <TTGlyph name="I" xMin="20" yMin="-3" xMax="317" yMax="711">
      <contour>
        <pt x="24" y="-3" on="1"/>
        <pt x="22" y="46" on="1"/>
        <pt x="114" y="61" on="0"/>
        <pt x="136" y="62" on="1"/>
        <pt x="137" y="96" on="0"/>
        <pt x="137" y="164" on="1"/>
        <pt x="137" y="254" on="0"/>
        <pt x="129" y="593" on="0"/>
        <pt x="128" y="648" on="1"/>
        <pt x="27" y="653" on="1"/>
        <pt x="20" y="711" on="1"/>
        <pt x="61" y="710" on="0"/>
        <pt x="147" y="710" on="1"/>
        <pt x="235" y="710" on="0"/>
        <pt x="278" y="709" on="1"/>
        <pt x="281" y="659" on="1"/>
        <pt x="264" y="652" on="0"/>
        <pt x="202" y="649" on="0"/>
        <pt x="194" y="648" on="1"/>
        <pt x="197" y="620" on="0"/>
        <pt x="198" y="394" on="0"/>
        <pt x="198" y="120" on="0"/>
        <pt x="200" y="62" on="1"/>
        <pt x="216" y="59" on="0"/>
        <pt x="306" y="51" on="0"/>
        <pt x="317" y="49" on="1"/>
        <pt x="315" y="-3" on="1"/>
        <pt x="285" y="-2" on="0"/>
        <pt x="220" y="-2" on="1"/>
        <pt x="186" y="-2" on="0"/>
        <pt x="52" y="-3" on="0"/>
      </contour>
    </TTGlyph>
    <TTGlyph name="Iacute" xMin="20" yMin="-3" xMax="317" yMax="951">
      <component glyphName="I" x="0" y="0" flags="0x200"/>
      <component glyphName="acute" x="-60" y="185" flags="0x0"/>
    </TTGlyph>
    <TTGlyph name="Icircumflex" xMin="7" yMin="-3" xMax="317" yMax="932">
      <component glyphName="I" x="0" y="0" flags="0x204"/>
      <component glyphName="circumflex" x="-90" y="190" flags="0x4"/>
    </TTGlyph>
    <TTGlyph name="Idieresis" xMin="11" yMin="-3" xMax="317" yMax="902">
      <contour>
        <pt x="24" y="-3" on="1"/>
        <pt x="22" y="46" on="1"/>
        <pt x="114" y="61" on="0"/>
        <pt x="136" y="62" on="1"/>
        <pt x="137" y="96" on="0"/>
        <pt x="137" y="164" on="1"/>
        <pt x="137" y="254" on="0"/>
        <pt x="129" y="593" on="0"/>
        <pt x="128" y="648" on="1"/>
        <pt x="27" y="653" on="1"/>
        <pt x="20" y="711" on="1"/>
        <pt x="61" y="710" on="0"/>
        <pt x="147" y="710" on="1"/>
        <pt x="235" y="710" on="0"/>
        <pt x="278" y="709" on="1"/>
        <pt x="281" y="659" on="1"/>
        <pt x="264" y="652" on="0"/>
        <pt x="202" y="649" on="0"/>
        <pt x="194" y="648" on="1"/>
        <pt x="197" y="620" on="0"/>
        <pt x="198" y="394" on="0"/>
        <pt x="198" y="120" on="0"/>
        <pt x="200" y="62" on="1"/>
        <pt x="216" y="59" on="0"/>
        <pt x="306" y="51" on="0"/>
        <pt x="317" y="49" on="1"/>
        <pt x="315" y="-3" on="1"/>
        <pt x="285" y="-2" on="0"/>
        <pt x="220" y="-2" on="1"/>
        <pt x="186" y="-2" on="0"/>
        <pt x="52" y="-3" on="0"/>
      </contour>
      <contour>
        <pt x="47" y="902" on="1"/>
        <pt x="74" y="902" on="0"/>
        <pt x="111" y="855" on="0"/>
        <pt x="111" y="825" on="1"/>
        <pt x="111" y="803" on="0"/>
        <pt x="90" y="776" on="0"/>
        <pt x="72" y="776" on="1"/>
        <pt x="44" y="776" on="0"/>
        <pt x="11" y="822" on="0"/>
        <pt x="11" y="853" on="1"/>
        <pt x="11" y="875" on="0"/>
        <pt x="30" y="902" on="0"/>
      </contour>
      <contour>
        <pt x="220" y="902" on="1"/>
        <pt x="247" y="902" on="0"/>
        <pt x="284" y="855" on="0"/>
        <pt x="284" y="825" on="1"/>
        <pt x="284" y="803" on="0"/>
        <pt x="263" y="776" on="0"/>
        <pt x="245" y="776" on="1"/>
        <pt x="217" y="776" on="0"/>
        <pt x="184" y="822" on="0"/>
        <pt x="184" y="853" on="1"/>
        <pt x="184" y="875" on="0"/>
        <pt x="203" y="902" on="0"/>
      </contour>
    </TTGlyph>
    <TTGlyph name="J" xMin="0" yMin="-28" xMax="348" yMax="725">
      <contour>
        <pt x="0" y="98" on="1"/>
        <pt x="51" y="124" on="1"/>
        <pt x="109" y="46" on="0"/>
        <pt x="183" y="46" on="1"/>
        <pt x="239" y="46" on="0"/>
        <pt x="274" y="126" on="0"/>
        <pt x="274" y="217" on="1"/>
        <pt x="274" y="283" on="0"/>
        <pt x="270" y="563" on="0"/>
        <pt x="270" y="643" on="1"/>
        <pt x="270" y="697" on="0"/>
        <pt x="271" y="725" on="1"/>
        <pt x="278" y="722" on="0"/>
        <pt x="290" y="722" on="1"/>
        <pt x="294" y="722" on="0"/>
        <pt x="309" y="723" on="0"/>
        <pt x="314" y="723" on="1"/>
        <pt x="331" y="723" on="0"/>
        <pt x="344" y="717" on="1"/>
        <pt x="342" y="649" on="0"/>
        <pt x="342" y="613" on="1"/>
        <pt x="342" y="556" on="0"/>
        <pt x="348" y="303" on="0"/>
        <pt x="348" y="233" on="1"/>
        <pt x="348" y="188" on="0"/>
        <pt x="347" y="142" on="0"/>
        <pt x="343" y="79" on="0"/>
        <pt x="334" y="50" on="0"/>
        <pt x="317" y="10" on="0"/>
        <pt x="293" y="-5" on="0"/>
        <pt x="256" y="-23" on="0"/>
        <pt x="208" y="-28" on="0"/>
        <pt x="176" y="-28" on="1"/>
        <pt x="53" y="-28" on="0"/>
      </contour>
    </TTGlyph>
    <TTGlyph name="K" xMin="41" yMin="-16" xMax="460" yMax="738">
      <contour>
        <pt x="460" y="-7" on="1"/>
        <pt x="372" y="-7" on="1"/>
        <pt x="339" y="24" on="0"/>
        <pt x="265" y="104" on="0"/>
        <pt x="218" y="160" on="0"/>
        <pt x="135" y="263" on="0"/>
        <pt x="118" y="284" on="1"/>
        <pt x="131" y="14" on="1"/>
        <pt x="122" y="-16" on="0"/>
        <pt x="96" y="-16" on="1"/>
        <pt x="78" y="-16" on="0"/>
        <pt x="45" y="13" on="0"/>
        <pt x="41" y="34" on="1"/>
        <pt x="44" y="114" on="0"/>
        <pt x="48" y="618" on="0"/>
        <pt x="55" y="738" on="1"/>
        <pt x="100" y="728" on="1"/>
        <pt x="103" y="678" on="0"/>
        <pt x="111" y="431" on="0"/>
        <pt x="113" y="390" on="1"/>
        <pt x="130" y="411" on="0"/>
        <pt x="223" y="524" on="0"/>
        <pt x="258" y="565" on="0"/>
        <pt x="325" y="643" on="0"/>
        <pt x="381" y="701" on="0"/>
        <pt x="413" y="731" on="1"/>
        <pt x="443" y="682" on="1"/>
        <pt x="407" y="622" on="0"/>
        <pt x="164" y="342" on="1"/>
        <pt x="199" y="305" on="0"/>
        <pt x="418" y="35" on="0"/>
      </contour>
    </TTGlyph>
    <TTGlyph name="L" xMin="41" yMin="-6" xMax="486" yMax="717">
      <contour>
        <pt x="48" y="717" on="1"/>
        <pt x="108" y="711" on="1"/>
        <pt x="123" y="558" on="0"/>
        <pt x="137" y="81" on="1"/>
        <pt x="204" y="85" on="0"/>
        <pt x="410" y="85" on="0"/>
        <pt x="472" y="88" on="1"/>
        <pt x="478" y="71" on="0"/>
        <pt x="483" y="9" on="0"/>
        <pt x="486" y="-6" on="1"/>
        <pt x="355" y="2" on="0"/>
        <pt x="152" y="2" on="1"/>
        <pt x="41" y="2" on="1"/>
        <pt x="46" y="150" on="0"/>
        <pt x="47" y="646" on="0"/>
      </contour>
    </TTGlyph>
    <TTGlyph name="M" xMin="0" yMin="-7" xMax="736" yMax="716">
      <contour>
        <pt x="736" y="0" on="1"/>
        <pt x="660" y="-7" on="1"/>
        <pt x="605" y="338" on="0"/>
        <pt x="541" y="584" on="1"/>
        <pt x="508" y="506" on="0"/>
        <pt x="429" y="223" on="0"/>
        <pt x="414" y="181" on="1"/>
        <pt x="412" y="181" on="0"/>
        <pt x="403" y="180" on="0"/>
        <pt x="400" y="180" on="1"/>
        <pt x="386" y="180" on="0"/>
        <pt x="322" y="186" on="0"/>
        <pt x="313" y="186" on="1"/>
        <pt x="312" y="215" on="0"/>
        <pt x="212" y="544" on="0"/>
        <pt x="202" y="590" on="1"/>
        <pt x="184" y="428" on="0"/>
        <pt x="62" y="0" on="1"/>
        <pt x="0" y="6" on="1"/>
        <pt x="14" y="115" on="0"/>
        <pt x="124" y="583" on="0"/>
        <pt x="134" y="711" on="1"/>
        <pt x="152" y="713" on="0"/>
        <pt x="163" y="713" on="1"/>
        <pt x="173" y="713" on="0"/>
        <pt x="237" y="705" on="1"/>
        <pt x="251" y="703" on="0"/>
        <pt x="304" y="526" on="0"/>
        <pt x="358" y="314" on="0"/>
        <pt x="365" y="295" on="1"/>
        <pt x="393" y="364" on="0"/>
        <pt x="472" y="674" on="0"/>
        <pt x="488" y="716" on="1"/>
        <pt x="504" y="715" on="0"/>
        <pt x="589" y="707" on="1"/>
        <pt x="615" y="606" on="0"/>
        <pt x="664" y="372" on="0"/>
        <pt x="721" y="74" on="0"/>
      </contour>
    </TTGlyph>
    <TTGlyph name="N" xMin="41" yMin="-23" xMax="521" yMax="721">
      <contour>
        <pt x="41" y="28" on="1"/>
        <pt x="54" y="720" on="1"/>
        <pt x="108" y="720" on="1"/>
        <pt x="435" y="99" on="1"/>
        <pt x="435" y="178" on="1"/>
        <pt x="435" y="480" on="0"/>
        <pt x="446" y="721" on="1"/>
        <pt x="503" y="710" on="1"/>
        <pt x="514" y="493" on="0"/>
        <pt x="521" y="-5" on="1"/>
        <pt x="500" y="-14" on="0"/>
        <pt x="477" y="-14" on="1"/>
        <pt x="443" y="-14" on="0"/>
        <pt x="406" y="6" on="1"/>
        <pt x="345" y="100" on="0"/>
        <pt x="164" y="462" on="0"/>
        <pt x="126" y="529" on="1"/>
        <pt x="127" y="461" on="0"/>
        <pt x="128" y="101" on="0"/>
        <pt x="131" y="8" on="1"/>
        <pt x="122" y="-23" on="0"/>
        <pt x="96" y="-23" on="1"/>
        <pt x="78" y="-23" on="0"/>
        <pt x="45" y="7" on="0"/>
      </contour>
    </TTGlyph>
    <TTGlyph name="Ntilde" xMin="41" yMin="-23" xMax="521" yMax="859">
      <component glyphName="N" x="0" y="0" flags="0x204"/>
      <component glyphName="tilde" x="27" y="170" flags="0x4"/>
    </TTGlyph>
    <TTGlyph name="O" xMin="42" yMin="-12" xMax="496" yMax="753">
      <contour>
        <pt x="42" y="335" on="1"/>
        <pt x="42" y="369" on="0"/>
        <pt x="42" y="404" on="0"/>
        <pt x="45" y="476" on="0"/>
        <pt x="50" y="518" on="0"/>
        <pt x="60" y="585" on="0"/>
        <pt x="76" y="626" on="0"/>
        <pt x="97" y="678" on="0"/>
        <pt x="129" y="710" on="0"/>
        <pt x="167" y="739" on="0"/>
        <pt x="219" y="753" on="0"/>
        <pt x="250" y="753" on="1"/>
        <pt x="312" y="753" on="0"/>
        <pt x="404" y="704" on="0"/>
        <pt x="456" y="630" on="0"/>
        <pt x="487" y="522" on="0"/>
        <pt x="496" y="424" on="0"/>
        <pt x="496" y="365" on="1"/>
        <pt x="496" y="325" on="0"/>
        <pt x="493" y="261" on="0"/>
        <pt x="484" y="180" on="0"/>
        <pt x="467" y="118" on="0"/>
        <pt x="437" y="55" on="0"/>
        <pt x="396" y="14" on="0"/>
        <pt x="334" y="-12" on="0"/>
        <pt x="296" y="-12" on="1"/>
        <pt x="234" y="-12" on="0"/>
        <pt x="145" y="18" on="0"/>
        <pt x="88" y="72" on="0"/>
        <pt x="55" y="160" on="0"/>
        <pt x="42" y="264" on="0"/>
      </contour>
      <contour>
        <pt x="424" y="327" on="1"/>
        <pt x="424" y="376" on="0"/>
        <pt x="409" y="482" on="0"/>
        <pt x="374" y="604" on="0"/>
        <pt x="298" y="681" on="0"/>
        <pt x="245" y="681" on="1"/>
        <pt x="205" y="681" on="0"/>
        <pt x="144" y="574" on="0"/>
        <pt x="118" y="441" on="0"/>
        <pt x="118" y="382" on="1"/>
        <pt x="118" y="341" on="0"/>
        <pt x="119" y="298" on="0"/>
        <pt x="125" y="219" on="0"/>
        <pt x="136" y="173" on="0"/>
        <pt x="160" y="113" on="0"/>
        <pt x="193" y="80" on="0"/>
        <pt x="246" y="55" on="0"/>
        <pt x="279" y="54" on="1"/>
        <pt x="352" y="58" on="0"/>
        <pt x="424" y="214" on="0"/>
      </contour>
    </TTGlyph>
    <TTGlyph name="OE" xMin="51" yMin="-7" xMax="806" yMax="726">
      <contour>
        <pt x="779" y="45" on="1"/>
        <pt x="790" y="0" on="1"/>
        <pt x="751" y="0" on="0"/>
        <pt x="546" y="-7" on="0"/>
        <pt x="500" y="-7" on="1"/>
        <pt x="444" y="-7" on="0"/>
        <pt x="407" y="-2" on="1"/>
        <pt x="216" y="-1" on="0"/>
        <pt x="51" y="163" on="0"/>
        <pt x="51" y="335" on="1"/>
        <pt x="51" y="539" on="0"/>
        <pt x="237" y="726" on="0"/>
        <pt x="433" y="726" on="1"/>
        <pt x="454" y="725" on="0"/>
        <pt x="749" y="722" on="0"/>
        <pt x="796" y="714" on="1"/>
        <pt x="806" y="669" on="1"/>
        <pt x="761" y="661" on="0"/>
        <pt x="491" y="639" on="0"/>
        <pt x="484" y="638" on="1"/>
        <pt x="485" y="610" on="0"/>
        <pt x="493" y="472" on="0"/>
        <pt x="494" y="427" on="1"/>
        <pt x="528" y="423" on="0"/>
        <pt x="707" y="408" on="0"/>
        <pt x="731" y="406" on="1"/>
        <pt x="741" y="360" on="1"/>
        <pt x="530" y="341" on="0"/>
        <pt x="495" y="340" on="1"/>
        <pt x="495" y="296" on="0"/>
        <pt x="492" y="117" on="0"/>
        <pt x="492" y="75" on="1"/>
        <pt x="718" y="54" on="0"/>
      </contour>
      <contour>
        <pt x="127" y="382" on="1"/>
        <pt x="127" y="209" on="0"/>
        <pt x="248" y="70" on="0"/>
        <pt x="399" y="65" on="1"/>
        <pt x="413" y="660" on="1"/>
        <pt x="273" y="656" on="0"/>
        <pt x="127" y="514" on="0"/>
      </contour>
    </TTGlyph>
    <TTGlyph name="Oacute" xMin="42" yMin="-12" xMax="496" yMax="981">
      <component glyphName="O" x="0" y="0" flags="0x200"/>
      <component glyphName="acute" x="52" y="215" flags="0x0"/>
    </TTGlyph>
    <TTGlyph name="Ocircumflex" xMin="42" yMin="-12" xMax="496" yMax="952">
      <component glyphName="O" x="0" y="0" flags="0x204"/>
      <component glyphName="circumflex" x="1" y="210" flags="0x4"/>
    </TTGlyph>
    <TTGlyph name="Odieresis" xMin="42" yMin="-12" xMax="496" yMax="933">
      <contour>
        <pt x="42" y="335" on="1"/>
        <pt x="42" y="369" on="0"/>
        <pt x="42" y="404" on="0"/>
        <pt x="45" y="476" on="0"/>
        <pt x="50" y="518" on="0"/>
        <pt x="60" y="585" on="0"/>
        <pt x="76" y="626" on="0"/>
        <pt x="97" y="678" on="0"/>
        <pt x="129" y="710" on="0"/>
        <pt x="167" y="739" on="0"/>
        <pt x="219" y="753" on="0"/>
        <pt x="250" y="753" on="1"/>
        <pt x="312" y="753" on="0"/>
        <pt x="404" y="704" on="0"/>
        <pt x="456" y="630" on="0"/>
        <pt x="487" y="522" on="0"/>
        <pt x="496" y="424" on="0"/>
        <pt x="496" y="365" on="1"/>
        <pt x="496" y="325" on="0"/>
        <pt x="493" y="261" on="0"/>
        <pt x="484" y="180" on="0"/>
        <pt x="467" y="118" on="0"/>
        <pt x="437" y="55" on="0"/>
        <pt x="396" y="14" on="0"/>
        <pt x="334" y="-12" on="0"/>
        <pt x="296" y="-12" on="1"/>
        <pt x="234" y="-12" on="0"/>
        <pt x="145" y="18" on="0"/>
        <pt x="88" y="72" on="0"/>
        <pt x="55" y="160" on="0"/>
        <pt x="42" y="264" on="0"/>
      </contour>
      <contour>
        <pt x="424" y="327" on="1"/>
        <pt x="424" y="376" on="0"/>
        <pt x="409" y="482" on="0"/>
        <pt x="374" y="604" on="0"/>
        <pt x="298" y="681" on="0"/>
        <pt x="245" y="681" on="1"/>
        <pt x="205" y="681" on="0"/>
        <pt x="144" y="574" on="0"/>
        <pt x="118" y="441" on="0"/>
        <pt x="118" y="382" on="1"/>
        <pt x="118" y="341" on="0"/>
        <pt x="119" y="298" on="0"/>
        <pt x="125" y="219" on="0"/>
        <pt x="136" y="173" on="0"/>
        <pt x="160" y="113" on="0"/>
        <pt x="193" y="80" on="0"/>
        <pt x="246" y="55" on="0"/>
        <pt x="279" y="54" on="1"/>
        <pt x="352" y="58" on="0"/>
        <pt x="424" y="214" on="0"/>
      </contour>
      <contour>
        <pt x="129" y="933" on="1"/>
        <pt x="156" y="933" on="0"/>
        <pt x="193" y="886" on="0"/>
        <pt x="193" y="856" on="1"/>
        <pt x="193" y="834" on="0"/>
        <pt x="172" y="807" on="0"/>
        <pt x="154" y="807" on="1"/>
        <pt x="126" y="807" on="0"/>
        <pt x="93" y="853" on="0"/>
        <pt x="93" y="884" on="1"/>
        <pt x="93" y="906" on="0"/>
        <pt x="112" y="933" on="0"/>
      </contour>
      <contour>
        <pt x="343" y="933" on="1"/>
        <pt x="370" y="933" on="0"/>
        <pt x="407" y="886" on="0"/>
        <pt x="407" y="856" on="1"/>
        <pt x="407" y="834" on="0"/>
        <pt x="386" y="807" on="0"/>
        <pt x="368" y="807" on="1"/>
        <pt x="340" y="807" on="0"/>
        <pt x="307" y="853" on="0"/>
        <pt x="307" y="884" on="1"/>
        <pt x="307" y="906" on="0"/>
        <pt x="326" y="933" on="0"/>
      </contour>
    </TTGlyph>
    <TTGlyph name="P" xMin="41" yMin="-35" xMax="484" yMax="732">
      <contour>
        <pt x="57" y="718" on="1"/>
        <pt x="102" y="730" on="1"/>
        <pt x="102" y="698" on="0"/>
        <pt x="103" y="694" on="1"/>
        <pt x="160" y="732" on="0"/>
        <pt x="263" y="732" on="1"/>
        <pt x="374" y="732" on="0"/>
        <pt x="484" y="593" on="0"/>
        <pt x="484" y="468" on="1"/>
        <pt x="484" y="357" on="0"/>
        <pt x="376" y="211" on="0"/>
        <pt x="267" y="211" on="1"/>
        <pt x="249" y="211" on="0"/>
        <pt x="123" y="223" on="1"/>
        <pt x="125" y="150" on="0"/>
        <pt x="131" y="-4" on="1"/>
        <pt x="122" y="-35" on="0"/>
        <pt x="96" y="-35" on="1"/>
        <pt x="78" y="-35" on="0"/>
        <pt x="45" y="-6" on="0"/>
        <pt x="41" y="15" on="1"/>
        <pt x="44" y="99" on="0"/>
        <pt x="51" y="585" on="0"/>
      </contour>
      <contour>
        <pt x="112" y="627" on="1"/>
        <pt x="120" y="315" on="1"/>
        <pt x="175" y="285" on="0"/>
        <pt x="247" y="285" on="1"/>
        <pt x="316" y="285" on="0"/>
        <pt x="412" y="389" on="0"/>
        <pt x="412" y="464" on="1"/>
        <pt x="412" y="545" on="0"/>
        <pt x="312" y="675" on="0"/>
        <pt x="237" y="675" on="1"/>
        <pt x="176" y="675" on="0"/>
      </contour>
    </TTGlyph>
    <TTGlyph name="Q" xMin="41" yMin="-161" xMax="500" yMax="753">
      <contour>
        <pt x="427" y="-115" on="1"/>
        <pt x="437" y="-160" on="1"/>
        <pt x="427" y="-161" on="0"/>
        <pt x="409" y="-161" on="1"/>
        <pt x="339" y="-161" on="0"/>
        <pt x="261" y="-82" on="0"/>
        <pt x="245" y="-7" on="1"/>
        <pt x="41" y="28" on="0"/>
        <pt x="41" y="292" on="1"/>
        <pt x="41" y="502" on="0"/>
        <pt x="86" y="629" on="1"/>
        <pt x="131" y="753" on="0"/>
        <pt x="257" y="753" on="1"/>
        <pt x="500" y="716" on="0"/>
        <pt x="500" y="370" on="1"/>
        <pt x="500" y="329" on="0"/>
        <pt x="499" y="279" on="0"/>
        <pt x="492" y="189" on="0"/>
        <pt x="480" y="131" on="0"/>
        <pt x="455" y="60" on="0"/>
        <pt x="420" y="18" on="0"/>
        <pt x="365" y="-12" on="0"/>
        <pt x="330" y="-12" on="1"/>
        <pt x="329" y="-17" on="0"/>
        <pt x="329" y="-26" on="1"/>
        <pt x="329" y="-63" on="0"/>
        <pt x="397" y="-115" on="0"/>
      </contour>
      <contour>
        <pt x="424" y="327" on="1"/>
        <pt x="424" y="366" on="0"/>
        <pt x="418" y="444" on="0"/>
        <pt x="396" y="544" on="0"/>
        <pt x="360" y="619" on="0"/>
        <pt x="295" y="671" on="0"/>
        <pt x="252" y="671" on="1"/>
        <pt x="222" y="671" on="0"/>
        <pt x="176" y="645" on="0"/>
        <pt x="149" y="593" on="0"/>
        <pt x="133" y="544" on="0"/>
        <pt x="126" y="464" on="0"/>
        <pt x="125" y="420" on="0"/>
        <pt x="125" y="382" on="1"/>
        <pt x="125" y="334" on="0"/>
        <pt x="128" y="265" on="0"/>
        <pt x="144" y="167" on="0"/>
        <pt x="172" y="104" on="0"/>
        <pt x="228" y="56" on="0"/>
        <pt x="267" y="54" on="1"/>
        <pt x="325" y="54" on="0"/>
        <pt x="398" y="136" on="0"/>
        <pt x="424" y="252" on="0"/>
      </contour>
    </TTGlyph>
    <TTGlyph name="R" xMin="41" yMin="-57" xMax="521" yMax="732">
      <contour>
        <pt x="505" y="-16" on="1"/>
        <pt x="521" y="-57" on="1"/>
        <pt x="476" y="-56" on="0"/>
        <pt x="378" y="0" on="0"/>
        <pt x="293" y="85" on="0"/>
        <pt x="226" y="172" on="0"/>
        <pt x="202" y="214" on="1"/>
        <pt x="123" y="223" on="1"/>
        <pt x="125" y="150" on="0"/>
        <pt x="131" y="-4" on="1"/>
        <pt x="122" y="-35" on="0"/>
        <pt x="96" y="-35" on="1"/>
        <pt x="78" y="-35" on="0"/>
        <pt x="45" y="-6" on="0"/>
        <pt x="41" y="15" on="1"/>
        <pt x="44" y="99" on="0"/>
        <pt x="51" y="585" on="0"/>
        <pt x="57" y="718" on="1"/>
        <pt x="102" y="730" on="1"/>
        <pt x="102" y="698" on="0"/>
        <pt x="103" y="694" on="1"/>
        <pt x="160" y="732" on="0"/>
        <pt x="263" y="732" on="1"/>
        <pt x="374" y="732" on="0"/>
        <pt x="484" y="593" on="0"/>
        <pt x="484" y="468" on="1"/>
        <pt x="484" y="422" on="0"/>
        <pt x="462" y="337" on="0"/>
        <pt x="419" y="263" on="0"/>
        <pt x="343" y="215" on="0"/>
        <pt x="294" y="211" on="1"/>
        <pt x="329" y="138" on="0"/>
        <pt x="447" y="0" on="0"/>
      </contour>
      <contour>
        <pt x="112" y="627" on="1"/>
        <pt x="120" y="315" on="1"/>
        <pt x="175" y="285" on="0"/>
        <pt x="247" y="285" on="1"/>
        <pt x="316" y="285" on="0"/>
        <pt x="412" y="389" on="0"/>
        <pt x="412" y="464" on="1"/>
        <pt x="412" y="545" on="0"/>
        <pt x="312" y="675" on="0"/>
        <pt x="237" y="675" on="1"/>
        <pt x="176" y="675" on="0"/>
      </contour>
    </TTGlyph>
    <TTGlyph name="S" xMin="10" yMin="-5" xMax="447" yMax="768">
      <contour>
        <pt x="28" y="57" on="1"/>
        <pt x="42" y="113" on="1"/>
        <pt x="129" y="66" on="0"/>
        <pt x="213" y="66" on="1"/>
        <pt x="273" y="66" on="0"/>
        <pt x="358" y="115" on="0"/>
        <pt x="358" y="170" on="1"/>
        <pt x="358" y="219" on="0"/>
        <pt x="286" y="300" on="0"/>
        <pt x="184" y="362" on="0"/>
        <pt x="82" y="427" on="0"/>
        <pt x="10" y="522" on="0"/>
        <pt x="10" y="580" on="1"/>
        <pt x="10" y="651" on="0"/>
        <pt x="112" y="768" on="0"/>
        <pt x="184" y="768" on="1"/>
        <pt x="239" y="768" on="0"/>
        <pt x="374" y="724" on="0"/>
        <pt x="420" y="702" on="1"/>
        <pt x="408" y="662" on="1"/>
        <pt x="294" y="701" on="0"/>
        <pt x="216" y="701" on="1"/>
        <pt x="168" y="701" on="0"/>
        <pt x="100" y="639" on="0"/>
        <pt x="100" y="590" on="1"/>
        <pt x="100" y="553" on="0"/>
        <pt x="138" y="493" on="0"/>
        <pt x="199" y="449" on="0"/>
        <pt x="274" y="407" on="0"/>
        <pt x="348" y="359" on="0"/>
        <pt x="409" y="303" on="0"/>
        <pt x="447" y="218" on="0"/>
        <pt x="447" y="165" on="1"/>
        <pt x="447" y="90" on="0"/>
        <pt x="351" y="-5" on="0"/>
        <pt x="274" y="-5" on="1"/>
        <pt x="208" y="-5" on="0"/>
        <pt x="59" y="32" on="0"/>
      </contour>
    </TTGlyph>
    <TTGlyph name="T" xMin="0" yMin="-15" xMax="441" yMax="738">
      <contour>
        <pt x="10" y="671" on="1"/>
        <pt x="0" y="716" on="1"/>
        <pt x="382" y="738" on="1"/>
        <pt x="407" y="737" on="0"/>
        <pt x="441" y="703" on="0"/>
        <pt x="441" y="683" on="1"/>
        <pt x="441" y="670" on="0"/>
        <pt x="421" y="650" on="0"/>
        <pt x="401" y="648" on="1"/>
        <pt x="233" y="657" on="1"/>
        <pt x="258" y="304" on="0"/>
        <pt x="270" y="15" on="1"/>
        <pt x="261" y="-15" on="0"/>
        <pt x="236" y="-15" on="1"/>
        <pt x="218" y="-15" on="0"/>
        <pt x="184" y="14" on="0"/>
        <pt x="180" y="35" on="1"/>
        <pt x="182" y="89" on="0"/>
        <pt x="182" y="199" on="1"/>
        <pt x="182" y="240" on="0"/>
        <pt x="181" y="404" on="0"/>
        <pt x="181" y="445" on="1"/>
        <pt x="181" y="564" on="0"/>
        <pt x="185" y="660" on="1"/>
        <pt x="72" y="668" on="0"/>
      </contour>
    </TTGlyph>
    <TTGlyph name="U" xMin="41" yMin="-31" xMax="497" yMax="742">
      <contour>
        <pt x="425" y="742" on="1"/>
        <pt x="484" y="737" on="1"/>
        <pt x="497" y="553" on="0"/>
        <pt x="497" y="426" on="1"/>
        <pt x="497" y="334" on="0"/>
        <pt x="492" y="216" on="1"/>
        <pt x="490" y="166" on="0"/>
        <pt x="478" y="97" on="0"/>
        <pt x="448" y="31" on="0"/>
        <pt x="397" y="-8" on="0"/>
        <pt x="315" y="-31" on="0"/>
        <pt x="257" y="-31" on="1"/>
        <pt x="215" y="-31" on="0"/>
        <pt x="151" y="-16" on="0"/>
        <pt x="108" y="8" on="0"/>
        <pt x="78" y="47" on="0"/>
        <pt x="61" y="89" on="0"/>
        <pt x="52" y="147" on="0"/>
        <pt x="48" y="199" on="0"/>
        <pt x="46" y="234" on="1"/>
        <pt x="46" y="237" on="0"/>
        <pt x="46" y="238" on="1"/>
        <pt x="41" y="360" on="0"/>
        <pt x="41" y="445" on="1"/>
        <pt x="41" y="517" on="0"/>
        <pt x="47" y="735" on="1"/>
        <pt x="102" y="723" on="1"/>
        <pt x="104" y="631" on="0"/>
        <pt x="122" y="290" on="0"/>
        <pt x="125" y="218" on="1"/>
        <pt x="126" y="184" on="0"/>
        <pt x="130" y="144" on="0"/>
        <pt x="145" y="92" on="0"/>
        <pt x="171" y="64" on="0"/>
        <pt x="219" y="44" on="0"/>
        <pt x="289" y="44" on="0"/>
        <pt x="340" y="53" on="0"/>
        <pt x="373" y="77" on="0"/>
        <pt x="394" y="101" on="0"/>
        <pt x="406" y="148" on="0"/>
        <pt x="411" y="183" on="0"/>
        <pt x="414" y="217" on="1"/>
        <pt x="421" y="303" on="0"/>
        <pt x="423" y="687" on="0"/>
      </contour>
    </TTGlyph>
    <TTGlyph name="Uacute" xMin="41" yMin="-31" xMax="497" yMax="919">
      <component glyphName="U" x="0" y="0" flags="0x200"/>
      <component glyphName="acute" x="61" y="153" flags="0x0"/>
    </TTGlyph>
    <TTGlyph name="Ucircumflex" xMin="41" yMin="-31" xMax="497" yMax="943">
      <component glyphName="U" x="0" y="0" flags="0x204"/>
      <component glyphName="circumflex" x="11" y="201" flags="0x4"/>
    </TTGlyph>
    <TTGlyph name="Udieresis" xMin="41" yMin="-31" xMax="497" yMax="892">
      <contour>
        <pt x="425" y="742" on="1"/>
        <pt x="484" y="737" on="1"/>
        <pt x="497" y="553" on="0"/>
        <pt x="497" y="426" on="1"/>
        <pt x="497" y="334" on="0"/>
        <pt x="492" y="216" on="1"/>
        <pt x="490" y="166" on="0"/>
        <pt x="478" y="97" on="0"/>
        <pt x="448" y="31" on="0"/>
        <pt x="397" y="-8" on="0"/>
        <pt x="315" y="-31" on="0"/>
        <pt x="257" y="-31" on="1"/>
        <pt x="215" y="-31" on="0"/>
        <pt x="151" y="-16" on="0"/>
        <pt x="108" y="8" on="0"/>
        <pt x="78" y="47" on="0"/>
        <pt x="61" y="89" on="0"/>
        <pt x="52" y="147" on="0"/>
        <pt x="48" y="199" on="0"/>
        <pt x="46" y="234" on="1"/>
        <pt x="46" y="237" on="0"/>
        <pt x="46" y="238" on="1"/>
        <pt x="41" y="360" on="0"/>
        <pt x="41" y="445" on="1"/>
        <pt x="41" y="517" on="0"/>
        <pt x="47" y="735" on="1"/>
        <pt x="102" y="723" on="1"/>
        <pt x="104" y="631" on="0"/>
        <pt x="122" y="290" on="0"/>
        <pt x="125" y="218" on="1"/>
        <pt x="126" y="184" on="0"/>
        <pt x="130" y="144" on="0"/>
        <pt x="145" y="92" on="0"/>
        <pt x="171" y="64" on="0"/>
        <pt x="219" y="44" on="0"/>
        <pt x="289" y="44" on="0"/>
        <pt x="340" y="53" on="0"/>
        <pt x="373" y="77" on="0"/>
        <pt x="394" y="101" on="0"/>
        <pt x="406" y="148" on="0"/>
        <pt x="411" y="183" on="0"/>
        <pt x="414" y="217" on="1"/>
        <pt x="421" y="303" on="0"/>
        <pt x="423" y="687" on="0"/>
      </contour>
      <contour>
        <pt x="160" y="892" on="1"/>
        <pt x="187" y="892" on="0"/>
        <pt x="223" y="845" on="0"/>
        <pt x="223" y="815" on="1"/>
        <pt x="223" y="793" on="0"/>
        <pt x="202" y="766" on="0"/>
        <pt x="184" y="766" on="1"/>
        <pt x="156" y="766" on="0"/>
        <pt x="124" y="812" on="0"/>
        <pt x="124" y="843" on="1"/>
        <pt x="124" y="865" on="0"/>
        <pt x="143" y="892" on="0"/>
      </contour>
      <contour>
        <pt x="323" y="892" on="1"/>
        <pt x="350" y="892" on="0"/>
        <pt x="386" y="845" on="0"/>
        <pt x="386" y="815" on="1"/>
        <pt x="386" y="793" on="0"/>
        <pt x="365" y="766" on="0"/>
        <pt x="347" y="766" on="1"/>
        <pt x="319" y="766" on="0"/>
        <pt x="287" y="812" on="0"/>
        <pt x="287" y="843" on="1"/>
        <pt x="287" y="865" on="0"/>
        <pt x="306" y="892" on="0"/>
      </contour>
    </TTGlyph>
    <TTGlyph name="Ugrave" xMin="41" yMin="-31" xMax="497" yMax="919">
      <component glyphName="U" x="0" y="0" flags="0x204"/>
      <component glyphName="grave" x="-12" y="153" flags="0x4"/>
    </TTGlyph>
    <TTGlyph name="V" xMin="0" yMin="-1" xMax="429" yMax="720">
      <contour>
        <pt x="369" y="720" on="1"/>
        <pt x="429" y="717" on="1"/>
        <pt x="428" y="715" on="0"/>
        <pt x="274" y="73" on="0"/>
        <pt x="246" y="1" on="1"/>
        <pt x="236" y="-1" on="0"/>
        <pt x="226" y="-1" on="1"/>
        <pt x="198" y="-1" on="0"/>
        <pt x="163" y="6" on="1"/>
        <pt x="148" y="51" on="0"/>
        <pt x="109" y="207" on="0"/>
        <pt x="67" y="397" on="0"/>
        <pt x="36" y="544" on="0"/>
        <pt x="2" y="712" on="0"/>
        <pt x="0" y="720" on="1"/>
        <pt x="57" y="720" on="1"/>
        <pt x="97" y="536" on="0"/>
        <pt x="201" y="130" on="1"/>
        <pt x="355" y="692" on="0"/>
      </contour>
    </TTGlyph>
    <TTGlyph name="W" xMin="0" yMin="-1" xMax="683" yMax="720">
      <contour>
        <pt x="623" y="720" on="1"/>
        <pt x="683" y="717" on="1"/>
        <pt x="682" y="715" on="0"/>
        <pt x="528" y="73" on="0"/>
        <pt x="500" y="1" on="1"/>
        <pt x="490" y="-1" on="0"/>
        <pt x="480" y="-1" on="1"/>
        <pt x="452" y="-1" on="0"/>
        <pt x="417" y="6" on="1"/>
        <pt x="390" y="86" on="0"/>
        <pt x="335" y="330" on="1"/>
        <pt x="273" y="75" on="0"/>
        <pt x="246" y="1" on="1"/>
        <pt x="236" y="-1" on="0"/>
        <pt x="226" y="-1" on="1"/>
        <pt x="198" y="-1" on="0"/>
        <pt x="163" y="6" on="1"/>
        <pt x="148" y="51" on="0"/>
        <pt x="109" y="207" on="0"/>
        <pt x="67" y="397" on="0"/>
        <pt x="36" y="544" on="0"/>
        <pt x="2" y="712" on="0"/>
        <pt x="0" y="720" on="1"/>
        <pt x="57" y="720" on="1"/>
        <pt x="97" y="536" on="0"/>
        <pt x="201" y="130" on="1"/>
        <pt x="216" y="184" on="0"/>
        <pt x="288" y="452" on="0"/>
        <pt x="300" y="495" on="1"/>
        <pt x="286" y="559" on="0"/>
        <pt x="254" y="720" on="1"/>
        <pt x="311" y="720" on="1"/>
        <pt x="351" y="536" on="0"/>
        <pt x="455" y="130" on="1"/>
        <pt x="609" y="692" on="0"/>
      </contour>
    </TTGlyph>
    <TTGlyph name="X" xMin="0" yMin="-17" xMax="558" yMax="744">
      <contour>
        <pt x="43" y="-9" on="1"/>
        <pt x="0" y="13" on="1"/>
        <pt x="26" y="74" on="0"/>
        <pt x="93" y="191" on="0"/>
        <pt x="210" y="370" on="0"/>
        <pt x="224" y="392" on="1"/>
        <pt x="199" y="431" on="0"/>
        <pt x="44" y="654" on="0"/>
        <pt x="6" y="717" on="1"/>
        <pt x="48" y="736" on="1"/>
        <pt x="133" y="637" on="0"/>
        <pt x="261" y="451" on="1"/>
        <pt x="266" y="470" on="0"/>
        <pt x="431" y="698" on="0"/>
        <pt x="443" y="719" on="1"/>
        <pt x="458" y="744" on="0"/>
        <pt x="479" y="744" on="1"/>
        <pt x="499" y="744" on="0"/>
        <pt x="531" y="709" on="0"/>
        <pt x="532" y="686" on="1"/>
        <pt x="526" y="679" on="0"/>
        <pt x="331" y="407" on="0"/>
        <pt x="307" y="379" on="1"/>
        <pt x="341" y="326" on="0"/>
        <pt x="533" y="65" on="0"/>
        <pt x="558" y="22" on="1"/>
        <pt x="558" y="3" on="0"/>
        <pt x="539" y="-17" on="0"/>
        <pt x="524" y="-17" on="1"/>
        <pt x="490" y="-17" on="0"/>
        <pt x="472" y="16" on="1"/>
        <pt x="267" y="322" on="1"/>
        <pt x="236" y="272" on="0"/>
        <pt x="80" y="52" on="0"/>
      </contour>
    </TTGlyph>
    <TTGlyph name="Y" xMin="-20" yMin="1" xMax="443" yMax="724">
      <contour>
        <pt x="388" y="723" on="1"/>
        <pt x="443" y="706" on="1"/>
        <pt x="434" y="689" on="0"/>
        <pt x="363" y="532" on="0"/>
        <pt x="279" y="366" on="0"/>
        <pt x="239" y="303" on="1"/>
        <pt x="243" y="254" on="0"/>
        <pt x="245" y="48" on="0"/>
        <pt x="248" y="3" on="1"/>
        <pt x="239" y="1" on="0"/>
        <pt x="202" y="1" on="1"/>
        <pt x="167" y="1" on="0"/>
        <pt x="160" y="3" on="1"/>
        <pt x="163" y="46" on="0"/>
        <pt x="166" y="255" on="0"/>
        <pt x="170" y="303" on="1"/>
        <pt x="120" y="386" on="0"/>
        <pt x="-3" y="684" on="0"/>
        <pt x="-20" y="719" on="1"/>
        <pt x="47" y="724" on="1"/>
        <pt x="205" y="384" on="1"/>
        <pt x="223" y="416" on="0"/>
        <pt x="352" y="670" on="0"/>
      </contour>
    </TTGlyph>
    <TTGlyph name="Ydieresis" xMin="-20" yMin="1" xMax="443" yMax="882">
      <contour>
        <pt x="388" y="723" on="1"/>
        <pt x="443" y="706" on="1"/>
        <pt x="434" y="689" on="0"/>
        <pt x="363" y="532" on="0"/>
        <pt x="279" y="366" on="0"/>
        <pt x="239" y="303" on="1"/>
        <pt x="243" y="254" on="0"/>
        <pt x="245" y="48" on="0"/>
        <pt x="248" y="3" on="1"/>
        <pt x="239" y="1" on="0"/>
        <pt x="202" y="1" on="1"/>
        <pt x="167" y="1" on="0"/>
        <pt x="160" y="3" on="1"/>
        <pt x="163" y="46" on="0"/>
        <pt x="166" y="255" on="0"/>
        <pt x="170" y="303" on="1"/>
        <pt x="120" y="386" on="0"/>
        <pt x="-3" y="684" on="0"/>
        <pt x="-20" y="719" on="1"/>
        <pt x="47" y="724" on="1"/>
        <pt x="205" y="384" on="1"/>
        <pt x="223" y="416" on="0"/>
        <pt x="352" y="670" on="0"/>
      </contour>
      <contour>
        <pt x="109" y="882" on="1"/>
        <pt x="136" y="882" on="0"/>
        <pt x="172" y="835" on="0"/>
        <pt x="172" y="805" on="1"/>
        <pt x="172" y="783" on="0"/>
        <pt x="151" y="756" on="0"/>
        <pt x="133" y="756" on="1"/>
        <pt x="105" y="756" on="0"/>
        <pt x="73" y="802" on="0"/>
        <pt x="73" y="833" on="1"/>
        <pt x="73" y="855" on="0"/>
        <pt x="92" y="882" on="0"/>
      </contour>
      <contour>
        <pt x="282" y="882" on="1"/>
        <pt x="309" y="882" on="0"/>
        <pt x="345" y="835" on="0"/>
        <pt x="345" y="805" on="1"/>
        <pt x="345" y="783" on="0"/>
        <pt x="324" y="756" on="0"/>
        <pt x="306" y="756" on="1"/>
        <pt x="278" y="756" on="0"/>
        <pt x="246" y="802" on="0"/>
        <pt x="246" y="833" on="1"/>
        <pt x="246" y="855" on="0"/>
        <pt x="265" y="882" on="0"/>
      </contour>
    </TTGlyph>
    <TTGlyph name="Z" xMin="0" yMin="-3" xMax="445" yMax="723">
      <contour>
        <pt x="425" y="60" on="1"/>
        <pt x="427" y="-1" on="1"/>
        <pt x="369" y="-3" on="0"/>
        <pt x="337" y="-3" on="1"/>
        <pt x="293" y="-3" on="0"/>
        <pt x="120" y="1" on="0"/>
        <pt x="80" y="1" on="1"/>
        <pt x="50" y="1" on="0"/>
        <pt x="4" y="-1" on="1"/>
        <pt x="10" y="53" on="1"/>
        <pt x="13" y="81" on="0"/>
        <pt x="144" y="304" on="0"/>
        <pt x="334" y="606" on="0"/>
        <pt x="357" y="646" on="1"/>
        <pt x="321" y="648" on="0"/>
        <pt x="172" y="652" on="0"/>
        <pt x="49" y="658" on="0"/>
        <pt x="0" y="662" on="1"/>
        <pt x="0" y="716" on="1"/>
        <pt x="30" y="716" on="1"/>
        <pt x="36" y="716" on="0"/>
        <pt x="445" y="723" on="1"/>
        <pt x="445" y="644" on="1"/>
        <pt x="132" y="73" on="1"/>
        <pt x="176" y="70" on="0"/>
        <pt x="382" y="62" on="0"/>
      </contour>
    </TTGlyph>
    <TTGlyph name="a" xMin="20" yMin="-18" xMax="371" yMax="540">
      <contour>
        <pt x="77" y="432" on="1"/>
        <pt x="57" y="483" on="1"/>
        <pt x="83" y="509" on="0"/>
        <pt x="163" y="540" on="0"/>
        <pt x="202" y="540" on="1"/>
        <pt x="371" y="540" on="0"/>
        <pt x="371" y="248" on="1"/>
        <pt x="371" y="208" on="0"/>
        <pt x="362" y="52" on="0"/>
        <pt x="362" y="13" on="1"/>
        <pt x="354" y="-18" on="0"/>
        <pt x="331" y="-18" on="1"/>
        <pt x="313" y="-18" on="0"/>
        <pt x="283" y="18" on="0"/>
        <pt x="283" y="40" on="1"/>
        <pt x="283" y="47" on="0"/>
        <pt x="284" y="50" on="1"/>
        <pt x="222" y="-10" on="0"/>
        <pt x="152" y="-10" on="1"/>
        <pt x="99" y="-10" on="0"/>
        <pt x="20" y="67" on="0"/>
        <pt x="20" y="122" on="1"/>
        <pt x="20" y="215" on="0"/>
        <pt x="165" y="365" on="0"/>
        <pt x="257" y="365" on="1"/>
        <pt x="261" y="365" on="0"/>
        <pt x="269" y="364" on="0"/>
        <pt x="280" y="362" on="0"/>
        <pt x="283" y="362" on="1"/>
        <pt x="275" y="479" on="0"/>
        <pt x="190" y="479" on="1"/>
        <pt x="140" y="479" on="0"/>
      </contour>
      <contour>
        <pt x="286" y="119" on="1"/>
        <pt x="288" y="189" on="0"/>
        <pt x="288" y="225" on="1"/>
        <pt x="288" y="255" on="0"/>
        <pt x="286" y="309" on="1"/>
        <pt x="278" y="309" on="1"/>
        <pt x="207" y="308" on="0"/>
        <pt x="90" y="204" on="0"/>
        <pt x="90" y="130" on="1"/>
        <pt x="90" y="98" on="0"/>
        <pt x="129" y="60" on="0"/>
        <pt x="157" y="60" on="1"/>
        <pt x="201" y="60" on="0"/>
      </contour>
    </TTGlyph>
    <TTGlyph name="aacute" xMin="20" yMin="-18" xMax="371" yMax="766">
      <component glyphName="a" x="0" y="0" flags="0x204"/>
      <component glyphName="acute" x="21" y="0" flags="0x4"/>
    </TTGlyph>
    <TTGlyph name="acircumflex" xMin="20" yMin="-18" xMax="371" yMax="742">
      <component glyphName="a" x="0" y="0" flags="0x204"/>
      <component glyphName="circumflex" x="-43" y="0" flags="0x4"/>
    </TTGlyph>
    <TTGlyph name="acute" xMin="167" yMin="593" xMax="327" yMax="766">
      <contour>
        <pt x="182" y="599" on="1"/>
        <pt x="167" y="604" on="1"/>
        <pt x="247" y="757" on="1"/>
        <pt x="327" y="766" on="1"/>
        <pt x="281" y="681" on="1"/>
        <pt x="277" y="673" on="0"/>
        <pt x="265" y="649" on="0"/>
        <pt x="257" y="633" on="0"/>
        <pt x="246" y="613" on="0"/>
        <pt x="233" y="602" on="0"/>
        <pt x="217" y="593" on="0"/>
        <pt x="195" y="594" on="0"/>
      </contour>
    </TTGlyph>
    <TTGlyph name="adieresis" xMin="20" yMin="-18" xMax="371" yMax="717">
      <component glyphName="a" x="0" y="0" flags="0x204"/>
      <component glyphName="dieresis" x="-41" y="0" flags="0x4"/>
    </TTGlyph>
    <TTGlyph name="ae" xMin="20" yMin="-10" xMax="673" yMax="540">
      <contour>
        <pt x="664" y="97" on="1"/>
        <pt x="673" y="53" on="1"/>
        <pt x="665" y="50" on="0"/>
        <pt x="603" y="24" on="0"/>
        <pt x="566" y="11" on="0"/>
        <pt x="494" y="-2" on="0"/>
        <pt x="455" y="-2" on="1"/>
        <pt x="377" y="-2" on="0"/>
        <pt x="332" y="74" on="1"/>
        <pt x="258" y="-10" on="0"/>
        <pt x="162" y="-10" on="1"/>
        <pt x="96" y="-10" on="0"/>
        <pt x="20" y="64" on="0"/>
        <pt x="20" y="122" on="1"/>
        <pt x="20" y="215" on="0"/>
        <pt x="168" y="309" on="0"/>
        <pt x="283" y="311" on="1"/>
        <pt x="283" y="396" on="0"/>
        <pt x="241" y="479" on="0"/>
        <pt x="190" y="479" on="1"/>
        <pt x="140" y="479" on="0"/>
        <pt x="77" y="432" on="1"/>
        <pt x="57" y="483" on="1"/>
        <pt x="83" y="509" on="0"/>
        <pt x="163" y="540" on="0"/>
        <pt x="202" y="540" on="1"/>
        <pt x="297" y="540" on="0"/>
        <pt x="335" y="444" on="1"/>
        <pt x="391" y="523" on="0"/>
        <pt x="517" y="523" on="1"/>
        <pt x="571" y="523" on="0"/>
        <pt x="653" y="454" on="0"/>
        <pt x="653" y="399" on="1"/>
        <pt x="653" y="373" on="0"/>
        <pt x="629" y="331" on="0"/>
        <pt x="596" y="302" on="0"/>
        <pt x="537" y="279" on="0"/>
        <pt x="495" y="267" on="0"/>
        <pt x="423" y="255" on="0"/>
        <pt x="392" y="252" on="0"/>
        <pt x="361" y="249" on="1"/>
        <pt x="364" y="174" on="0"/>
        <pt x="414" y="70" on="0"/>
        <pt x="471" y="70" on="1"/>
        <pt x="507" y="70" on="0"/>
        <pt x="596" y="83" on="0"/>
        <pt x="662" y="97" on="0"/>
      </contour>
      <contour>
        <pt x="286" y="119" on="1"/>
        <pt x="288" y="189" on="0"/>
        <pt x="288" y="205" on="1"/>
        <pt x="288" y="218" on="0"/>
        <pt x="287" y="227" on="0"/>
        <pt x="286" y="237" on="0"/>
        <pt x="286" y="248" on="1"/>
        <pt x="278" y="248" on="1"/>
        <pt x="239" y="248" on="0"/>
        <pt x="181" y="239" on="0"/>
        <pt x="122" y="216" on="0"/>
        <pt x="90" y="166" on="0"/>
        <pt x="90" y="130" on="1"/>
        <pt x="90" y="97" on="0"/>
        <pt x="136" y="60" on="0"/>
        <pt x="177" y="60" on="1"/>
        <pt x="249" y="60" on="0"/>
      </contour>
      <contour>
        <pt x="366" y="311" on="1"/>
        <pt x="439" y="316" on="0"/>
        <pt x="566" y="366" on="0"/>
        <pt x="578" y="393" on="1"/>
        <pt x="571" y="426" on="0"/>
        <pt x="547" y="456" on="0"/>
        <pt x="523" y="456" on="1"/>
        <pt x="463" y="456" on="0"/>
        <pt x="374" y="373" on="0"/>
      </contour>
    </TTGlyph>
    <TTGlyph name="afii10017" xMin="0" yMin="-27" xMax="539" yMax="725">
      <component glyphName="A" x="0" y="0" flags="0x200"/>
    </TTGlyph>
    <TTGlyph name="afii10018" xMin="41" yMin="-4" xMax="457" yMax="731">
      <contour>
        <pt x="399" y="731" on="1"/>
        <pt x="387" y="680" on="1"/>
        <pt x="336" y="676" on="0"/>
        <pt x="172" y="668" on="0"/>
        <pt x="121" y="665" on="1"/>
        <pt x="121" y="439" on="1"/>
        <pt x="172" y="453" on="0"/>
        <pt x="214" y="453" on="1"/>
        <pt x="325" y="453" on="0"/>
        <pt x="457" y="306" on="0"/>
        <pt x="457" y="193" on="1"/>
        <pt x="457" y="130" on="0"/>
        <pt x="357" y="37" on="0"/>
        <pt x="224" y="-4" on="0"/>
        <pt x="156" y="-4" on="1"/>
        <pt x="73" y="-4" on="0"/>
        <pt x="41" y="26" on="1"/>
        <pt x="44" y="112" on="0"/>
        <pt x="50" y="610" on="0"/>
        <pt x="57" y="731" on="1"/>
      </contour>
      <contour>
        <pt x="122" y="394" on="1"/>
        <pt x="122" y="393" on="0"/>
        <pt x="122" y="349" on="0"/>
        <pt x="121" y="213" on="0"/>
        <pt x="121" y="99" on="1"/>
        <pt x="151" y="65" on="0"/>
        <pt x="198" y="65" on="1"/>
        <pt x="260" y="65" on="0"/>
        <pt x="376" y="168" on="0"/>
        <pt x="376" y="227" on="1"/>
        <pt x="376" y="305" on="0"/>
        <pt x="267" y="402" on="0"/>
        <pt x="186" y="402" on="1"/>
        <pt x="159" y="402" on="0"/>
      </contour>
    </TTGlyph>
    <TTGlyph name="afii10019" xMin="41" yMin="-4" xMax="457" yMax="767">
      <component glyphName="B" x="0" y="0" flags="0x200"/>
    </TTGlyph>
    <TTGlyph name="afii10020" xMin="41" yMin="-25" xMax="430" yMax="722">
      <contour>
        <pt x="420" y="716" on="1"/>
        <pt x="430" y="671" on="1"/>
        <pt x="386" y="668" on="0"/>
        <pt x="166" y="655" on="0"/>
        <pt x="122" y="651" on="1"/>
        <pt x="125" y="556" on="0"/>
        <pt x="127" y="110" on="0"/>
        <pt x="131" y="6" on="1"/>
        <pt x="122" y="-25" on="0"/>
        <pt x="96" y="-25" on="1"/>
        <pt x="78" y="-25" on="0"/>
        <pt x="45" y="5" on="0"/>
        <pt x="41" y="26" on="1"/>
        <pt x="52" y="152" on="0"/>
        <pt x="55" y="615" on="1"/>
        <pt x="55" y="632" on="0"/>
        <pt x="56" y="702" on="0"/>
        <pt x="56" y="722" on="1"/>
        <pt x="110" y="719" on="0"/>
        <pt x="165" y="719" on="1"/>
        <pt x="187" y="719" on="0"/>
        <pt x="275" y="720" on="0"/>
        <pt x="297" y="720" on="1"/>
        <pt x="365" y="720" on="0"/>
      </contour>
    </TTGlyph>
    <TTGlyph name="afii10021" xMin="0" yMin="-140" xMax="543" yMax="714">
      <contour>
        <pt x="539" y="-128" on="1"/>
        <pt x="494" y="-118" on="1"/>
        <pt x="485" y="-42" on="0"/>
        <pt x="463" y="6" on="1"/>
        <pt x="380" y="12" on="0"/>
        <pt x="297" y="12" on="1"/>
        <pt x="226" y="12" on="0"/>
        <pt x="86" y="6" on="1"/>
        <pt x="80" y="-15" on="0"/>
        <pt x="63" y="-140" on="1"/>
        <pt x="20" y="-136" on="1"/>
        <pt x="0" y="-29" on="0"/>
        <pt x="0" y="48" on="1"/>
        <pt x="0" y="52" on="0"/>
        <pt x="1" y="72" on="0"/>
        <pt x="1" y="77" on="1"/>
        <pt x="2" y="77" on="0"/>
        <pt x="66" y="78" on="0"/>
        <pt x="67" y="78" on="1"/>
        <pt x="93" y="131" on="0"/>
        <pt x="126" y="254" on="0"/>
        <pt x="138" y="395" on="0"/>
        <pt x="142" y="502" on="0"/>
        <pt x="142" y="668" on="0"/>
        <pt x="143" y="709" on="1"/>
        <pt x="213" y="714" on="0"/>
        <pt x="455" y="714" on="1"/>
        <pt x="477" y="87" on="1"/>
        <pt x="493" y="85" on="0"/>
        <pt x="527" y="83" on="0"/>
        <pt x="543" y="82" on="1"/>
        <pt x="540" y="61" on="0"/>
        <pt x="540" y="30" on="1"/>
        <pt x="540" y="14" on="0"/>
        <pt x="542" y="-55" on="0"/>
        <pt x="542" y="-72" on="1"/>
        <pt x="542" y="-106" on="0"/>
      </contour>
      <contour>
        <pt x="147" y="84" on="1"/>
        <pt x="174" y="84" on="0"/>
        <pt x="282" y="81" on="0"/>
        <pt x="308" y="81" on="1"/>
        <pt x="346" y="81" on="0"/>
        <pt x="387" y="84" on="1"/>
        <pt x="389" y="147" on="0"/>
        <pt x="389" y="281" on="1"/>
        <pt x="389" y="480" on="1"/>
        <pt x="389" y="599" on="0"/>
        <pt x="391" y="657" on="1"/>
        <pt x="363" y="659" on="0"/>
        <pt x="349" y="659" on="1"/>
        <pt x="326" y="659" on="0"/>
        <pt x="239" y="653" on="0"/>
        <pt x="224" y="652" on="1"/>
        <pt x="221" y="607" on="0"/>
        <pt x="213" y="414" on="0"/>
        <pt x="205" y="308" on="0"/>
        <pt x="174" y="151" on="0"/>
      </contour>
    </TTGlyph>
    <TTGlyph name="afii10022" xMin="41" yMin="-7" xMax="449" yMax="728">
      <component glyphName="E" x="0" y="0" flags="0x0"/>
    </TTGlyph>
    <TTGlyph name="afii10023" xMin="41" yMin="-7" xMax="449" yMax="953">
      <contour>
        <pt x="422" y="45" on="1"/>
        <pt x="432" y="0" on="1"/>
        <pt x="414" y="0" on="1"/>
        <pt x="387" y="0" on="0"/>
        <pt x="191" y="-7" on="0"/>
        <pt x="142" y="-7" on="1"/>
        <pt x="68" y="-7" on="0"/>
        <pt x="41" y="0" on="1"/>
        <pt x="51" y="110" on="0"/>
        <pt x="55" y="626" on="0"/>
        <pt x="66" y="728" on="1"/>
        <pt x="100" y="725" on="0"/>
        <pt x="393" y="721" on="0"/>
        <pt x="438" y="714" on="1"/>
        <pt x="449" y="669" on="1"/>
        <pt x="404" y="661" on="0"/>
        <pt x="134" y="639" on="0"/>
        <pt x="127" y="638" on="1"/>
        <pt x="128" y="615" on="0"/>
        <pt x="135" y="473" on="0"/>
        <pt x="136" y="427" on="1"/>
        <pt x="170" y="423" on="0"/>
        <pt x="350" y="408" on="0"/>
        <pt x="374" y="406" on="1"/>
        <pt x="384" y="360" on="1"/>
        <pt x="173" y="341" on="0"/>
        <pt x="137" y="340" on="1"/>
        <pt x="137" y="296" on="0"/>
        <pt x="134" y="117" on="0"/>
        <pt x="134" y="75" on="1"/>
        <pt x="363" y="54" on="0"/>
      </contour>
      <contour>
        <pt x="129" y="953" on="1"/>
        <pt x="156" y="953" on="0"/>
        <pt x="193" y="907" on="0"/>
        <pt x="193" y="877" on="1"/>
        <pt x="193" y="855" on="0"/>
        <pt x="172" y="827" on="0"/>
        <pt x="154" y="827" on="1"/>
        <pt x="126" y="827" on="0"/>
        <pt x="93" y="873" on="0"/>
        <pt x="93" y="904" on="1"/>
        <pt x="93" y="926" on="0"/>
        <pt x="112" y="953" on="0"/>
      </contour>
      <contour>
        <pt x="343" y="953" on="1"/>
        <pt x="370" y="953" on="0"/>
        <pt x="407" y="907" on="0"/>
        <pt x="407" y="877" on="1"/>
        <pt x="407" y="855" on="0"/>
        <pt x="386" y="827" on="0"/>
        <pt x="368" y="827" on="1"/>
        <pt x="340" y="827" on="0"/>
        <pt x="307" y="873" on="0"/>
        <pt x="307" y="904" on="1"/>
        <pt x="307" y="926" on="0"/>
        <pt x="326" y="953" on="0"/>
      </contour>
    </TTGlyph>
    <TTGlyph name="afii10024" xMin="-20" yMin="-25" xMax="865" yMax="752">
      <contour>
        <pt x="382" y="307" on="1"/>
        <pt x="343" y="307" on="0"/>
        <pt x="287" y="258" on="0"/>
        <pt x="258" y="184" on="0"/>
        <pt x="225" y="98" on="0"/>
        <pt x="192" y="24" on="0"/>
        <pt x="127" y="-25" on="0"/>
        <pt x="81" y="-25" on="1"/>
        <pt x="33" y="-25" on="0"/>
        <pt x="-20" y="-9" on="1"/>
        <pt x="-17" y="29" on="1"/>
        <pt x="31" y="17" on="0"/>
        <pt x="60" y="17" on="1"/>
        <pt x="91" y="17" on="0"/>
        <pt x="135" y="65" on="0"/>
        <pt x="158" y="137" on="0"/>
        <pt x="190" y="226" on="0"/>
        <pt x="225" y="306" on="0"/>
        <pt x="295" y="370" on="0"/>
        <pt x="343" y="381" on="1"/>
        <pt x="289" y="394" on="0"/>
        <pt x="215" y="471" on="0"/>
        <pt x="177" y="561" on="0"/>
        <pt x="144" y="649" on="0"/>
        <pt x="96" y="707" on="0"/>
        <pt x="61" y="707" on="1"/>
        <pt x="59" y="707" on="0"/>
        <pt x="-9" y="696" on="1"/>
        <pt x="-19" y="736" on="1"/>
        <pt x="67" y="752" on="0"/>
        <pt x="96" y="752" on="1"/>
        <pt x="141" y="752" on="0"/>
        <pt x="206" y="689" on="0"/>
        <pt x="246" y="599" on="0"/>
        <pt x="285" y="509" on="0"/>
        <pt x="346" y="446" on="0"/>
        <pt x="389" y="445" on="1"/>
        <pt x="395" y="732" on="1"/>
        <pt x="445" y="722" on="1"/>
        <pt x="446" y="684" on="0"/>
        <pt x="455" y="482" on="0"/>
        <pt x="456" y="445" on="1"/>
        <pt x="499" y="446" on="0"/>
        <pt x="560" y="509" on="0"/>
        <pt x="599" y="599" on="0"/>
        <pt x="639" y="689" on="0"/>
        <pt x="704" y="752" on="0"/>
        <pt x="749" y="752" on="1"/>
        <pt x="778" y="752" on="0"/>
        <pt x="864" y="736" on="1"/>
        <pt x="854" y="696" on="1"/>
        <pt x="786" y="707" on="0"/>
        <pt x="783" y="707" on="1"/>
        <pt x="748" y="707" on="0"/>
        <pt x="700" y="649" on="0"/>
        <pt x="668" y="561" on="0"/>
        <pt x="630" y="471" on="0"/>
        <pt x="556" y="394" on="0"/>
        <pt x="502" y="381" on="1"/>
        <pt x="550" y="370" on="0"/>
        <pt x="620" y="306" on="0"/>
        <pt x="654" y="226" on="0"/>
        <pt x="686" y="137" on="0"/>
        <pt x="710" y="65" on="0"/>
        <pt x="753" y="17" on="0"/>
        <pt x="784" y="17" on="1"/>
        <pt x="814" y="17" on="0"/>
        <pt x="862" y="29" on="1"/>
        <pt x="865" y="-9" on="1"/>
        <pt x="812" y="-25" on="0"/>
        <pt x="764" y="-25" on="1"/>
        <pt x="718" y="-25" on="0"/>
        <pt x="653" y="24" on="0"/>
        <pt x="620" y="98" on="0"/>
        <pt x="587" y="184" on="0"/>
        <pt x="558" y="258" on="0"/>
        <pt x="502" y="307" on="0"/>
        <pt x="463" y="307" on="1"/>
        <pt x="469" y="6" on="1"/>
        <pt x="460" y="-25" on="0"/>
        <pt x="434" y="-25" on="1"/>
        <pt x="416" y="-25" on="0"/>
        <pt x="383" y="5" on="0"/>
        <pt x="379" y="26" on="1"/>
        <pt x="381" y="59" on="0"/>
      </contour>
    </TTGlyph>
    <TTGlyph name="afii10025" xMin="0" yMin="-8" xMax="424" yMax="730">
      <contour>
        <pt x="58" y="626" on="1"/>
        <pt x="27" y="659" on="1"/>
        <pt x="134" y="730" on="0"/>
        <pt x="222" y="730" on="1"/>
        <pt x="298" y="730" on="0"/>
        <pt x="392" y="621" on="0"/>
        <pt x="392" y="541" on="1"/>
        <pt x="392" y="441" on="0"/>
        <pt x="324" y="400" on="1"/>
        <pt x="374" y="392" on="0"/>
        <pt x="424" y="289" on="0"/>
        <pt x="424" y="218" on="1"/>
        <pt x="424" y="110" on="0"/>
        <pt x="332" y="-8" on="0"/>
        <pt x="225" y="-8" on="1"/>
        <pt x="153" y="-8" on="0"/>
        <pt x="26" y="56" on="0"/>
        <pt x="0" y="116" on="1"/>
        <pt x="5" y="120" on="0"/>
        <pt x="9" y="128" on="0"/>
        <pt x="11" y="132" on="0"/>
        <pt x="20" y="139" on="0"/>
        <pt x="30" y="144" on="1"/>
        <pt x="74" y="104" on="0"/>
        <pt x="182" y="55" on="0"/>
        <pt x="230" y="55" on="1"/>
        <pt x="284" y="55" on="0"/>
        <pt x="349" y="126" on="0"/>
        <pt x="349" y="200" on="1"/>
        <pt x="349" y="276" on="0"/>
        <pt x="263" y="370" on="0"/>
        <pt x="179" y="370" on="1"/>
        <pt x="167" y="370" on="0"/>
        <pt x="137" y="368" on="1"/>
        <pt x="136" y="374" on="0"/>
        <pt x="129" y="406" on="0"/>
        <pt x="124" y="441" on="1"/>
        <pt x="135" y="442" on="0"/>
        <pt x="193" y="445" on="0"/>
        <pt x="217" y="448" on="0"/>
        <pt x="262" y="457" on="0"/>
        <pt x="283" y="473" on="0"/>
        <pt x="308" y="498" on="0"/>
        <pt x="318" y="538" on="0"/>
        <pt x="318" y="565" on="1"/>
        <pt x="318" y="614" on="0"/>
        <pt x="253" y="659" on="0"/>
        <pt x="199" y="659" on="1"/>
        <pt x="127" y="659" on="0"/>
      </contour>
    </TTGlyph>
    <TTGlyph name="afii10026" xMin="41" yMin="-25" xMax="486" yMax="744">
      <contour>
        <pt x="56" y="733" on="1"/>
        <pt x="101" y="723" on="1"/>
        <pt x="111" y="558" on="0"/>
        <pt x="124" y="174" on="1"/>
        <pt x="319" y="521" on="0"/>
        <pt x="392" y="732" on="1"/>
        <pt x="407" y="744" on="0"/>
        <pt x="421" y="744" on="1"/>
        <pt x="443" y="744" on="0"/>
        <pt x="472" y="692" on="0"/>
        <pt x="473" y="659" on="1"/>
        <pt x="476" y="566" on="0"/>
        <pt x="481" y="124" on="0"/>
        <pt x="486" y="15" on="1"/>
        <pt x="477" y="-15" on="0"/>
        <pt x="452" y="-15" on="1"/>
        <pt x="434" y="-15" on="0"/>
        <pt x="400" y="14" on="0"/>
        <pt x="396" y="35" on="1"/>
        <pt x="399" y="122" on="0"/>
        <pt x="400" y="482" on="0"/>
        <pt x="401" y="545" on="1"/>
        <pt x="379" y="507" on="0"/>
        <pt x="269" y="295" on="0"/>
        <pt x="176" y="143" on="0"/>
        <pt x="127" y="87" on="1"/>
        <pt x="131" y="6" on="1"/>
        <pt x="122" y="-25" on="0"/>
        <pt x="96" y="-25" on="1"/>
        <pt x="78" y="-25" on="0"/>
        <pt x="45" y="5" on="0"/>
        <pt x="41" y="26" on="1"/>
        <pt x="44" y="111" on="0"/>
        <pt x="50" y="607" on="0"/>
      </contour>
    </TTGlyph>
    <TTGlyph name="afii10027" xMin="41" yMin="-25" xMax="486" yMax="878">
      <contour>
        <pt x="148" y="811" on="1"/>
        <pt x="141" y="843" on="1"/>
        <pt x="165" y="840" on="0"/>
        <pt x="188" y="840" on="1"/>
        <pt x="257" y="840" on="0"/>
        <pt x="315" y="878" on="1"/>
        <pt x="338" y="876" on="0"/>
        <pt x="371" y="852" on="0"/>
        <pt x="371" y="836" on="1"/>
        <pt x="371" y="799" on="0"/>
        <pt x="272" y="799" on="1"/>
        <pt x="203" y="799" on="0"/>
      </contour>
      <contour>
        <pt x="56" y="733" on="1"/>
        <pt x="101" y="723" on="1"/>
        <pt x="111" y="558" on="0"/>
        <pt x="124" y="174" on="1"/>
        <pt x="319" y="521" on="0"/>
        <pt x="392" y="732" on="1"/>
        <pt x="407" y="744" on="0"/>
        <pt x="421" y="744" on="1"/>
        <pt x="443" y="744" on="0"/>
        <pt x="472" y="692" on="0"/>
        <pt x="473" y="659" on="1"/>
        <pt x="476" y="566" on="0"/>
        <pt x="481" y="124" on="0"/>
        <pt x="486" y="15" on="1"/>
        <pt x="477" y="-15" on="0"/>
        <pt x="452" y="-15" on="1"/>
        <pt x="434" y="-15" on="0"/>
        <pt x="400" y="14" on="0"/>
        <pt x="396" y="35" on="1"/>
        <pt x="399" y="122" on="0"/>
        <pt x="400" y="482" on="0"/>
        <pt x="401" y="545" on="1"/>
        <pt x="379" y="507" on="0"/>
        <pt x="269" y="295" on="0"/>
        <pt x="176" y="143" on="0"/>
        <pt x="127" y="87" on="1"/>
        <pt x="131" y="6" on="1"/>
        <pt x="122" y="-25" on="0"/>
        <pt x="96" y="-25" on="1"/>
        <pt x="78" y="-25" on="0"/>
        <pt x="45" y="5" on="0"/>
        <pt x="41" y="26" on="1"/>
        <pt x="44" y="111" on="0"/>
        <pt x="50" y="607" on="0"/>
      </contour>
    </TTGlyph>
    <TTGlyph name="afii10028" xMin="41" yMin="-32" xMax="523" yMax="744">
      <contour>
        <pt x="520" y="22" on="1"/>
        <pt x="523" y="-16" on="1"/>
        <pt x="470" y="-32" on="0"/>
        <pt x="422" y="-32" on="1"/>
        <pt x="376" y="-32" on="0"/>
        <pt x="311" y="17" on="0"/>
        <pt x="278" y="91" on="0"/>
        <pt x="245" y="177" on="0"/>
        <pt x="216" y="251" on="0"/>
        <pt x="160" y="300" on="0"/>
        <pt x="121" y="300" on="1"/>
        <pt x="131" y="6" on="1"/>
        <pt x="122" y="-25" on="0"/>
        <pt x="96" y="-25" on="1"/>
        <pt x="78" y="-25" on="0"/>
        <pt x="45" y="5" on="0"/>
        <pt x="41" y="26" on="1"/>
        <pt x="42" y="47" on="0"/>
        <pt x="54" y="682" on="0"/>
        <pt x="57" y="732" on="1"/>
        <pt x="102" y="722" on="1"/>
        <pt x="103" y="684" on="0"/>
        <pt x="113" y="475" on="0"/>
        <pt x="114" y="438" on="1"/>
        <pt x="157" y="439" on="0"/>
        <pt x="218" y="502" on="0"/>
        <pt x="257" y="592" on="0"/>
        <pt x="297" y="681" on="0"/>
        <pt x="362" y="744" on="0"/>
        <pt x="407" y="744" on="1"/>
        <pt x="441" y="744" on="0"/>
        <pt x="522" y="729" on="1"/>
        <pt x="512" y="689" on="1"/>
        <pt x="450" y="699" on="0"/>
        <pt x="441" y="699" on="1"/>
        <pt x="406" y="699" on="0"/>
        <pt x="358" y="641" on="0"/>
        <pt x="326" y="554" on="0"/>
        <pt x="288" y="463" on="0"/>
        <pt x="214" y="387" on="0"/>
        <pt x="160" y="374" on="1"/>
        <pt x="208" y="363" on="0"/>
        <pt x="278" y="299" on="0"/>
        <pt x="312" y="219" on="0"/>
        <pt x="344" y="130" on="0"/>
        <pt x="368" y="58" on="0"/>
        <pt x="411" y="10" on="0"/>
        <pt x="442" y="10" on="1"/>
        <pt x="472" y="10" on="0"/>
      </contour>
    </TTGlyph>
    <TTGlyph name="afii10029" xMin="-82" yMin="-94" xMax="487" yMax="720">
      <contour>
        <pt x="-53" y="-94" on="1"/>
        <pt x="-82" y="-42" on="1"/>
        <pt x="-27" y="-5" on="0"/>
        <pt x="51" y="92" on="0"/>
        <pt x="95" y="189" on="0"/>
        <pt x="121" y="313" on="0"/>
        <pt x="128" y="418" on="0"/>
        <pt x="128" y="487" on="1"/>
        <pt x="128" y="523" on="0"/>
        <pt x="133" y="674" on="0"/>
        <pt x="133" y="714" on="1"/>
        <pt x="162" y="719" on="0"/>
        <pt x="222" y="719" on="1"/>
        <pt x="247" y="719" on="0"/>
        <pt x="349" y="716" on="0"/>
        <pt x="375" y="716" on="1"/>
        <pt x="423" y="716" on="0"/>
        <pt x="463" y="720" on="1"/>
        <pt x="475" y="653" on="0"/>
        <pt x="475" y="510" on="1"/>
        <pt x="475" y="472" on="0"/>
        <pt x="473" y="309" on="0"/>
        <pt x="473" y="267" on="1"/>
        <pt x="473" y="103" on="0"/>
        <pt x="487" y="-3" on="1"/>
        <pt x="478" y="-34" on="0"/>
        <pt x="453" y="-34" on="1"/>
        <pt x="435" y="-34" on="0"/>
        <pt x="401" y="-5" on="0"/>
        <pt x="397" y="16" on="1"/>
        <pt x="399" y="94" on="0"/>
        <pt x="399" y="135" on="1"/>
        <pt x="399" y="193" on="0"/>
        <pt x="394" y="441" on="0"/>
        <pt x="394" y="509" on="1"/>
        <pt x="394" y="601" on="0"/>
        <pt x="396" y="646" on="1"/>
        <pt x="372" y="648" on="0"/>
        <pt x="254" y="650" on="0"/>
        <pt x="223" y="654" on="1"/>
        <pt x="214" y="602" on="0"/>
        <pt x="203" y="435" on="0"/>
        <pt x="196" y="306" on="0"/>
        <pt x="167" y="151" on="0"/>
        <pt x="118" y="37" on="0"/>
        <pt x="19" y="-66" on="0"/>
      </contour>
    </TTGlyph>
    <TTGlyph name="afii10030" xMin="0" yMin="-7" xMax="736" yMax="716">
      <component glyphName="M" x="0" y="0" flags="0x200"/>
    </TTGlyph>
    <TTGlyph name="afii10031" xMin="41" yMin="-23" xMax="439" yMax="731">
      <component glyphName="H" x="0" y="0" flags="0x200"/>
    </TTGlyph>
    <TTGlyph name="afii10032" xMin="42" yMin="-12" xMax="496" yMax="753">
      <component glyphName="O" x="0" y="0" flags="0x200"/>
    </TTGlyph>
    <TTGlyph name="afii10033" xMin="41" yMin="-23" xMax="439" yMax="731">
      <contour>
        <pt x="56" y="731" on="1"/>
        <pt x="407" y="731" on="1"/>
        <pt x="425" y="590" on="0"/>
        <pt x="434" y="89" on="0"/>
        <pt x="439" y="8" on="1"/>
        <pt x="430" y="-23" on="0"/>
        <pt x="404" y="-23" on="1"/>
        <pt x="386" y="-23" on="0"/>
        <pt x="353" y="7" on="0"/>
        <pt x="349" y="28" on="1"/>
        <pt x="349" y="109" on="0"/>
        <pt x="339" y="606" on="0"/>
        <pt x="339" y="660" on="1"/>
        <pt x="317" y="660" on="0"/>
        <pt x="218" y="654" on="0"/>
        <pt x="188" y="654" on="1"/>
        <pt x="140" y="654" on="0"/>
        <pt x="114" y="656" on="1"/>
        <pt x="114" y="653" on="0"/>
        <pt x="129" y="73" on="0"/>
        <pt x="131" y="8" on="1"/>
        <pt x="122" y="-23" on="0"/>
        <pt x="96" y="-23" on="1"/>
        <pt x="78" y="-23" on="0"/>
        <pt x="45" y="7" on="0"/>
        <pt x="41" y="28" on="1"/>
        <pt x="44" y="114" on="0"/>
        <pt x="49" y="610" on="0"/>
      </contour>
    </TTGlyph>
    <TTGlyph name="afii10034" xMin="41" yMin="-35" xMax="484" yMax="732">
      <component glyphName="P" x="0" y="0" flags="0x200"/>
    </TTGlyph>
    <TTGlyph name="afii10035" xMin="41" yMin="-46" xMax="530" yMax="730">
      <component glyphName="C" x="0" y="0" flags="0x200"/>
    </TTGlyph>
    <TTGlyph name="afii10036" xMin="0" yMin="-15" xMax="441" yMax="738">
      <component glyphName="T" x="0" y="0" flags="0x200"/>
    </TTGlyph>
    <TTGlyph name="afii10037" xMin="0" yMin="-32" xMax="492" yMax="734">
      <contour>
        <pt x="0" y="682" on="1"/>
        <pt x="52" y="731" on="1"/>
        <pt x="97" y="657" on="0"/>
        <pt x="235" y="349" on="0"/>
        <pt x="260" y="300" on="1"/>
        <pt x="360" y="557" on="0"/>
        <pt x="411" y="710" on="1"/>
        <pt x="424" y="734" on="0"/>
        <pt x="444" y="734" on="1"/>
        <pt x="462" y="734" on="0"/>
        <pt x="490" y="699" on="0"/>
        <pt x="492" y="676" on="1"/>
        <pt x="458" y="603" on="0"/>
        <pt x="311" y="274" on="0"/>
        <pt x="208" y="65" on="0"/>
        <pt x="150" y="-32" on="1"/>
        <pt x="85" y="-19" on="1"/>
        <pt x="214" y="234" on="1"/>
        <pt x="178" y="333" on="0"/>
      </contour>
    </TTGlyph>
    <TTGlyph name="afii10038" xMin="20" yMin="-34" xMax="744" yMax="744">
      <contour>
        <pt x="340" y="108" on="1"/>
        <pt x="342" y="174" on="0"/>
        <pt x="347" y="525" on="0"/>
        <pt x="350" y="613" on="1"/>
        <pt x="341" y="613" on="1"/>
        <pt x="233" y="613" on="0"/>
        <pt x="87" y="455" on="0"/>
        <pt x="87" y="343" on="1"/>
        <pt x="87" y="236" on="0"/>
        <pt x="211" y="105" on="0"/>
        <pt x="322" y="105" on="1"/>
        <pt x="332" y="105" on="0"/>
      </contour>
      <contour>
        <pt x="397" y="734" on="1"/>
        <pt x="401" y="663" on="1"/>
        <pt x="425" y="665" on="0"/>
        <pt x="438" y="665" on="1"/>
        <pt x="559" y="665" on="0"/>
        <pt x="744" y="507" on="0"/>
        <pt x="744" y="386" on="1"/>
        <pt x="743" y="323" on="0"/>
        <pt x="719" y="209" on="0"/>
        <pt x="666" y="103" on="0"/>
        <pt x="566" y="40" on="0"/>
        <pt x="498" y="40" on="1"/>
        <pt x="484" y="40" on="0"/>
        <pt x="434" y="44" on="0"/>
        <pt x="427" y="44" on="1"/>
        <pt x="427" y="-3" on="1"/>
        <pt x="418" y="-34" on="0"/>
        <pt x="392" y="-34" on="1"/>
        <pt x="374" y="-34" on="0"/>
        <pt x="341" y="-5" on="0"/>
        <pt x="337" y="16" on="1"/>
        <pt x="338" y="44" on="1"/>
        <pt x="331" y="44" on="0"/>
        <pt x="281" y="40" on="0"/>
        <pt x="267" y="40" on="1"/>
        <pt x="202" y="40" on="0"/>
        <pt x="104" y="99" on="0"/>
        <pt x="47" y="199" on="0"/>
        <pt x="20" y="319" on="0"/>
        <pt x="20" y="386" on="1"/>
        <pt x="20" y="503" on="0"/>
        <pt x="196" y="664" on="0"/>
        <pt x="312" y="664" on="1"/>
        <pt x="325" y="664" on="0"/>
        <pt x="351" y="660" on="1"/>
        <pt x="352" y="664" on="0"/>
        <pt x="352" y="678" on="1"/>
        <pt x="352" y="684" on="0"/>
        <pt x="351" y="717" on="0"/>
        <pt x="351" y="725" on="1"/>
        <pt x="351" y="729" on="0"/>
        <pt x="352" y="741" on="0"/>
        <pt x="352" y="744" on="1"/>
      </contour>
      <contour>
        <pt x="420" y="612" on="1"/>
        <pt x="404" y="612" on="1"/>
        <pt x="413" y="439" on="0"/>
        <pt x="423" y="108" on="1"/>
        <pt x="435" y="108" on="1"/>
        <pt x="566" y="109" on="0"/>
        <pt x="679" y="226" on="0"/>
        <pt x="679" y="343" on="1"/>
        <pt x="679" y="459" on="0"/>
        <pt x="532" y="612" on="0"/>
      </contour>
    </TTGlyph>
    <TTGlyph name="afii10039" xMin="0" yMin="-17" xMax="558" yMax="744">
      <component glyphName="X" x="0" y="0" flags="0x200"/>
    </TTGlyph>
    <TTGlyph name="afii10040" xMin="41" yMin="-134" xMax="517" yMax="733">
      <contour>
        <pt x="501" y="-134" on="1"/>
        <pt x="455" y="-134" on="1"/>
        <pt x="450" y="-116" on="0"/>
        <pt x="432" y="0" on="1"/>
        <pt x="361" y="-8" on="0"/>
        <pt x="207" y="-8" on="1"/>
        <pt x="86" y="-8" on="0"/>
        <pt x="41" y="-3" on="1"/>
        <pt x="44" y="105" on="0"/>
        <pt x="58" y="625" on="0"/>
        <pt x="61" y="733" on="1"/>
        <pt x="106" y="723" on="1"/>
        <pt x="109" y="618" on="0"/>
        <pt x="120" y="161" on="0"/>
        <pt x="123" y="61" on="1"/>
        <pt x="168" y="61" on="0"/>
        <pt x="234" y="58" on="0"/>
        <pt x="236" y="58" on="1"/>
        <pt x="252" y="58" on="0"/>
        <pt x="355" y="75" on="1"/>
        <pt x="359" y="183" on="0"/>
        <pt x="378" y="636" on="0"/>
        <pt x="381" y="733" on="1"/>
        <pt x="426" y="723" on="1"/>
        <pt x="425" y="652" on="0"/>
        <pt x="425" y="510" on="1"/>
        <pt x="425" y="318" on="0"/>
        <pt x="428" y="109" on="1"/>
        <pt x="428" y="104" on="0"/>
        <pt x="429" y="83" on="0"/>
        <pt x="429" y="78" on="1"/>
        <pt x="441" y="78" on="0"/>
        <pt x="499" y="75" on="0"/>
        <pt x="517" y="75" on="1"/>
        <pt x="517" y="71" on="0"/>
        <pt x="508" y="-93" on="0"/>
      </contour>
    </TTGlyph>
    <TTGlyph name="afii10041" xMin="41" yMin="-9" xMax="429" yMax="725">
      <contour>
        <pt x="358" y="713" on="1"/>
        <pt x="403" y="702" on="1"/>
        <pt x="407" y="651" on="0"/>
        <pt x="428" y="78" on="0"/>
        <pt x="429" y="22" on="1"/>
        <pt x="420" y="-9" on="0"/>
        <pt x="394" y="-9" on="1"/>
        <pt x="376" y="-9" on="0"/>
        <pt x="343" y="20" on="0"/>
        <pt x="339" y="41" on="1"/>
        <pt x="340" y="58" on="0"/>
        <pt x="345" y="317" on="1"/>
        <pt x="283" y="300" on="0"/>
        <pt x="237" y="300" on="1"/>
        <pt x="140" y="300" on="0"/>
        <pt x="41" y="433" on="0"/>
        <pt x="41" y="557" on="1"/>
        <pt x="41" y="634" on="0"/>
        <pt x="59" y="725" on="1"/>
        <pt x="104" y="715" on="1"/>
        <pt x="101" y="668" on="0"/>
        <pt x="101" y="627" on="1"/>
        <pt x="101" y="378" on="0"/>
        <pt x="236" y="378" on="1"/>
        <pt x="281" y="378" on="0"/>
        <pt x="347" y="408" on="1"/>
        <pt x="352" y="616" on="0"/>
      </contour>
    </TTGlyph>
    <TTGlyph name="afii10042" xMin="41" yMin="-11" xMax="602" yMax="733">
      <contour>
        <pt x="551" y="733" on="1"/>
        <pt x="596" y="723" on="1"/>
        <pt x="595" y="649" on="0"/>
        <pt x="595" y="526" on="1"/>
        <pt x="595" y="358" on="0"/>
        <pt x="602" y="64" on="0"/>
        <pt x="602" y="41" on="1"/>
        <pt x="602" y="0" on="1"/>
        <pt x="497" y="-11" on="0"/>
        <pt x="193" y="-11" on="1"/>
        <pt x="70" y="-11" on="0"/>
        <pt x="41" y="-8" on="1"/>
        <pt x="44" y="100" on="0"/>
        <pt x="58" y="620" on="0"/>
        <pt x="61" y="728" on="1"/>
        <pt x="106" y="718" on="1"/>
        <pt x="109" y="613" on="0"/>
        <pt x="120" y="156" on="0"/>
        <pt x="123" y="56" on="1"/>
        <pt x="281" y="63" on="1"/>
        <pt x="285" y="173" on="0"/>
        <pt x="303" y="631" on="0"/>
        <pt x="306" y="726" on="1"/>
        <pt x="351" y="716" on="1"/>
        <pt x="354" y="612" on="0"/>
        <pt x="365" y="166" on="0"/>
        <pt x="368" y="68" on="1"/>
        <pt x="396" y="70" on="0"/>
        <pt x="525" y="75" on="1"/>
        <pt x="529" y="183" on="0"/>
        <pt x="548" y="636" on="0"/>
      </contour>
    </TTGlyph>
    <TTGlyph name="afii10043" xMin="41" yMin="-134" xMax="687" yMax="733">
      <contour>
        <pt x="671" y="-134" on="1"/>
        <pt x="625" y="-134" on="1"/>
        <pt x="620" y="-116" on="0"/>
        <pt x="602" y="0" on="1"/>
        <pt x="497" y="-11" on="0"/>
        <pt x="193" y="-11" on="1"/>
        <pt x="70" y="-11" on="0"/>
        <pt x="41" y="-8" on="1"/>
        <pt x="44" y="100" on="0"/>
        <pt x="58" y="620" on="0"/>
        <pt x="61" y="728" on="1"/>
        <pt x="106" y="718" on="1"/>
        <pt x="109" y="613" on="0"/>
        <pt x="120" y="156" on="0"/>
        <pt x="123" y="56" on="1"/>
        <pt x="281" y="63" on="1"/>
        <pt x="285" y="173" on="0"/>
        <pt x="303" y="631" on="0"/>
        <pt x="306" y="726" on="1"/>
        <pt x="351" y="716" on="1"/>
        <pt x="354" y="612" on="0"/>
        <pt x="365" y="166" on="0"/>
        <pt x="368" y="68" on="1"/>
        <pt x="443" y="75" on="0"/>
        <pt x="525" y="75" on="1"/>
        <pt x="529" y="183" on="0"/>
        <pt x="548" y="636" on="0"/>
        <pt x="551" y="733" on="1"/>
        <pt x="596" y="723" on="1"/>
        <pt x="595" y="614" on="0"/>
        <pt x="595" y="450" on="1"/>
        <pt x="595" y="328" on="0"/>
        <pt x="598" y="109" on="1"/>
        <pt x="598" y="104" on="0"/>
        <pt x="599" y="83" on="0"/>
        <pt x="599" y="78" on="1"/>
        <pt x="611" y="78" on="0"/>
        <pt x="669" y="75" on="0"/>
        <pt x="687" y="75" on="1"/>
        <pt x="687" y="71" on="0"/>
        <pt x="678" y="-93" on="0"/>
      </contour>
    </TTGlyph>
    <TTGlyph name="afii10044" xMin="-20" yMin="-22" xMax="579" yMax="740">
      <contour>
        <pt x="-6" y="671" on="1"/>
        <pt x="-20" y="731" on="1"/>
        <pt x="1" y="732" on="0"/>
        <pt x="144" y="735" on="0"/>
        <pt x="202" y="740" on="1"/>
        <pt x="210" y="608" on="0"/>
        <pt x="218" y="426" on="1"/>
        <pt x="245" y="430" on="0"/>
        <pt x="279" y="430" on="1"/>
        <pt x="411" y="430" on="0"/>
        <pt x="579" y="281" on="0"/>
        <pt x="579" y="181" on="1"/>
        <pt x="579" y="-22" on="0"/>
        <pt x="328" y="-22" on="1"/>
        <pt x="263" y="-22" on="0"/>
        <pt x="154" y="-2" on="0"/>
        <pt x="146" y="13" on="1"/>
        <pt x="149" y="105" on="0"/>
        <pt x="153" y="541" on="0"/>
        <pt x="157" y="649" on="1"/>
      </contour>
      <contour>
        <pt x="223" y="351" on="1"/>
        <pt x="230" y="138" on="0"/>
        <pt x="233" y="67" on="1"/>
        <pt x="302" y="58" on="0"/>
        <pt x="354" y="58" on="1"/>
        <pt x="495" y="58" on="0"/>
        <pt x="495" y="191" on="1"/>
        <pt x="495" y="260" on="0"/>
        <pt x="376" y="355" on="0"/>
        <pt x="279" y="355" on="1"/>
        <pt x="248" y="355" on="0"/>
      </contour>
    </TTGlyph>
    <TTGlyph name="afii10045" xMin="41" yMin="-22" xMax="659" yMax="735">
      <contour>
        <pt x="55" y="735" on="1"/>
        <pt x="100" y="725" on="1"/>
        <pt x="101" y="706" on="0"/>
        <pt x="113" y="426" on="1"/>
        <pt x="140" y="430" on="0"/>
        <pt x="173" y="430" on="1"/>
        <pt x="305" y="430" on="0"/>
        <pt x="473" y="281" on="0"/>
        <pt x="473" y="181" on="1"/>
        <pt x="473" y="-22" on="0"/>
        <pt x="222" y="-22" on="1"/>
        <pt x="157" y="-22" on="0"/>
        <pt x="49" y="-2" on="0"/>
        <pt x="41" y="13" on="1"/>
        <pt x="44" y="97" on="0"/>
        <pt x="48" y="610" on="0"/>
      </contour>
      <contour>
        <pt x="118" y="351" on="1"/>
        <pt x="125" y="138" on="0"/>
        <pt x="128" y="67" on="1"/>
        <pt x="197" y="58" on="0"/>
        <pt x="249" y="58" on="1"/>
        <pt x="389" y="58" on="0"/>
        <pt x="389" y="191" on="1"/>
        <pt x="389" y="260" on="0"/>
        <pt x="270" y="355" on="0"/>
        <pt x="173" y="355" on="1"/>
        <pt x="143" y="355" on="0"/>
      </contour>
      <contour>
        <pt x="589" y="728" on="1"/>
        <pt x="634" y="718" on="1"/>
        <pt x="637" y="671" on="0"/>
        <pt x="659" y="10" on="1"/>
        <pt x="650" y="-20" on="0"/>
        <pt x="625" y="-20" on="1"/>
        <pt x="607" y="-20" on="0"/>
        <pt x="573" y="9" on="0"/>
        <pt x="569" y="30" on="1"/>
        <pt x="571" y="102" on="0"/>
        <pt x="582" y="594" on="0"/>
      </contour>
    </TTGlyph>
    <TTGlyph name="afii10046" xMin="41" yMin="-22" xMax="473" yMax="735">
      <contour>
        <pt x="55" y="735" on="1"/>
        <pt x="100" y="725" on="1"/>
        <pt x="101" y="706" on="0"/>
        <pt x="113" y="426" on="1"/>
        <pt x="140" y="430" on="0"/>
        <pt x="173" y="430" on="1"/>
        <pt x="305" y="430" on="0"/>
        <pt x="473" y="281" on="0"/>
        <pt x="473" y="181" on="1"/>
        <pt x="473" y="-22" on="0"/>
        <pt x="222" y="-22" on="1"/>
        <pt x="157" y="-22" on="0"/>
        <pt x="49" y="-2" on="0"/>
        <pt x="41" y="13" on="1"/>
        <pt x="44" y="97" on="0"/>
        <pt x="48" y="610" on="0"/>
      </contour>
      <contour>
        <pt x="118" y="351" on="1"/>
        <pt x="125" y="138" on="0"/>
        <pt x="128" y="67" on="1"/>
        <pt x="197" y="58" on="0"/>
        <pt x="249" y="58" on="1"/>
        <pt x="389" y="58" on="0"/>
        <pt x="389" y="191" on="1"/>
        <pt x="389" y="260" on="0"/>
        <pt x="270" y="355" on="0"/>
        <pt x="173" y="355" on="1"/>
        <pt x="143" y="355" on="0"/>
      </contour>
    </TTGlyph>
    <TTGlyph name="afii10047" xMin="0" yMin="-46" xMax="489" yMax="730">
      <contour>
        <pt x="410" y="416" on="1"/>
        <pt x="404" y="543" on="0"/>
        <pt x="301" y="672" on="0"/>
        <pt x="224" y="672" on="1"/>
        <pt x="150" y="672" on="0"/>
        <pt x="72" y="614" on="1"/>
        <pt x="32" y="660" on="1"/>
        <pt x="76" y="690" on="0"/>
        <pt x="199" y="730" on="0"/>
        <pt x="257" y="730" on="1"/>
        <pt x="311" y="730" on="0"/>
        <pt x="396" y="678" on="0"/>
        <pt x="446" y="599" on="0"/>
        <pt x="478" y="491" on="0"/>
        <pt x="489" y="394" on="0"/>
        <pt x="489" y="343" on="1"/>
        <pt x="489" y="284" on="0"/>
        <pt x="457" y="153" on="0"/>
        <pt x="395" y="32" on="0"/>
        <pt x="290" y="-46" on="0"/>
        <pt x="226" y="-46" on="1"/>
        <pt x="126" y="-46" on="0"/>
        <pt x="0" y="41" on="1"/>
        <pt x="19" y="80" on="0"/>
        <pt x="35" y="104" on="1"/>
        <pt x="165" y="38" on="0"/>
        <pt x="227" y="38" on="1"/>
        <pt x="276" y="38" on="0"/>
        <pt x="365" y="132" on="0"/>
        <pt x="412" y="254" on="0"/>
        <pt x="412" y="304" on="1"/>
        <pt x="412" y="315" on="0"/>
        <pt x="410" y="329" on="1"/>
        <pt x="192" y="345" on="0"/>
        <pt x="151" y="372" on="1"/>
        <pt x="158" y="408" on="1"/>
        <pt x="158" y="409" on="0"/>
        <pt x="240" y="413" on="0"/>
        <pt x="350" y="417" on="0"/>
        <pt x="383" y="417" on="1"/>
        <pt x="389" y="417" on="0"/>
        <pt x="408" y="416" on="0"/>
      </contour>
    </TTGlyph>
    <TTGlyph name="afii10048" xMin="41" yMin="-16" xMax="678" yMax="740">
      <contour>
        <pt x="54" y="731" on="1"/>
        <pt x="99" y="721" on="1"/>
        <pt x="113" y="496" on="0"/>
        <pt x="118" y="359" on="1"/>
        <pt x="233" y="378" on="1"/>
        <pt x="238" y="527" on="0"/>
        <pt x="256" y="592" on="1"/>
        <pt x="298" y="740" on="0"/>
        <pt x="433" y="740" on="1"/>
        <pt x="489" y="740" on="0"/>
        <pt x="577" y="685" on="0"/>
        <pt x="630" y="601" on="0"/>
        <pt x="665" y="489" on="0"/>
        <pt x="678" y="385" on="0"/>
        <pt x="678" y="333" on="1"/>
        <pt x="678" y="276" on="0"/>
        <pt x="667" y="182" on="0"/>
        <pt x="633" y="88" on="0"/>
        <pt x="578" y="24" on="0"/>
        <pt x="483" y="-16" on="0"/>
        <pt x="420" y="-16" on="1"/>
        <pt x="220" y="-16" on="0"/>
        <pt x="220" y="222" on="1"/>
        <pt x="220" y="258" on="0"/>
        <pt x="223" y="294" on="1"/>
        <pt x="120" y="309" on="1"/>
        <pt x="131" y="22" on="1"/>
        <pt x="122" y="-9" on="0"/>
        <pt x="96" y="-9" on="1"/>
        <pt x="78" y="-9" on="0"/>
        <pt x="45" y="20" on="0"/>
        <pt x="41" y="41" on="1"/>
        <pt x="44" y="125" on="0"/>
        <pt x="47" y="608" on="0"/>
      </contour>
      <contour>
        <pt x="294" y="306" on="1"/>
        <pt x="297" y="240" on="0"/>
        <pt x="317" y="133" on="0"/>
        <pt x="365" y="49" on="0"/>
        <pt x="400" y="49" on="1"/>
        <pt x="457" y="49" on="0"/>
        <pt x="540" y="97" on="0"/>
        <pt x="583" y="181" on="0"/>
        <pt x="602" y="276" on="0"/>
        <pt x="602" y="333" on="1"/>
        <pt x="602" y="385" on="0"/>
        <pt x="587" y="490" on="0"/>
        <pt x="554" y="603" on="0"/>
        <pt x="485" y="673" on="0"/>
        <pt x="438" y="673" on="1"/>
        <pt x="401" y="673" on="0"/>
        <pt x="343" y="597" on="0"/>
        <pt x="311" y="479" on="0"/>
        <pt x="295" y="360" on="0"/>
      </contour>
    </TTGlyph>
    <TTGlyph name="afii10049" xMin="-20" yMin="-67" xMax="460" yMax="724">
      <contour>
        <pt x="31" y="523" on="1"/>
        <pt x="31" y="587" on="0"/>
        <pt x="71" y="670" on="0"/>
        <pt x="153" y="710" on="0"/>
        <pt x="242" y="724" on="0"/>
        <pt x="307" y="724" on="1"/>
        <pt x="385" y="724" on="0"/>
        <pt x="441" y="714" on="1"/>
        <pt x="447" y="698" on="0"/>
        <pt x="450" y="577" on="0"/>
        <pt x="454" y="212" on="0"/>
        <pt x="460" y="15" on="1"/>
        <pt x="451" y="-15" on="0"/>
        <pt x="425" y="-15" on="1"/>
        <pt x="407" y="-15" on="0"/>
        <pt x="374" y="14" on="0"/>
        <pt x="370" y="35" on="1"/>
        <pt x="374" y="174" on="0"/>
        <pt x="376" y="315" on="1"/>
        <pt x="368" y="315" on="0"/>
        <pt x="328" y="313" on="0"/>
        <pt x="318" y="313" on="1"/>
        <pt x="306" y="209" on="0"/>
        <pt x="97" y="-44" on="0"/>
        <pt x="-4" y="-67" on="1"/>
        <pt x="-20" y="-22" on="1"/>
        <pt x="27" y="-6" on="0"/>
        <pt x="106" y="55" on="0"/>
        <pt x="156" y="121" on="0"/>
        <pt x="199" y="209" on="0"/>
        <pt x="220" y="273" on="0"/>
        <pt x="231" y="313" on="1"/>
        <pt x="135" y="313" on="0"/>
        <pt x="31" y="424" on="0"/>
      </contour>
      <contour>
        <pt x="380" y="379" on="1"/>
        <pt x="385" y="639" on="1"/>
        <pt x="322" y="658" on="0"/>
        <pt x="270" y="658" on="1"/>
        <pt x="191" y="658" on="0"/>
        <pt x="106" y="579" on="0"/>
        <pt x="106" y="518" on="1"/>
        <pt x="115" y="366" on="0"/>
        <pt x="274" y="366" on="1"/>
        <pt x="322" y="366" on="0"/>
      </contour>
    </TTGlyph>
    <TTGlyph name="afii10050" xMin="41" yMin="-25" xMax="430" yMax="849">
      <contour>
        <pt x="354" y="839" on="1"/>
        <pt x="399" y="849" on="1"/>
        <pt x="419" y="716" on="1"/>
        <pt x="420" y="716" on="1"/>
        <pt x="430" y="671" on="1"/>
        <pt x="386" y="668" on="0"/>
        <pt x="166" y="655" on="0"/>
        <pt x="122" y="651" on="1"/>
        <pt x="125" y="556" on="0"/>
        <pt x="127" y="110" on="0"/>
        <pt x="131" y="6" on="1"/>
        <pt x="122" y="-25" on="0"/>
        <pt x="96" y="-25" on="1"/>
        <pt x="78" y="-25" on="0"/>
        <pt x="45" y="5" on="0"/>
        <pt x="41" y="26" on="1"/>
        <pt x="52" y="152" on="0"/>
        <pt x="55" y="615" on="1"/>
        <pt x="55" y="632" on="0"/>
        <pt x="56" y="702" on="0"/>
        <pt x="56" y="722" on="1"/>
        <pt x="110" y="719" on="0"/>
        <pt x="165" y="719" on="1"/>
        <pt x="187" y="719" on="0"/>
        <pt x="275" y="720" on="0"/>
        <pt x="297" y="720" on="1"/>
        <pt x="338" y="720" on="1"/>
      </contour>
    </TTGlyph>
    <TTGlyph name="afii10051" xMin="0" yMin="-66" xMax="548" yMax="738">
      <contour>
        <pt x="473" y="128" on="1"/>
        <pt x="473" y="228" on="0"/>
        <pt x="423" y="338" on="0"/>
        <pt x="353" y="338" on="1"/>
        <pt x="308" y="338" on="0"/>
        <pt x="242" y="308" on="1"/>
        <pt x="236" y="31" on="0"/>
        <pt x="234" y="3" on="1"/>
        <pt x="165" y="-7" on="1"/>
        <pt x="162" y="27" on="0"/>
        <pt x="162" y="600" on="0"/>
        <pt x="160" y="662" on="1"/>
        <pt x="10" y="671" on="1"/>
        <pt x="0" y="716" on="1"/>
        <pt x="382" y="738" on="1"/>
        <pt x="407" y="737" on="0"/>
        <pt x="441" y="703" on="0"/>
        <pt x="441" y="683" on="1"/>
        <pt x="441" y="670" on="0"/>
        <pt x="421" y="650" on="0"/>
        <pt x="401" y="648" on="1"/>
        <pt x="249" y="656" on="1"/>
        <pt x="244" y="398" on="1"/>
        <pt x="309" y="416" on="0"/>
        <pt x="352" y="416" on="1"/>
        <pt x="449" y="416" on="0"/>
        <pt x="548" y="278" on="0"/>
        <pt x="548" y="154" on="1"/>
        <pt x="548" y="86" on="0"/>
        <pt x="524" y="-4" on="0"/>
        <pt x="477" y="-49" on="0"/>
        <pt x="425" y="-66" on="0"/>
        <pt x="388" y="-66" on="1"/>
        <pt x="369" y="-66" on="0"/>
        <pt x="345" y="-58" on="1"/>
        <pt x="345" y="-22" on="1"/>
        <pt x="413" y="-7" on="0"/>
        <pt x="473" y="64" on="0"/>
      </contour>
    </TTGlyph>
    <TTGlyph name="afii10052" xMin="41" yMin="-25" xMax="430" yMax="912">
      <contour>
        <pt x="420" y="716" on="1"/>
        <pt x="430" y="671" on="1"/>
        <pt x="386" y="668" on="0"/>
        <pt x="166" y="655" on="0"/>
        <pt x="122" y="651" on="1"/>
        <pt x="125" y="556" on="0"/>
        <pt x="127" y="110" on="0"/>
        <pt x="131" y="6" on="1"/>
        <pt x="122" y="-25" on="0"/>
        <pt x="96" y="-25" on="1"/>
        <pt x="78" y="-25" on="0"/>
        <pt x="45" y="5" on="0"/>
        <pt x="41" y="26" on="1"/>
        <pt x="52" y="152" on="0"/>
        <pt x="55" y="615" on="1"/>
        <pt x="55" y="632" on="0"/>
        <pt x="56" y="702" on="0"/>
        <pt x="56" y="722" on="1"/>
        <pt x="110" y="719" on="0"/>
        <pt x="165" y="719" on="1"/>
        <pt x="187" y="719" on="0"/>
        <pt x="275" y="720" on="0"/>
        <pt x="297" y="720" on="1"/>
        <pt x="365" y="720" on="0"/>
      </contour>
      <contour>
        <pt x="197" y="758" on="1"/>
        <pt x="167" y="785" on="1"/>
        <pt x="169" y="788" on="0"/>
        <pt x="214" y="834" on="0"/>
        <pt x="261" y="889" on="0"/>
        <pt x="269" y="908" on="1"/>
        <pt x="275" y="912" on="0"/>
        <pt x="288" y="912" on="1"/>
        <pt x="307" y="912" on="0"/>
        <pt x="340" y="898" on="0"/>
        <pt x="340" y="887" on="1"/>
        <pt x="340" y="863" on="0"/>
        <pt x="233" y="773" on="0"/>
      </contour>
    </TTGlyph>
    <TTGlyph name="afii10053" xMin="41" yMin="-46" xMax="530" yMax="730">
      <contour>
        <pt x="121" y="416" on="1"/>
        <pt x="123" y="416" on="0"/>
        <pt x="141" y="417" on="0"/>
        <pt x="147" y="417" on="1"/>
        <pt x="180" y="417" on="0"/>
        <pt x="291" y="413" on="0"/>
        <pt x="373" y="409" on="0"/>
        <pt x="373" y="408" on="1"/>
        <pt x="380" y="372" on="1"/>
        <pt x="339" y="345" on="0"/>
        <pt x="121" y="329" on="1"/>
        <pt x="119" y="315" on="0"/>
        <pt x="119" y="304" on="1"/>
        <pt x="119" y="254" on="0"/>
        <pt x="166" y="132" on="0"/>
        <pt x="254" y="38" on="0"/>
        <pt x="303" y="38" on="1"/>
        <pt x="366" y="38" on="0"/>
        <pt x="496" y="104" on="1"/>
        <pt x="509" y="85" on="0"/>
        <pt x="530" y="41" on="1"/>
        <pt x="404" y="-46" on="0"/>
        <pt x="304" y="-46" on="1"/>
        <pt x="240" y="-46" on="0"/>
        <pt x="135" y="32" on="0"/>
        <pt x="73" y="153" on="0"/>
        <pt x="41" y="284" on="0"/>
        <pt x="41" y="343" on="1"/>
        <pt x="41" y="394" on="0"/>
        <pt x="52" y="491" on="0"/>
        <pt x="84" y="599" on="0"/>
        <pt x="134" y="678" on="0"/>
        <pt x="219" y="730" on="0"/>
        <pt x="273" y="730" on="1"/>
        <pt x="331" y="730" on="0"/>
        <pt x="455" y="690" on="0"/>
        <pt x="499" y="660" on="1"/>
        <pt x="459" y="614" on="1"/>
        <pt x="381" y="672" on="0"/>
        <pt x="306" y="672" on="1"/>
        <pt x="229" y="672" on="0"/>
        <pt x="127" y="543" on="0"/>
      </contour>
    </TTGlyph>
    <TTGlyph name="afii10054" xMin="10" yMin="-5" xMax="447" yMax="768">
      <component glyphName="S" x="0" y="0" flags="0x200"/>
    </TTGlyph>
    <TTGlyph name="afii10055" xMin="20" yMin="-3" xMax="317" yMax="711">
      <component glyphName="I" x="0" y="0" flags="0x200"/>
    </TTGlyph>
    <TTGlyph name="afii10056" xMin="20" yMin="-3" xMax="317" yMax="898">
      <contour>
        <pt x="24" y="-3" on="1"/>
        <pt x="22" y="46" on="1"/>
        <pt x="114" y="61" on="0"/>
        <pt x="136" y="62" on="1"/>
        <pt x="137" y="96" on="0"/>
        <pt x="137" y="164" on="1"/>
        <pt x="137" y="254" on="0"/>
        <pt x="129" y="593" on="0"/>
        <pt x="128" y="648" on="1"/>
        <pt x="27" y="653" on="1"/>
        <pt x="20" y="711" on="1"/>
        <pt x="61" y="710" on="0"/>
        <pt x="147" y="710" on="1"/>
        <pt x="235" y="710" on="0"/>
        <pt x="278" y="709" on="1"/>
        <pt x="281" y="659" on="1"/>
        <pt x="264" y="652" on="0"/>
        <pt x="202" y="649" on="0"/>
        <pt x="194" y="648" on="1"/>
        <pt x="197" y="620" on="0"/>
        <pt x="198" y="394" on="0"/>
        <pt x="198" y="120" on="0"/>
        <pt x="200" y="62" on="1"/>
        <pt x="216" y="59" on="0"/>
        <pt x="306" y="51" on="0"/>
        <pt x="317" y="49" on="1"/>
        <pt x="315" y="-3" on="1"/>
        <pt x="285" y="-2" on="0"/>
        <pt x="220" y="-2" on="1"/>
        <pt x="186" y="-2" on="0"/>
        <pt x="52" y="-3" on="0"/>
      </contour>
      <contour>
        <pt x="213" y="898" on="1"/>
        <pt x="240" y="898" on="0"/>
        <pt x="276" y="851" on="0"/>
        <pt x="276" y="821" on="1"/>
        <pt x="276" y="799" on="0"/>
        <pt x="256" y="772" on="0"/>
        <pt x="238" y="772" on="1"/>
        <pt x="210" y="772" on="0"/>
        <pt x="177" y="818" on="0"/>
        <pt x="177" y="849" on="1"/>
        <pt x="177" y="871" on="0"/>
        <pt x="196" y="898" on="0"/>
      </contour>
      <contour>
        <pt x="59" y="898" on="1"/>
        <pt x="86" y="898" on="0"/>
        <pt x="123" y="851" on="0"/>
        <pt x="123" y="821" on="1"/>
        <pt x="123" y="799" on="0"/>
        <pt x="102" y="772" on="0"/>
        <pt x="84" y="772" on="1"/>
        <pt x="56" y="772" on="0"/>
        <pt x="24" y="818" on="0"/>
        <pt x="24" y="849" on="1"/>
        <pt x="24" y="871" on="0"/>
        <pt x="42" y="898" on="0"/>
      </contour>
    </TTGlyph>
    <TTGlyph name="afii10057" xMin="0" yMin="-28" xMax="348" yMax="725">
      <component glyphName="J" x="0" y="0" flags="0x200"/>
    </TTGlyph>
    <TTGlyph name="afii10058" xMin="-72" yMin="-94" xMax="840" yMax="720">
      <contour>
        <pt x="-43" y="-94" on="1"/>
        <pt x="-72" y="-42" on="1"/>
        <pt x="-17" y="-5" on="0"/>
        <pt x="61" y="92" on="0"/>
        <pt x="105" y="189" on="0"/>
        <pt x="131" y="313" on="0"/>
        <pt x="138" y="418" on="0"/>
        <pt x="138" y="487" on="1"/>
        <pt x="138" y="523" on="0"/>
        <pt x="143" y="674" on="0"/>
        <pt x="143" y="714" on="1"/>
        <pt x="172" y="719" on="0"/>
        <pt x="232" y="719" on="1"/>
        <pt x="257" y="719" on="0"/>
        <pt x="359" y="716" on="0"/>
        <pt x="385" y="716" on="1"/>
        <pt x="433" y="716" on="0"/>
        <pt x="473" y="720" on="1"/>
        <pt x="485" y="653" on="0"/>
        <pt x="485" y="510" on="1"/>
        <pt x="485" y="456" on="0"/>
        <pt x="484" y="428" on="1"/>
        <pt x="511" y="431" on="0"/>
        <pt x="540" y="431" on="1"/>
        <pt x="672" y="431" on="0"/>
        <pt x="840" y="282" on="0"/>
        <pt x="840" y="182" on="1"/>
        <pt x="840" y="-20" on="0"/>
        <pt x="589" y="-20" on="1"/>
        <pt x="523" y="-20" on="0"/>
        <pt x="416" y="-1" on="0"/>
        <pt x="408" y="14" on="1"/>
        <pt x="408" y="39" on="0"/>
        <pt x="409" y="51" on="1"/>
        <pt x="409" y="65" on="0"/>
        <pt x="410" y="120" on="0"/>
        <pt x="410" y="135" on="1"/>
        <pt x="410" y="193" on="0"/>
        <pt x="404" y="441" on="0"/>
        <pt x="404" y="509" on="1"/>
        <pt x="404" y="578" on="0"/>
        <pt x="407" y="646" on="1"/>
        <pt x="383" y="648" on="0"/>
        <pt x="264" y="650" on="0"/>
        <pt x="233" y="654" on="1"/>
        <pt x="224" y="602" on="0"/>
        <pt x="213" y="435" on="0"/>
        <pt x="206" y="306" on="0"/>
        <pt x="177" y="151" on="0"/>
        <pt x="128" y="37" on="0"/>
        <pt x="29" y="-66" on="0"/>
      </contour>
      <contour>
        <pt x="484" y="352" on="1"/>
        <pt x="488" y="235" on="0"/>
        <pt x="495" y="68" on="1"/>
        <pt x="564" y="59" on="0"/>
        <pt x="615" y="59" on="1"/>
        <pt x="756" y="59" on="0"/>
        <pt x="756" y="193" on="1"/>
        <pt x="756" y="262" on="0"/>
        <pt x="637" y="356" on="0"/>
        <pt x="540" y="356" on="1"/>
        <pt x="509" y="356" on="0"/>
      </contour>
    </TTGlyph>
    <TTGlyph name="afii10059" xMin="41" yMin="-23" xMax="782" yMax="731">
      <contour>
        <pt x="349" y="719" on="1"/>
        <pt x="407" y="731" on="1"/>
        <pt x="424" y="600" on="0"/>
        <pt x="427" y="427" on="1"/>
        <pt x="454" y="430" on="0"/>
        <pt x="482" y="430" on="1"/>
        <pt x="614" y="430" on="0"/>
        <pt x="782" y="281" on="0"/>
        <pt x="782" y="181" on="1"/>
        <pt x="782" y="-22" on="0"/>
        <pt x="531" y="-22" on="1"/>
        <pt x="466" y="-22" on="0"/>
        <pt x="358" y="-2" on="0"/>
        <pt x="350" y="13" on="1"/>
        <pt x="350" y="345" on="1"/>
        <pt x="285" y="343" on="0"/>
        <pt x="155" y="343" on="1"/>
        <pt x="129" y="343" on="0"/>
        <pt x="117" y="344" on="1"/>
        <pt x="119" y="282" on="0"/>
        <pt x="130" y="48" on="0"/>
        <pt x="131" y="8" on="1"/>
        <pt x="122" y="-23" on="0"/>
        <pt x="96" y="-23" on="1"/>
        <pt x="78" y="-23" on="0"/>
        <pt x="45" y="7" on="0"/>
        <pt x="41" y="28" on="1"/>
        <pt x="44" y="114" on="0"/>
        <pt x="49" y="610" on="0"/>
        <pt x="56" y="731" on="1"/>
        <pt x="101" y="721" on="1"/>
        <pt x="101" y="715" on="0"/>
        <pt x="103" y="689" on="0"/>
        <pt x="103" y="682" on="1"/>
        <pt x="115" y="471" on="0"/>
        <pt x="117" y="403" on="1"/>
        <pt x="153" y="406" on="0"/>
        <pt x="306" y="410" on="0"/>
        <pt x="347" y="414" on="1"/>
        <pt x="348" y="414" on="0"/>
        <pt x="348" y="434" on="0"/>
        <pt x="349" y="576" on="0"/>
      </contour>
      <contour>
        <pt x="429" y="351" on="1"/>
        <pt x="430" y="220" on="0"/>
        <pt x="437" y="67" on="1"/>
        <pt x="506" y="58" on="0"/>
        <pt x="558" y="58" on="1"/>
        <pt x="698" y="58" on="0"/>
        <pt x="698" y="191" on="1"/>
        <pt x="698" y="260" on="0"/>
        <pt x="579" y="355" on="0"/>
        <pt x="482" y="355" on="1"/>
        <pt x="453" y="355" on="0"/>
      </contour>
    </TTGlyph>
    <TTGlyph name="afii10060" xMin="0" yMin="-9" xMax="558" yMax="738">
      <contour>
        <pt x="10" y="671" on="1"/>
        <pt x="0" y="716" on="1"/>
        <pt x="382" y="738" on="1"/>
        <pt x="407" y="737" on="0"/>
        <pt x="441" y="703" on="0"/>
        <pt x="441" y="683" on="1"/>
        <pt x="441" y="670" on="0"/>
        <pt x="421" y="650" on="0"/>
        <pt x="401" y="648" on="1"/>
        <pt x="249" y="656" on="1"/>
        <pt x="244" y="398" on="1"/>
        <pt x="309" y="416" on="0"/>
        <pt x="352" y="416" on="1"/>
        <pt x="451" y="416" on="0"/>
        <pt x="558" y="281" on="0"/>
        <pt x="558" y="159" on="1"/>
        <pt x="558" y="82" on="0"/>
        <pt x="540" y="-9" on="1"/>
        <pt x="474" y="1" on="1"/>
        <pt x="477" y="48" on="0"/>
        <pt x="477" y="89" on="1"/>
        <pt x="477" y="210" on="0"/>
        <pt x="424" y="338" on="0"/>
        <pt x="353" y="338" on="1"/>
        <pt x="308" y="338" on="0"/>
        <pt x="242" y="308" on="1"/>
        <pt x="242" y="291" on="0"/>
        <pt x="241" y="57" on="0"/>
        <pt x="237" y="3" on="1"/>
        <pt x="165" y="3" on="1"/>
        <pt x="162" y="37" on="0"/>
        <pt x="162" y="600" on="0"/>
        <pt x="160" y="662" on="1"/>
      </contour>
    </TTGlyph>
    <TTGlyph name="afii10061" xMin="41" yMin="-32" xMax="523" yMax="912">
      <contour>
        <pt x="520" y="22" on="1"/>
        <pt x="523" y="-16" on="1"/>
        <pt x="470" y="-32" on="0"/>
        <pt x="422" y="-32" on="1"/>
        <pt x="376" y="-32" on="0"/>
        <pt x="311" y="17" on="0"/>
        <pt x="278" y="91" on="0"/>
        <pt x="245" y="177" on="0"/>
        <pt x="216" y="251" on="0"/>
        <pt x="160" y="300" on="0"/>
        <pt x="121" y="300" on="1"/>
        <pt x="131" y="6" on="1"/>
        <pt x="122" y="-25" on="0"/>
        <pt x="96" y="-25" on="1"/>
        <pt x="78" y="-25" on="0"/>
        <pt x="45" y="5" on="0"/>
        <pt x="41" y="26" on="1"/>
        <pt x="42" y="47" on="0"/>
        <pt x="54" y="682" on="0"/>
        <pt x="57" y="732" on="1"/>
        <pt x="102" y="722" on="1"/>
        <pt x="103" y="684" on="0"/>
        <pt x="113" y="475" on="0"/>
        <pt x="114" y="438" on="1"/>
        <pt x="157" y="439" on="0"/>
        <pt x="218" y="502" on="0"/>
        <pt x="257" y="592" on="0"/>
        <pt x="297" y="681" on="0"/>
        <pt x="362" y="744" on="0"/>
        <pt x="407" y="744" on="1"/>
        <pt x="441" y="744" on="0"/>
        <pt x="522" y="729" on="1"/>
        <pt x="512" y="689" on="1"/>
        <pt x="450" y="699" on="0"/>
        <pt x="441" y="699" on="1"/>
        <pt x="406" y="699" on="0"/>
        <pt x="358" y="641" on="0"/>
        <pt x="326" y="554" on="0"/>
        <pt x="288" y="463" on="0"/>
        <pt x="214" y="387" on="0"/>
        <pt x="160" y="374" on="1"/>
        <pt x="208" y="363" on="0"/>
        <pt x="278" y="299" on="0"/>
        <pt x="312" y="219" on="0"/>
        <pt x="344" y="130" on="0"/>
        <pt x="368" y="58" on="0"/>
        <pt x="411" y="10" on="0"/>
        <pt x="442" y="10" on="1"/>
        <pt x="472" y="10" on="0"/>
      </contour>
      <contour>
        <pt x="197" y="758" on="1"/>
        <pt x="167" y="785" on="1"/>
        <pt x="169" y="788" on="0"/>
        <pt x="214" y="834" on="0"/>
        <pt x="261" y="889" on="0"/>
        <pt x="269" y="908" on="1"/>
        <pt x="275" y="912" on="0"/>
        <pt x="288" y="912" on="1"/>
        <pt x="307" y="912" on="0"/>
        <pt x="340" y="898" on="0"/>
        <pt x="340" y="887" on="1"/>
        <pt x="340" y="863" on="0"/>
        <pt x="233" y="773" on="0"/>
      </contour>
    </TTGlyph>
    <TTGlyph name="afii10062" xMin="0" yMin="-32" xMax="492" yMax="847">
      <contour>
        <pt x="0" y="682" on="1"/>
        <pt x="52" y="731" on="1"/>
        <pt x="97" y="657" on="0"/>
        <pt x="235" y="349" on="0"/>
        <pt x="260" y="300" on="1"/>
        <pt x="360" y="557" on="0"/>
        <pt x="411" y="710" on="1"/>
        <pt x="424" y="734" on="0"/>
        <pt x="444" y="734" on="1"/>
        <pt x="462" y="734" on="0"/>
        <pt x="490" y="699" on="0"/>
        <pt x="492" y="676" on="1"/>
        <pt x="458" y="603" on="0"/>
        <pt x="311" y="274" on="0"/>
        <pt x="208" y="65" on="0"/>
        <pt x="150" y="-32" on="1"/>
        <pt x="85" y="-19" on="1"/>
        <pt x="214" y="234" on="1"/>
        <pt x="178" y="333" on="0"/>
      </contour>
      <contour>
        <pt x="133" y="780" on="1"/>
        <pt x="126" y="812" on="1"/>
        <pt x="150" y="809" on="0"/>
        <pt x="173" y="809" on="1"/>
        <pt x="242" y="809" on="0"/>
        <pt x="300" y="847" on="1"/>
        <pt x="323" y="845" on="0"/>
        <pt x="355" y="821" on="0"/>
        <pt x="355" y="805" on="1"/>
        <pt x="355" y="792" on="0"/>
        <pt x="337" y="776" on="0"/>
        <pt x="301" y="769" on="0"/>
        <pt x="277" y="768" on="0"/>
        <pt x="257" y="768" on="1"/>
        <pt x="188" y="768" on="0"/>
      </contour>
    </TTGlyph>
    <TTGlyph name="afii10065" xMin="20" yMin="-18" xMax="371" yMax="540">
      <component glyphName="a" x="0" y="0" flags="0x200"/>
    </TTGlyph>
    <TTGlyph name="afii10066" xMin="41" yMin="-45" xMax="450" yMax="866">
      <contour>
        <pt x="108" y="476" on="1"/>
        <pt x="132" y="495" on="0"/>
        <pt x="205" y="520" on="0"/>
        <pt x="233" y="520" on="1"/>
        <pt x="419" y="520" on="0"/>
        <pt x="419" y="305" on="1"/>
        <pt x="419" y="259" on="0"/>
        <pt x="405" y="156" on="0"/>
        <pt x="370" y="34" on="0"/>
        <pt x="295" y="-45" on="0"/>
        <pt x="242" y="-45" on="1"/>
        <pt x="185" y="-45" on="0"/>
        <pt x="105" y="15" on="0"/>
        <pt x="60" y="131" on="0"/>
        <pt x="41" y="276" on="0"/>
        <pt x="41" y="373" on="1"/>
        <pt x="41" y="471" on="0"/>
        <pt x="90" y="625" on="0"/>
        <pt x="190" y="741" on="0"/>
        <pt x="314" y="825" on="0"/>
        <pt x="402" y="866" on="1"/>
        <pt x="408" y="858" on="0"/>
        <pt x="423" y="847" on="0"/>
        <pt x="436" y="825" on="0"/>
        <pt x="450" y="793" on="1"/>
        <pt x="431" y="782" on="0"/>
        <pt x="347" y="738" on="0"/>
        <pt x="291" y="707" on="0"/>
        <pt x="214" y="652" on="0"/>
        <pt x="163" y="599" on="0"/>
        <pt x="118" y="520" on="0"/>
      </contour>
      <contour>
        <pt x="342" y="311" on="1"/>
        <pt x="342" y="385" on="0"/>
        <pt x="274" y="458" on="0"/>
        <pt x="217" y="458" on="1"/>
        <pt x="164" y="458" on="0"/>
        <pt x="98" y="367" on="0"/>
        <pt x="98" y="302" on="1"/>
        <pt x="98" y="263" on="0"/>
        <pt x="111" y="175" on="0"/>
        <pt x="138" y="86" on="0"/>
        <pt x="189" y="28" on="0"/>
        <pt x="221" y="28" on="1"/>
        <pt x="342" y="28" on="0"/>
      </contour>
    </TTGlyph>
    <TTGlyph name="afii10067" xMin="41" yMin="-28" xMax="417" yMax="546">
      <contour>
        <pt x="63" y="513" on="1"/>
        <pt x="218" y="546" on="0"/>
        <pt x="252" y="546" on="1"/>
        <pt x="386" y="546" on="0"/>
        <pt x="386" y="431" on="1"/>
        <pt x="386" y="391" on="0"/>
        <pt x="359" y="316" on="0"/>
        <pt x="339" y="304" on="1"/>
        <pt x="417" y="251" on="0"/>
        <pt x="417" y="158" on="1"/>
        <pt x="417" y="70" on="0"/>
        <pt x="302" y="-28" on="0"/>
        <pt x="208" y="-28" on="1"/>
        <pt x="96" y="-28" on="0"/>
        <pt x="41" y="32" on="1"/>
      </contour>
      <contour>
        <pt x="120" y="262" on="1"/>
        <pt x="129" y="59" on="1"/>
        <pt x="154" y="47" on="0"/>
        <pt x="186" y="47" on="1"/>
        <pt x="248" y="47" on="0"/>
        <pt x="352" y="125" on="0"/>
        <pt x="352" y="177" on="1"/>
        <pt x="352" y="213" on="0"/>
        <pt x="296" y="274" on="0"/>
        <pt x="253" y="274" on="1"/>
        <pt x="228" y="274" on="0"/>
      </contour>
      <contour>
        <pt x="110" y="468" on="1"/>
        <pt x="117" y="314" on="1"/>
        <pt x="132" y="316" on="0"/>
        <pt x="194" y="318" on="0"/>
        <pt x="232" y="325" on="0"/>
        <pt x="278" y="348" on="0"/>
        <pt x="305" y="406" on="0"/>
        <pt x="310" y="453" on="1"/>
        <pt x="300" y="483" on="0"/>
        <pt x="249" y="483" on="1"/>
        <pt x="226" y="483" on="0"/>
        <pt x="128" y="469" on="0"/>
      </contour>
    </TTGlyph>
    <TTGlyph name="afii10068" xMin="41" yMin="0" xMax="374" yMax="539">
      <contour>
        <pt x="61" y="513" on="1"/>
        <pt x="104" y="517" on="0"/>
        <pt x="278" y="536" on="0"/>
        <pt x="314" y="539" on="1"/>
        <pt x="339" y="538" on="0"/>
        <pt x="374" y="503" on="0"/>
        <pt x="374" y="483" on="1"/>
        <pt x="374" y="453" on="0"/>
        <pt x="334" y="449" on="1"/>
        <pt x="297" y="452" on="0"/>
        <pt x="147" y="466" on="0"/>
        <pt x="108" y="469" on="1"/>
        <pt x="109" y="408" on="0"/>
        <pt x="131" y="134" on="0"/>
        <pt x="131" y="62" on="1"/>
        <pt x="131" y="0" on="0"/>
        <pt x="82" y="0" on="1"/>
        <pt x="41" y="0" on="0"/>
        <pt x="41" y="56" on="1"/>
        <pt x="41" y="122" on="0"/>
        <pt x="47" y="273" on="0"/>
        <pt x="59" y="468" on="0"/>
      </contour>
    </TTGlyph>
    <TTGlyph name="afii10069" xMin="0" yMin="-146" xMax="520" yMax="531">
      <contour>
        <pt x="53" y="-131" on="1"/>
        <pt x="8" y="-121" on="1"/>
        <pt x="8" y="-110" on="0"/>
        <pt x="0" y="-2" on="0"/>
        <pt x="0" y="22" on="1"/>
        <pt x="0" y="42" on="0"/>
        <pt x="3" y="65" on="1"/>
        <pt x="68" y="65" on="1"/>
        <pt x="73" y="82" on="0"/>
        <pt x="96" y="150" on="0"/>
        <pt x="104" y="178" on="0"/>
        <pt x="119" y="233" on="0"/>
        <pt x="124" y="272" on="0"/>
        <pt x="129" y="330" on="0"/>
        <pt x="129" y="362" on="1"/>
        <pt x="129" y="437" on="0"/>
        <pt x="123" y="531" on="1"/>
        <pt x="179" y="528" on="0"/>
        <pt x="304" y="526" on="0"/>
        <pt x="384" y="522" on="0"/>
        <pt x="426" y="515" on="1"/>
        <pt x="429" y="447" on="0"/>
        <pt x="436" y="136" on="0"/>
        <pt x="439" y="68" on="1"/>
        <pt x="517" y="68" on="1"/>
        <pt x="517" y="38" on="1"/>
        <pt x="517" y="12" on="0"/>
        <pt x="520" y="-84" on="0"/>
        <pt x="520" y="-100" on="1"/>
        <pt x="520" y="-130" on="0"/>
        <pt x="518" y="-146" on="1"/>
        <pt x="473" y="-136" on="1"/>
        <pt x="469" y="-122" on="0"/>
        <pt x="462" y="-79" on="0"/>
        <pt x="454" y="-29" on="0"/>
        <pt x="452" y="-18" on="1"/>
        <pt x="395" y="-15" on="0"/>
        <pt x="146" y="3" on="0"/>
        <pt x="76" y="6" on="1"/>
      </contour>
      <contour>
        <pt x="207" y="468" on="1"/>
        <pt x="206" y="453" on="0"/>
        <pt x="204" y="358" on="0"/>
        <pt x="201" y="308" on="0"/>
        <pt x="192" y="219" on="0"/>
        <pt x="178" y="160" on="0"/>
        <pt x="151" y="91" on="0"/>
        <pt x="133" y="66" on="1"/>
        <pt x="352" y="66" on="1"/>
        <pt x="372" y="460" on="1"/>
        <pt x="358" y="461" on="0"/>
        <pt x="239" y="465" on="0"/>
      </contour>
    </TTGlyph>
    <TTGlyph name="afii10070" xMin="41" yMin="-2" xMax="454" yMax="523">
      <component glyphName="e" x="0" y="0" flags="0x200"/>
    </TTGlyph>
    <TTGlyph name="afii10071" xMin="41" yMin="-2" xMax="454" yMax="717">
      <component glyphName="e" x="0" y="0" flags="0x200"/>
      <component glyphName="dieresis" x="-11" y="0" flags="0x0"/>
    </TTGlyph>
    <TTGlyph name="afii10072" xMin="0" yMin="-12" xMax="645" yMax="556">
      <contour>
        <pt x="288" y="326" on="1"/>
        <pt x="288" y="479" on="0"/>
        <pt x="297" y="543" on="1"/>
        <pt x="342" y="526" on="1"/>
        <pt x="350" y="487" on="0"/>
        <pt x="351" y="345" on="0"/>
        <pt x="352" y="326" on="1"/>
        <pt x="382" y="331" on="0"/>
        <pt x="427" y="383" on="0"/>
        <pt x="456" y="448" on="0"/>
        <pt x="488" y="512" on="0"/>
        <pt x="539" y="556" on="0"/>
        <pt x="574" y="556" on="1"/>
        <pt x="596" y="556" on="0"/>
        <pt x="631" y="545" on="1"/>
        <pt x="627" y="510" on="1"/>
        <pt x="621" y="511" on="0"/>
        <pt x="610" y="511" on="1"/>
        <pt x="577" y="511" on="0"/>
        <pt x="527" y="468" on="0"/>
        <pt x="496" y="404" on="0"/>
        <pt x="470" y="339" on="0"/>
        <pt x="435" y="289" on="0"/>
        <pt x="413" y="284" on="1"/>
        <pt x="450" y="275" on="0"/>
        <pt x="503" y="192" on="0"/>
        <pt x="530" y="105" on="0"/>
        <pt x="582" y="34" on="0"/>
        <pt x="620" y="34" on="1"/>
        <pt x="630" y="34" on="0"/>
        <pt x="642" y="37" on="1"/>
        <pt x="645" y="-7" on="1"/>
        <pt x="625" y="-12" on="0"/>
        <pt x="610" y="-12" on="1"/>
        <pt x="572" y="-12" on="0"/>
        <pt x="511" y="38" on="0"/>
        <pt x="471" y="110" on="0"/>
        <pt x="436" y="181" on="0"/>
        <pt x="396" y="231" on="0"/>
        <pt x="375" y="231" on="1"/>
        <pt x="366" y="231" on="0"/>
        <pt x="359" y="228" on="1"/>
        <pt x="361" y="199" on="0"/>
        <pt x="366" y="134" on="0"/>
        <pt x="372" y="56" on="0"/>
        <pt x="374" y="34" on="1"/>
        <pt x="365" y="3" on="0"/>
        <pt x="339" y="3" on="1"/>
        <pt x="321" y="3" on="0"/>
        <pt x="288" y="32" on="0"/>
        <pt x="284" y="53" on="1"/>
        <pt x="286" y="137" on="0"/>
        <pt x="286" y="228" on="1"/>
        <pt x="278" y="231" on="0"/>
        <pt x="270" y="231" on="1"/>
        <pt x="249" y="231" on="0"/>
        <pt x="209" y="181" on="0"/>
        <pt x="174" y="110" on="0"/>
        <pt x="134" y="38" on="0"/>
        <pt x="73" y="-12" on="0"/>
        <pt x="35" y="-12" on="1"/>
        <pt x="20" y="-12" on="0"/>
        <pt x="0" y="-7" on="1"/>
        <pt x="3" y="37" on="1"/>
        <pt x="15" y="34" on="0"/>
        <pt x="26" y="34" on="1"/>
        <pt x="57" y="34" on="0"/>
        <pt x="101" y="80" on="0"/>
        <pt x="129" y="149" on="0"/>
        <pt x="156" y="219" on="0"/>
        <pt x="201" y="277" on="0"/>
        <pt x="232" y="284" on="1"/>
        <pt x="210" y="289" on="0"/>
        <pt x="175" y="339" on="0"/>
        <pt x="149" y="404" on="0"/>
        <pt x="118" y="468" on="0"/>
        <pt x="68" y="511" on="0"/>
        <pt x="35" y="511" on="1"/>
        <pt x="24" y="511" on="0"/>
        <pt x="18" y="510" on="1"/>
        <pt x="14" y="545" on="1"/>
        <pt x="44" y="556" on="0"/>
        <pt x="72" y="556" on="1"/>
        <pt x="107" y="556" on="0"/>
        <pt x="159" y="513" on="0"/>
        <pt x="190" y="450" on="0"/>
        <pt x="219" y="385" on="0"/>
        <pt x="261" y="332" on="0"/>
      </contour>
    </TTGlyph>
    <TTGlyph name="afii10073" xMin="20" yMin="-26" xMax="314" yMax="519">
      <contour>
        <pt x="100" y="247" on="1"/>
        <pt x="96" y="303" on="1"/>
        <pt x="99" y="303" on="0"/>
        <pt x="112" y="302" on="0"/>
        <pt x="115" y="302" on="1"/>
        <pt x="216" y="302" on="0"/>
        <pt x="216" y="390" on="1"/>
        <pt x="205" y="467" on="0"/>
        <pt x="131" y="467" on="1"/>
        <pt x="103" y="467" on="0"/>
        <pt x="49" y="451" on="1"/>
        <pt x="31" y="480" on="1"/>
        <pt x="73" y="519" on="0"/>
        <pt x="151" y="519" on="1"/>
        <pt x="206" y="519" on="0"/>
        <pt x="280" y="463" on="0"/>
        <pt x="280" y="409" on="1"/>
        <pt x="280" y="376" on="0"/>
        <pt x="254" y="313" on="0"/>
        <pt x="233" y="297" on="1"/>
        <pt x="271" y="289" on="0"/>
        <pt x="314" y="202" on="0"/>
        <pt x="314" y="148" on="1"/>
        <pt x="314" y="78" on="0"/>
        <pt x="224" y="-26" on="0"/>
        <pt x="153" y="-26" on="1"/>
        <pt x="118" y="-26" on="0"/>
        <pt x="20" y="14" on="0"/>
        <pt x="20" y="44" on="1"/>
        <pt x="20" y="65" on="0"/>
        <pt x="47" y="65" on="1"/>
        <pt x="65" y="65" on="0"/>
        <pt x="123" y="32" on="0"/>
        <pt x="142" y="32" on="1"/>
        <pt x="184" y="32" on="0"/>
        <pt x="248" y="106" on="0"/>
        <pt x="248" y="151" on="1"/>
        <pt x="248" y="199" on="0"/>
        <pt x="181" y="248" on="0"/>
        <pt x="129" y="248" on="1"/>
        <pt x="109" y="248" on="0"/>
      </contour>
    </TTGlyph>
    <TTGlyph name="afii10074" xMin="41" yMin="-12" xMax="436" yMax="513">
      <contour>
        <pt x="129" y="83" on="1"/>
        <pt x="129" y="66" on="0"/>
        <pt x="131" y="38" on="1"/>
        <pt x="122" y="7" on="0"/>
        <pt x="96" y="7" on="1"/>
        <pt x="78" y="7" on="0"/>
        <pt x="45" y="36" on="0"/>
        <pt x="41" y="57" on="1"/>
        <pt x="44" y="138" on="0"/>
        <pt x="53" y="450" on="0"/>
        <pt x="55" y="505" on="1"/>
        <pt x="101" y="513" on="1"/>
        <pt x="113" y="449" on="0"/>
        <pt x="119" y="237" on="0"/>
        <pt x="124" y="185" on="1"/>
        <pt x="143" y="213" on="0"/>
        <pt x="321" y="449" on="0"/>
        <pt x="353" y="507" on="1"/>
        <pt x="375" y="511" on="0"/>
        <pt x="381" y="511" on="1"/>
        <pt x="400" y="511" on="0"/>
        <pt x="415" y="477" on="0"/>
        <pt x="417" y="430" on="1"/>
        <pt x="436" y="18" on="1"/>
        <pt x="427" y="-12" on="0"/>
        <pt x="401" y="-12" on="1"/>
        <pt x="383" y="-12" on="0"/>
        <pt x="350" y="17" on="0"/>
        <pt x="346" y="38" on="1"/>
        <pt x="347" y="71" on="0"/>
        <pt x="356" y="328" on="0"/>
        <pt x="359" y="382" on="1"/>
        <pt x="188" y="187" on="0"/>
      </contour>
    </TTGlyph>
    <TTGlyph name="afii10075" xMin="41" yMin="-12" xMax="436" yMax="688">
      <contour>
        <pt x="132" y="622" on="1"/>
        <pt x="125" y="653" on="1"/>
        <pt x="149" y="650" on="0"/>
        <pt x="172" y="650" on="1"/>
        <pt x="241" y="650" on="0"/>
        <pt x="299" y="688" on="1"/>
        <pt x="322" y="686" on="0"/>
        <pt x="354" y="662" on="0"/>
        <pt x="354" y="646" on="1"/>
        <pt x="354" y="633" on="0"/>
        <pt x="336" y="617" on="0"/>
        <pt x="300" y="610" on="0"/>
        <pt x="276" y="609" on="0"/>
        <pt x="256" y="609" on="1"/>
        <pt x="191" y="609" on="0"/>
      </contour>
      <contour>
        <pt x="129" y="83" on="1"/>
        <pt x="129" y="66" on="0"/>
        <pt x="131" y="38" on="1"/>
        <pt x="122" y="7" on="0"/>
        <pt x="96" y="7" on="1"/>
        <pt x="78" y="7" on="0"/>
        <pt x="45" y="36" on="0"/>
        <pt x="41" y="57" on="1"/>
        <pt x="44" y="138" on="0"/>
        <pt x="53" y="450" on="0"/>
        <pt x="55" y="505" on="1"/>
        <pt x="101" y="513" on="1"/>
        <pt x="113" y="449" on="0"/>
        <pt x="119" y="237" on="0"/>
        <pt x="124" y="185" on="1"/>
        <pt x="143" y="213" on="0"/>
        <pt x="321" y="449" on="0"/>
        <pt x="353" y="507" on="1"/>
        <pt x="375" y="511" on="0"/>
        <pt x="381" y="511" on="1"/>
        <pt x="400" y="511" on="0"/>
        <pt x="415" y="477" on="0"/>
        <pt x="417" y="430" on="1"/>
        <pt x="436" y="18" on="1"/>
        <pt x="427" y="-12" on="0"/>
        <pt x="401" y="-12" on="1"/>
        <pt x="383" y="-12" on="0"/>
        <pt x="350" y="17" on="0"/>
        <pt x="346" y="38" on="1"/>
        <pt x="347" y="71" on="0"/>
        <pt x="356" y="328" on="0"/>
        <pt x="359" y="382" on="1"/>
        <pt x="188" y="187" on="0"/>
      </contour>
    </TTGlyph>
    <TTGlyph name="afii10076" xMin="41" yMin="-25" xMax="402" yMax="544">
      <contour>
        <pt x="399" y="25" on="1"/>
        <pt x="402" y="-19" on="1"/>
        <pt x="378" y="-25" on="0"/>
        <pt x="368" y="-25" on="1"/>
        <pt x="330" y="-25" on="0"/>
        <pt x="268" y="25" on="0"/>
        <pt x="228" y="97" on="0"/>
        <pt x="193" y="169" on="0"/>
        <pt x="153" y="219" on="0"/>
        <pt x="132" y="219" on="1"/>
        <pt x="124" y="219" on="0"/>
        <pt x="117" y="216" on="1"/>
        <pt x="121" y="156" on="0"/>
        <pt x="131" y="22" on="1"/>
        <pt x="122" y="-9" on="0"/>
        <pt x="96" y="-9" on="1"/>
        <pt x="78" y="-9" on="0"/>
        <pt x="45" y="20" on="0"/>
        <pt x="41" y="41" on="1"/>
        <pt x="45" y="209" on="0"/>
        <pt x="45" y="357" on="1"/>
        <pt x="45" y="466" on="0"/>
        <pt x="54" y="530" on="1"/>
        <pt x="99" y="514" on="1"/>
        <pt x="107" y="475" on="0"/>
        <pt x="109" y="330" on="0"/>
        <pt x="110" y="313" on="1"/>
        <pt x="140" y="318" on="0"/>
        <pt x="185" y="370" on="0"/>
        <pt x="214" y="436" on="0"/>
        <pt x="246" y="500" on="0"/>
        <pt x="297" y="544" on="0"/>
        <pt x="332" y="544" on="1"/>
        <pt x="350" y="544" on="0"/>
        <pt x="388" y="532" on="1"/>
        <pt x="384" y="498" on="1"/>
        <pt x="378" y="499" on="0"/>
        <pt x="368" y="499" on="1"/>
        <pt x="328" y="499" on="0"/>
        <pt x="269" y="432" on="0"/>
        <pt x="240" y="351" on="0"/>
        <pt x="196" y="277" on="0"/>
        <pt x="170" y="271" on="1"/>
        <pt x="207" y="262" on="0"/>
        <pt x="260" y="180" on="0"/>
        <pt x="287" y="93" on="0"/>
        <pt x="339" y="22" on="0"/>
        <pt x="377" y="22" on="1"/>
        <pt x="387" y="22" on="0"/>
      </contour>
    </TTGlyph>
    <TTGlyph name="afii10077" xMin="-82" yMin="-90" xMax="382" yMax="529">
      <contour>
        <pt x="-66" y="-90" on="1"/>
        <pt x="-82" y="-47" on="1"/>
        <pt x="-49" y="-34" on="0"/>
        <pt x="4" y="22" on="0"/>
        <pt x="38" y="83" on="0"/>
        <pt x="62" y="175" on="0"/>
        <pt x="73" y="244" on="0"/>
        <pt x="79" y="346" on="0"/>
        <pt x="80" y="397" on="0"/>
        <pt x="80" y="440" on="1"/>
        <pt x="80" y="501" on="0"/>
        <pt x="91" y="513" on="1"/>
        <pt x="105" y="528" on="0"/>
        <pt x="246" y="528" on="1"/>
        <pt x="357" y="528" on="0"/>
        <pt x="372" y="529" on="1"/>
        <pt x="374" y="123" on="0"/>
        <pt x="382" y="2" on="1"/>
        <pt x="372" y="-28" on="0"/>
        <pt x="347" y="-28" on="1"/>
        <pt x="330" y="-28" on="0"/>
        <pt x="298" y="0" on="0"/>
        <pt x="294" y="20" on="1"/>
        <pt x="293" y="59" on="0"/>
        <pt x="293" y="136" on="1"/>
        <pt x="293" y="174" on="0"/>
        <pt x="294" y="328" on="0"/>
        <pt x="294" y="367" on="1"/>
        <pt x="294" y="439" on="0"/>
        <pt x="293" y="475" on="1"/>
        <pt x="251" y="468" on="0"/>
        <pt x="169" y="466" on="0"/>
        <pt x="152" y="464" on="1"/>
        <pt x="149" y="431" on="0"/>
        <pt x="145" y="301" on="0"/>
        <pt x="142" y="202" on="0"/>
        <pt x="120" y="77" on="0"/>
        <pt x="79" y="-10" on="0"/>
        <pt x="-6" y="-79" on="0"/>
      </contour>
    </TTGlyph>
    <TTGlyph name="afii10078" xMin="0" yMin="-8" xMax="603" yMax="512">
      <contour>
        <pt x="433" y="493" on="1"/>
        <pt x="501" y="499" on="1"/>
        <pt x="551" y="364" on="0"/>
        <pt x="603" y="-4" on="1"/>
        <pt x="586" y="-8" on="0"/>
        <pt x="569" y="-8" on="1"/>
        <pt x="554" y="-8" on="0"/>
        <pt x="534" y="-3" on="1"/>
        <pt x="520" y="52" on="0"/>
        <pt x="481" y="330" on="0"/>
        <pt x="466" y="388" on="1"/>
        <pt x="417" y="308" on="0"/>
        <pt x="334" y="94" on="1"/>
        <pt x="327" y="93" on="0"/>
        <pt x="292" y="87" on="0"/>
        <pt x="283" y="87" on="1"/>
        <pt x="272" y="87" on="0"/>
        <pt x="257" y="90" on="1"/>
        <pt x="241" y="131" on="0"/>
        <pt x="178" y="312" on="0"/>
        <pt x="159" y="358" on="1"/>
        <pt x="63" y="112" on="0"/>
        <pt x="39" y="-6" on="1"/>
        <pt x="0" y="5" on="1"/>
        <pt x="5" y="81" on="0"/>
        <pt x="105" y="460" on="0"/>
        <pt x="115" y="512" on="1"/>
        <pt x="127" y="512" on="0"/>
        <pt x="158" y="507" on="0"/>
        <pt x="166" y="507" on="1"/>
        <pt x="192" y="462" on="0"/>
        <pt x="282" y="207" on="0"/>
        <pt x="297" y="175" on="1"/>
        <pt x="373" y="391" on="0"/>
      </contour>
    </TTGlyph>
    <TTGlyph name="afii10079" xMin="41" yMin="-18" xMax="408" yMax="507">
      <contour>
        <pt x="340" y="507" on="1"/>
        <pt x="385" y="497" on="1"/>
        <pt x="408" y="12" on="1"/>
        <pt x="399" y="-18" on="0"/>
        <pt x="373" y="-18" on="1"/>
        <pt x="355" y="-18" on="0"/>
        <pt x="321" y="11" on="0"/>
        <pt x="317" y="32" on="1"/>
        <pt x="317" y="35" on="0"/>
        <pt x="326" y="201" on="1"/>
        <pt x="326" y="209" on="1"/>
        <pt x="298" y="211" on="0"/>
        <pt x="243" y="211" on="1"/>
        <pt x="160" y="211" on="0"/>
        <pt x="118" y="216" on="1"/>
        <pt x="123" y="158" on="0"/>
        <pt x="131" y="29" on="1"/>
        <pt x="122" y="-2" on="0"/>
        <pt x="96" y="-2" on="1"/>
        <pt x="78" y="-2" on="0"/>
        <pt x="45" y="27" on="0"/>
        <pt x="41" y="48" on="1"/>
        <pt x="44" y="98" on="0"/>
        <pt x="44" y="148" on="1"/>
        <pt x="44" y="180" on="0"/>
        <pt x="42" y="308" on="0"/>
        <pt x="42" y="339" on="1"/>
        <pt x="42" y="435" on="0"/>
        <pt x="48" y="500" on="1"/>
        <pt x="93" y="489" on="1"/>
        <pt x="113" y="272" on="0"/>
        <pt x="114" y="266" on="1"/>
        <pt x="285" y="257" on="0"/>
        <pt x="290" y="257" on="1"/>
        <pt x="331" y="257" on="0"/>
        <pt x="331" y="262" on="1"/>
        <pt x="331" y="282" on="0"/>
        <pt x="339" y="496" on="0"/>
      </contour>
    </TTGlyph>
    <TTGlyph name="afii10080" xMin="41" yMin="-29" xMax="417" yMax="531">
      <component glyphName="o" x="0" y="0" flags="0x200"/>
    </TTGlyph>
    <TTGlyph name="afii10081" xMin="41" yMin="-18" xMax="408" yMax="500">
      <contour>
        <pt x="48" y="500" on="1"/>
        <pt x="385" y="497" on="1"/>
        <pt x="408" y="12" on="1"/>
        <pt x="399" y="-18" on="0"/>
        <pt x="373" y="-18" on="1"/>
        <pt x="355" y="-18" on="0"/>
        <pt x="321" y="11" on="0"/>
        <pt x="317" y="32" on="1"/>
        <pt x="318" y="50" on="0"/>
        <pt x="323" y="241" on="0"/>
        <pt x="329" y="416" on="0"/>
        <pt x="330" y="442" on="1"/>
        <pt x="302" y="444" on="0"/>
        <pt x="247" y="444" on="1"/>
        <pt x="172" y="444" on="0"/>
        <pt x="122" y="450" on="1"/>
        <pt x="125" y="417" on="0"/>
        <pt x="129" y="58" on="0"/>
        <pt x="131" y="29" on="1"/>
        <pt x="122" y="-2" on="0"/>
        <pt x="96" y="-2" on="1"/>
        <pt x="78" y="-2" on="0"/>
        <pt x="45" y="27" on="0"/>
        <pt x="41" y="48" on="1"/>
        <pt x="44" y="98" on="0"/>
        <pt x="44" y="148" on="1"/>
        <pt x="44" y="174" on="0"/>
        <pt x="42" y="294" on="0"/>
        <pt x="42" y="329" on="1"/>
        <pt x="42" y="432" on="0"/>
      </contour>
    </TTGlyph>
    <TTGlyph name="afii10082" xMin="41" yMin="-291" xMax="414" yMax="526">
      <component glyphName="p" x="0" y="0" flags="0x200"/>
    </TTGlyph>
    <TTGlyph name="afii10083" xMin="41" yMin="-22" xMax="390" yMax="519">
      <component glyphName="c" x="0" y="0" flags="0x200"/>
    </TTGlyph>
    <TTGlyph name="afii10084" xMin="0" yMin="-11" xMax="480" yMax="525">
      <contour>
        <pt x="9" y="459" on="1"/>
        <pt x="0" y="503" on="1"/>
        <pt x="134" y="511" on="0"/>
        <pt x="422" y="525" on="1"/>
        <pt x="446" y="524" on="0"/>
        <pt x="480" y="490" on="0"/>
        <pt x="480" y="471" on="1"/>
        <pt x="480" y="441" on="0"/>
        <pt x="440" y="437" on="1"/>
        <pt x="253" y="446" on="1"/>
        <pt x="258" y="371" on="0"/>
        <pt x="259" y="84" on="0"/>
        <pt x="262" y="18" on="1"/>
        <pt x="253" y="-11" on="0"/>
        <pt x="227" y="-11" on="1"/>
        <pt x="210" y="-11" on="0"/>
        <pt x="178" y="17" on="0"/>
        <pt x="174" y="37" on="1"/>
        <pt x="188" y="283" on="0"/>
        <pt x="203" y="450" on="1"/>
      </contour>
    </TTGlyph>
    <TTGlyph name="afii10085" xMin="20" yMin="-296" xMax="437" yMax="523">
      <component glyphName="y" x="0" y="0" flags="0x200"/>
    </TTGlyph>
    <TTGlyph name="afii10086" xMin="20" yMin="-279" xMax="537" yMax="687">
      <contour>
        <pt x="298" y="-279" on="1"/>
        <pt x="247" y="-269" on="1"/>
        <pt x="243" y="-190" on="0"/>
        <pt x="243" y="-3" on="1"/>
        <pt x="140" y="-3" on="0"/>
        <pt x="20" y="110" on="0"/>
        <pt x="20" y="207" on="1"/>
        <pt x="20" y="323" on="0"/>
        <pt x="145" y="506" on="0"/>
        <pt x="254" y="507" on="1"/>
        <pt x="253" y="530" on="0"/>
        <pt x="253" y="562" on="1"/>
        <pt x="253" y="595" on="0"/>
        <pt x="257" y="669" on="1"/>
        <pt x="257" y="677" on="1"/>
        <pt x="270" y="687" on="0"/>
        <pt x="290" y="687" on="1"/>
        <pt x="312" y="687" on="0"/>
        <pt x="330" y="677" on="1"/>
        <pt x="324" y="583" on="0"/>
        <pt x="324" y="532" on="1"/>
        <pt x="324" y="504" on="1"/>
        <pt x="331" y="504" on="1"/>
        <pt x="412" y="504" on="0"/>
        <pt x="537" y="308" on="0"/>
        <pt x="537" y="201" on="1"/>
        <pt x="537" y="115" on="0"/>
        <pt x="415" y="-6" on="0"/>
        <pt x="327" y="-6" on="1"/>
        <pt x="314" y="-6" on="0"/>
        <pt x="308" y="-5" on="1"/>
        <pt x="306" y="-70" on="0"/>
        <pt x="300" y="-211" on="0"/>
      </contour>
      <contour>
        <pt x="243" y="61" on="1"/>
        <pt x="243" y="109" on="0"/>
        <pt x="258" y="306" on="0"/>
        <pt x="258" y="356" on="1"/>
        <pt x="258" y="408" on="0"/>
        <pt x="253" y="446" on="1"/>
        <pt x="252" y="446" on="0"/>
        <pt x="237" y="449" on="0"/>
        <pt x="233" y="449" on="1"/>
        <pt x="167" y="449" on="0"/>
        <pt x="80" y="307" on="0"/>
        <pt x="80" y="221" on="1"/>
        <pt x="80" y="151" on="0"/>
        <pt x="146" y="58" on="0"/>
        <pt x="210" y="58" on="1"/>
        <pt x="226" y="58" on="0"/>
      </contour>
      <contour>
        <pt x="321" y="436" on="1"/>
        <pt x="308" y="59" on="1"/>
        <pt x="317" y="59" on="1"/>
        <pt x="394" y="59" on="0"/>
        <pt x="468" y="146" on="0"/>
        <pt x="468" y="213" on="1"/>
        <pt x="468" y="292" on="0"/>
        <pt x="380" y="432" on="0"/>
      </contour>
    </TTGlyph>
    <TTGlyph name="afii10087" xMin="0" yMin="-25" xMax="365" yMax="513">
      <component glyphName="x" x="0" y="0" flags="0x200"/>
    </TTGlyph>
    <TTGlyph name="afii10088" xMin="41" yMin="-145" xMax="466" yMax="529">
      <contour>
        <pt x="41" y="-3" on="1"/>
        <pt x="44" y="52" on="0"/>
        <pt x="46" y="451" on="0"/>
        <pt x="53" y="529" on="1"/>
        <pt x="98" y="519" on="1"/>
        <pt x="105" y="439" on="0"/>
        <pt x="112" y="87" on="0"/>
        <pt x="113" y="71" on="1"/>
        <pt x="128" y="72" on="0"/>
        <pt x="162" y="72" on="1"/>
        <pt x="186" y="72" on="0"/>
        <pt x="279" y="70" on="0"/>
        <pt x="298" y="70" on="1"/>
        <pt x="326" y="70" on="1"/>
        <pt x="329" y="132" on="0"/>
        <pt x="337" y="445" on="0"/>
        <pt x="341" y="520" on="1"/>
        <pt x="386" y="510" on="1"/>
        <pt x="390" y="432" on="0"/>
        <pt x="391" y="94" on="0"/>
        <pt x="391" y="70" on="1"/>
        <pt x="466" y="70" on="1"/>
        <pt x="465" y="42" on="0"/>
        <pt x="457" y="-108" on="0"/>
        <pt x="456" y="-145" on="1"/>
        <pt x="408" y="-137" on="1"/>
        <pt x="388" y="-3" on="1"/>
        <pt x="258" y="-7" on="0"/>
        <pt x="194" y="-7" on="1"/>
        <pt x="109" y="-7" on="0"/>
      </contour>
    </TTGlyph>
    <TTGlyph name="afii10089" xMin="20" yMin="-23" xMax="379" yMax="544">
      <contour>
        <pt x="302" y="531" on="1"/>
        <pt x="343" y="544" on="1"/>
        <pt x="354" y="507" on="0"/>
        <pt x="375" y="26" on="0"/>
        <pt x="379" y="8" on="1"/>
        <pt x="370" y="-23" on="0"/>
        <pt x="344" y="-23" on="1"/>
        <pt x="326" y="-23" on="0"/>
        <pt x="293" y="7" on="0"/>
        <pt x="289" y="28" on="1"/>
        <pt x="291" y="85" on="0"/>
        <pt x="293" y="201" on="1"/>
        <pt x="241" y="188" on="0"/>
        <pt x="207" y="188" on="1"/>
        <pt x="155" y="188" on="0"/>
        <pt x="79" y="230" on="0"/>
        <pt x="38" y="304" on="0"/>
        <pt x="20" y="387" on="0"/>
        <pt x="20" y="435" on="1"/>
        <pt x="20" y="473" on="0"/>
        <pt x="30" y="535" on="1"/>
        <pt x="75" y="524" on="1"/>
        <pt x="76" y="511" on="0"/>
        <pt x="81" y="438" on="0"/>
        <pt x="85" y="406" on="0"/>
        <pt x="94" y="347" on="0"/>
        <pt x="111" y="318" on="0"/>
        <pt x="136" y="284" on="0"/>
        <pt x="175" y="270" on="0"/>
        <pt x="201" y="270" on="1"/>
        <pt x="234" y="270" on="0"/>
        <pt x="293" y="289" on="1"/>
        <pt x="293" y="315" on="0"/>
        <pt x="303" y="494" on="0"/>
        <pt x="303" y="516" on="1"/>
        <pt x="303" y="529" on="0"/>
      </contour>
    </TTGlyph>
    <TTGlyph name="afii10090" xMin="41" yMin="-5" xMax="551" yMax="536">
      <contour>
        <pt x="500" y="520" on="1"/>
        <pt x="545" y="510" on="1"/>
        <pt x="548" y="443" on="0"/>
        <pt x="548" y="184" on="1"/>
        <pt x="548" y="55" on="0"/>
        <pt x="551" y="-3" on="1"/>
        <pt x="475" y="-5" on="0"/>
        <pt x="353" y="-5" on="1"/>
        <pt x="117" y="-5" on="0"/>
        <pt x="41" y="0" on="1"/>
        <pt x="44" y="57" on="0"/>
        <pt x="52" y="450" on="0"/>
        <pt x="59" y="536" on="1"/>
        <pt x="104" y="525" on="1"/>
        <pt x="111" y="441" on="0"/>
        <pt x="119" y="95" on="0"/>
        <pt x="120" y="61" on="1"/>
        <pt x="142" y="63" on="0"/>
        <pt x="257" y="64" on="0"/>
        <pt x="274" y="65" on="1"/>
        <pt x="276" y="100" on="0"/>
        <pt x="276" y="175" on="1"/>
        <pt x="276" y="204" on="0"/>
        <pt x="275" y="324" on="0"/>
        <pt x="275" y="354" on="1"/>
        <pt x="275" y="452" on="0"/>
        <pt x="282" y="526" on="1"/>
        <pt x="327" y="516" on="1"/>
        <pt x="333" y="436" on="0"/>
        <pt x="340" y="94" on="0"/>
        <pt x="341" y="69" on="1"/>
        <pt x="443" y="69" on="0"/>
        <pt x="484" y="70" on="1"/>
        <pt x="487" y="130" on="0"/>
        <pt x="496" y="444" on="0"/>
      </contour>
    </TTGlyph>
    <TTGlyph name="afii10091" xMin="41" yMin="-145" xMax="625" yMax="536">
      <contour>
        <pt x="614" y="-145" on="1"/>
        <pt x="566" y="-137" on="1"/>
        <pt x="547" y="-3" on="1"/>
        <pt x="467" y="-5" on="0"/>
        <pt x="349" y="-5" on="1"/>
        <pt x="117" y="-5" on="0"/>
        <pt x="41" y="0" on="1"/>
        <pt x="44" y="57" on="0"/>
        <pt x="52" y="450" on="0"/>
        <pt x="59" y="536" on="1"/>
        <pt x="104" y="525" on="1"/>
        <pt x="111" y="441" on="0"/>
        <pt x="119" y="95" on="0"/>
        <pt x="120" y="61" on="1"/>
        <pt x="142" y="63" on="0"/>
        <pt x="257" y="64" on="0"/>
        <pt x="274" y="65" on="1"/>
        <pt x="275" y="154" on="0"/>
        <pt x="275" y="354" on="1"/>
        <pt x="275" y="452" on="0"/>
        <pt x="282" y="526" on="1"/>
        <pt x="327" y="516" on="1"/>
        <pt x="333" y="436" on="0"/>
        <pt x="340" y="93" on="0"/>
        <pt x="341" y="68" on="1"/>
        <pt x="360" y="69" on="0"/>
        <pt x="413" y="69" on="1"/>
        <pt x="464" y="69" on="0"/>
        <pt x="484" y="70" on="1"/>
        <pt x="487" y="130" on="0"/>
        <pt x="496" y="444" on="0"/>
        <pt x="500" y="520" on="1"/>
        <pt x="545" y="510" on="1"/>
        <pt x="549" y="432" on="0"/>
        <pt x="550" y="93" on="0"/>
        <pt x="550" y="69" on="1"/>
        <pt x="625" y="69" on="1"/>
        <pt x="624" y="42" on="0"/>
        <pt x="616" y="-107" on="0"/>
      </contour>
    </TTGlyph>
    <TTGlyph name="afii10092" xMin="0" yMin="-13" xMax="492" yMax="502">
      <contour>
        <pt x="10" y="453" on="1"/>
        <pt x="0" y="498" on="1"/>
        <pt x="112" y="502" on="1"/>
        <pt x="138" y="502" on="0"/>
        <pt x="182" y="499" on="0"/>
        <pt x="200" y="497" on="1"/>
        <pt x="202" y="465" on="0"/>
        <pt x="211" y="379" on="0"/>
        <pt x="217" y="324" on="1"/>
        <pt x="257" y="336" on="0"/>
        <pt x="293" y="336" on="1"/>
        <pt x="336" y="336" on="0"/>
        <pt x="410" y="303" on="0"/>
        <pt x="462" y="249" on="0"/>
        <pt x="492" y="180" on="0"/>
        <pt x="492" y="144" on="1"/>
        <pt x="492" y="109" on="0"/>
        <pt x="462" y="52" on="0"/>
        <pt x="411" y="10" on="0"/>
        <pt x="345" y="-13" on="0"/>
        <pt x="308" y="-13" on="1"/>
        <pt x="300" y="-13" on="0"/>
        <pt x="252" y="-11" on="0"/>
        <pt x="200" y="-4" on="0"/>
        <pt x="159" y="8" on="0"/>
        <pt x="158" y="19" on="1"/>
        <pt x="159" y="29" on="0"/>
        <pt x="159" y="59" on="0"/>
        <pt x="159" y="79" on="1"/>
        <pt x="159" y="91" on="0"/>
        <pt x="158" y="141" on="0"/>
        <pt x="156" y="204" on="0"/>
        <pt x="155" y="276" on="0"/>
        <pt x="153" y="345" on="0"/>
        <pt x="152" y="406" on="0"/>
        <pt x="152" y="426" on="1"/>
      </contour>
      <contour>
        <pt x="225" y="262" on="1"/>
        <pt x="217" y="61" on="1"/>
        <pt x="257" y="47" on="0"/>
        <pt x="293" y="47" on="1"/>
        <pt x="321" y="47" on="0"/>
        <pt x="368" y="66" on="0"/>
        <pt x="400" y="97" on="0"/>
        <pt x="418" y="137" on="0"/>
        <pt x="418" y="159" on="1"/>
        <pt x="418" y="181" on="0"/>
        <pt x="400" y="220" on="0"/>
        <pt x="364" y="250" on="0"/>
        <pt x="312" y="267" on="0"/>
        <pt x="279" y="267" on="1"/>
        <pt x="268" y="267" on="0"/>
        <pt x="241" y="264" on="0"/>
      </contour>
    </TTGlyph>
    <TTGlyph name="afii10093" xMin="41" yMin="-13" xMax="504" yMax="510">
      <contour>
        <pt x="44" y="507" on="1"/>
        <pt x="89" y="497" on="1"/>
        <pt x="91" y="465" on="0"/>
        <pt x="100" y="379" on="0"/>
        <pt x="106" y="324" on="1"/>
        <pt x="146" y="336" on="0"/>
        <pt x="182" y="336" on="1"/>
        <pt x="225" y="336" on="0"/>
        <pt x="299" y="303" on="0"/>
        <pt x="351" y="249" on="0"/>
        <pt x="381" y="180" on="0"/>
        <pt x="381" y="144" on="1"/>
        <pt x="381" y="109" on="0"/>
        <pt x="354" y="51" on="0"/>
        <pt x="305" y="10" on="0"/>
        <pt x="238" y="-13" on="0"/>
        <pt x="198" y="-13" on="1"/>
        <pt x="174" y="-13" on="0"/>
        <pt x="120" y="-8" on="0"/>
        <pt x="76" y="0" on="0"/>
        <pt x="47" y="11" on="0"/>
        <pt x="47" y="18" on="1"/>
        <pt x="47" y="34" on="0"/>
        <pt x="46" y="94" on="0"/>
        <pt x="45" y="166" on="0"/>
        <pt x="43" y="246" on="0"/>
        <pt x="42" y="320" on="0"/>
        <pt x="41" y="381" on="0"/>
        <pt x="41" y="400" on="1"/>
        <pt x="41" y="456" on="0"/>
      </contour>
      <contour>
        <pt x="115" y="262" on="1"/>
        <pt x="106" y="61" on="1"/>
        <pt x="146" y="47" on="0"/>
        <pt x="182" y="47" on="1"/>
        <pt x="210" y="47" on="0"/>
        <pt x="257" y="66" on="0"/>
        <pt x="289" y="97" on="0"/>
        <pt x="307" y="137" on="0"/>
        <pt x="307" y="159" on="1"/>
        <pt x="307" y="181" on="0"/>
        <pt x="289" y="220" on="0"/>
        <pt x="253" y="250" on="0"/>
        <pt x="201" y="267" on="0"/>
        <pt x="168" y="267" on="1"/>
        <pt x="157" y="267" on="0"/>
        <pt x="131" y="264" on="0"/>
      </contour>
      <contour>
        <pt x="427" y="510" on="1"/>
        <pt x="472" y="500" on="1"/>
        <pt x="479" y="421" on="0"/>
        <pt x="495" y="182" on="0"/>
        <pt x="504" y="20" on="1"/>
        <pt x="495" y="-10" on="0"/>
        <pt x="469" y="-10" on="1"/>
        <pt x="451" y="-10" on="0"/>
        <pt x="418" y="19" on="0"/>
        <pt x="414" y="40" on="1"/>
        <pt x="415" y="55" on="0"/>
        <pt x="416" y="123" on="0"/>
        <pt x="418" y="211" on="0"/>
        <pt x="420" y="311" on="0"/>
        <pt x="422" y="405" on="0"/>
        <pt x="425" y="486" on="0"/>
      </contour>
    </TTGlyph>
    <TTGlyph name="afii10094" xMin="41" yMin="-13" xMax="381" yMax="507">
      <contour>
        <pt x="44" y="507" on="1"/>
        <pt x="89" y="497" on="1"/>
        <pt x="91" y="465" on="0"/>
        <pt x="100" y="379" on="0"/>
        <pt x="106" y="324" on="1"/>
        <pt x="146" y="336" on="0"/>
        <pt x="182" y="336" on="1"/>
        <pt x="225" y="336" on="0"/>
        <pt x="299" y="303" on="0"/>
        <pt x="351" y="249" on="0"/>
        <pt x="381" y="180" on="0"/>
        <pt x="381" y="144" on="1"/>
        <pt x="381" y="109" on="0"/>
        <pt x="351" y="51" on="0"/>
        <pt x="301" y="10" on="0"/>
        <pt x="235" y="-13" on="0"/>
        <pt x="198" y="-13" on="1"/>
        <pt x="191" y="-13" on="0"/>
        <pt x="143" y="-11" on="0"/>
        <pt x="90" y="-4" on="0"/>
        <pt x="48" y="8" on="0"/>
        <pt x="47" y="19" on="1"/>
        <pt x="47" y="36" on="0"/>
        <pt x="46" y="95" on="0"/>
        <pt x="45" y="167" on="0"/>
        <pt x="43" y="246" on="0"/>
        <pt x="42" y="320" on="0"/>
        <pt x="41" y="382" on="0"/>
        <pt x="41" y="400" on="1"/>
        <pt x="41" y="456" on="0"/>
      </contour>
      <contour>
        <pt x="115" y="262" on="1"/>
        <pt x="106" y="61" on="1"/>
        <pt x="146" y="47" on="0"/>
        <pt x="182" y="47" on="1"/>
        <pt x="210" y="47" on="0"/>
        <pt x="257" y="66" on="0"/>
        <pt x="289" y="97" on="0"/>
        <pt x="307" y="137" on="0"/>
        <pt x="307" y="159" on="1"/>
        <pt x="307" y="181" on="0"/>
        <pt x="289" y="220" on="0"/>
        <pt x="253" y="250" on="0"/>
        <pt x="201" y="267" on="0"/>
        <pt x="168" y="267" on="1"/>
        <pt x="157" y="267" on="0"/>
        <pt x="131" y="264" on="0"/>
      </contour>
    </TTGlyph>
    <TTGlyph name="afii10095" xMin="0" yMin="-22" xMax="349" yMax="519">
      <contour>
        <pt x="281" y="201" on="1"/>
        <pt x="266" y="203" on="1"/>
        <pt x="169" y="215" on="0"/>
        <pt x="99" y="234" on="1"/>
        <pt x="102" y="284" on="1"/>
        <pt x="114" y="283" on="0"/>
        <pt x="236" y="275" on="0"/>
        <pt x="271" y="274" on="1"/>
        <pt x="251" y="363" on="0"/>
        <pt x="172" y="459" on="0"/>
        <pt x="89" y="459" on="1"/>
        <pt x="59" y="459" on="0"/>
        <pt x="17" y="453" on="1"/>
        <pt x="12" y="496" on="1"/>
        <pt x="51" y="519" on="0"/>
        <pt x="125" y="519" on="1"/>
        <pt x="191" y="519" on="0"/>
        <pt x="282" y="471" on="0"/>
        <pt x="330" y="380" on="0"/>
        <pt x="349" y="275" on="0"/>
        <pt x="349" y="205" on="1"/>
        <pt x="349" y="148" on="0"/>
        <pt x="336" y="73" on="0"/>
        <pt x="298" y="9" on="0"/>
        <pt x="222" y="-22" on="0"/>
        <pt x="163" y="-22" on="1"/>
        <pt x="88" y="-22" on="0"/>
        <pt x="0" y="6" on="1"/>
        <pt x="5" y="62" on="0"/>
        <pt x="53" y="62" on="0"/>
        <pt x="158" y="37" on="0"/>
        <pt x="174" y="37" on="1"/>
        <pt x="282" y="37" on="0"/>
        <pt x="282" y="177" on="1"/>
        <pt x="282" y="193" on="0"/>
      </contour>
    </TTGlyph>
    <TTGlyph name="afii10096" xMin="41" yMin="-16" xMax="577" yMax="517">
      <contour>
        <pt x="124" y="200" on="1"/>
        <pt x="129" y="13" on="1"/>
        <pt x="120" y="-16" on="0"/>
        <pt x="94" y="-16" on="1"/>
        <pt x="77" y="-16" on="0"/>
        <pt x="45" y="12" on="0"/>
        <pt x="41" y="32" on="1"/>
        <pt x="62" y="473" on="1"/>
        <pt x="106" y="464" on="1"/>
        <pt x="117" y="265" on="0"/>
        <pt x="117" y="259" on="1"/>
        <pt x="122" y="260" on="0"/>
        <pt x="133" y="260" on="1"/>
        <pt x="146" y="260" on="0"/>
        <pt x="200" y="255" on="0"/>
        <pt x="213" y="255" on="1"/>
        <pt x="242" y="255" on="0"/>
        <pt x="265" y="263" on="1"/>
        <pt x="269" y="309" on="0"/>
        <pt x="279" y="374" on="0"/>
        <pt x="302" y="445" on="0"/>
        <pt x="335" y="489" on="0"/>
        <pt x="389" y="517" on="0"/>
        <pt x="425" y="517" on="1"/>
        <pt x="459" y="517" on="0"/>
        <pt x="508" y="498" on="0"/>
        <pt x="553" y="445" on="0"/>
        <pt x="577" y="336" on="0"/>
        <pt x="577" y="254" on="1"/>
        <pt x="577" y="222" on="0"/>
        <pt x="557" y="139" on="0"/>
        <pt x="517" y="51" on="0"/>
        <pt x="441" y="-9" on="0"/>
        <pt x="393" y="-9" on="1"/>
        <pt x="333" y="-9" on="0"/>
        <pt x="258" y="58" on="0"/>
        <pt x="258" y="121" on="1"/>
        <pt x="258" y="158" on="0"/>
        <pt x="259" y="178" on="1"/>
      </contour>
      <contour>
        <pt x="510" y="321" on="1"/>
        <pt x="510" y="341" on="0"/>
        <pt x="503" y="385" on="0"/>
        <pt x="486" y="433" on="0"/>
        <pt x="453" y="464" on="0"/>
        <pt x="430" y="464" on="1"/>
        <pt x="402" y="464" on="0"/>
        <pt x="360" y="418" on="0"/>
        <pt x="338" y="347" on="0"/>
        <pt x="327" y="276" on="0"/>
        <pt x="327" y="243" on="1"/>
        <pt x="327" y="169" on="0"/>
        <pt x="343" y="91" on="0"/>
        <pt x="371" y="66" on="0"/>
        <pt x="396" y="66" on="1"/>
        <pt x="432" y="66" on="0"/>
        <pt x="486" y="157" on="0"/>
        <pt x="510" y="270" on="0"/>
      </contour>
    </TTGlyph>
    <TTGlyph name="afii10097" xMin="-61" yMin="-87" xMax="399" yMax="534">
      <contour>
        <pt x="384" y="519" on="1"/>
        <pt x="399" y="-18" on="1"/>
        <pt x="389" y="-48" on="0"/>
        <pt x="365" y="-48" on="1"/>
        <pt x="348" y="-48" on="0"/>
        <pt x="315" y="-20" on="0"/>
        <pt x="311" y="0" on="1"/>
        <pt x="321" y="217" on="1"/>
        <pt x="279" y="190" on="0"/>
        <pt x="234" y="189" on="1"/>
        <pt x="196" y="64" on="0"/>
        <pt x="81" y="-52" on="0"/>
        <pt x="-45" y="-87" on="1"/>
        <pt x="-61" y="-44" on="1"/>
        <pt x="126" y="3" on="0"/>
        <pt x="152" y="203" on="1"/>
        <pt x="104" y="223" on="0"/>
        <pt x="41" y="305" on="0"/>
        <pt x="41" y="358" on="1"/>
        <pt x="41" y="464" on="0"/>
        <pt x="149" y="534" on="0"/>
        <pt x="266" y="534" on="1"/>
        <pt x="327" y="534" on="0"/>
      </contour>
      <contour>
        <pt x="329" y="301" on="1"/>
        <pt x="324" y="459" on="1"/>
        <pt x="289" y="470" on="0"/>
        <pt x="221" y="470" on="1"/>
        <pt x="173" y="470" on="0"/>
        <pt x="105" y="427" on="0"/>
        <pt x="105" y="379" on="1"/>
        <pt x="105" y="325" on="0"/>
        <pt x="191" y="248" on="0"/>
        <pt x="242" y="248" on="1"/>
        <pt x="302" y="248" on="0"/>
      </contour>
    </TTGlyph>
    <TTGlyph name="afii10098" xMin="41" yMin="0" xMax="374" yMax="665">
      <contour>
        <pt x="300" y="654" on="1"/>
        <pt x="345" y="665" on="1"/>
        <pt x="351" y="620" on="0"/>
        <pt x="362" y="550" on="0"/>
        <pt x="368" y="516" on="0"/>
        <pt x="373" y="493" on="0"/>
        <pt x="374" y="485" on="0"/>
        <pt x="374" y="483" on="1"/>
        <pt x="374" y="453" on="0"/>
        <pt x="334" y="449" on="1"/>
        <pt x="297" y="452" on="0"/>
        <pt x="147" y="466" on="0"/>
        <pt x="108" y="469" on="1"/>
        <pt x="109" y="408" on="0"/>
        <pt x="131" y="134" on="0"/>
        <pt x="131" y="62" on="1"/>
        <pt x="131" y="0" on="0"/>
        <pt x="82" y="0" on="1"/>
        <pt x="41" y="0" on="0"/>
        <pt x="41" y="56" on="1"/>
        <pt x="41" y="122" on="0"/>
        <pt x="47" y="273" on="0"/>
        <pt x="59" y="468" on="0"/>
        <pt x="61" y="513" on="1"/>
        <pt x="102" y="516" on="0"/>
        <pt x="261" y="534" on="0"/>
        <pt x="284" y="536" on="1"/>
      </contour>
    </TTGlyph>
    <TTGlyph name="afii10099" xMin="0" yMin="-66" xMax="475" yMax="720">
      <contour>
        <pt x="10" y="575" on="1"/>
        <pt x="0" y="621" on="1"/>
        <pt x="114" y="631" on="1"/>
        <pt x="116" y="689" on="0"/>
        <pt x="118" y="720" on="1"/>
        <pt x="170" y="708" on="1"/>
        <pt x="173" y="636" on="1"/>
        <pt x="251" y="643" on="1"/>
        <pt x="276" y="642" on="0"/>
        <pt x="310" y="608" on="0"/>
        <pt x="310" y="588" on="1"/>
        <pt x="310" y="575" on="0"/>
        <pt x="290" y="555" on="0"/>
        <pt x="270" y="553" on="1"/>
        <pt x="174" y="561" on="1"/>
        <pt x="176" y="440" on="0"/>
        <pt x="178" y="401" on="1"/>
        <pt x="233" y="459" on="0"/>
        <pt x="307" y="459" on="1"/>
        <pt x="375" y="459" on="0"/>
        <pt x="475" y="363" on="0"/>
        <pt x="475" y="283" on="1"/>
        <pt x="475" y="154" on="1"/>
        <pt x="475" y="63" on="0"/>
        <pt x="441" y="-35" on="0"/>
        <pt x="385" y="-66" on="0"/>
        <pt x="336" y="-66" on="1"/>
        <pt x="317" y="-66" on="0"/>
        <pt x="293" y="-58" on="1"/>
        <pt x="293" y="-22" on="1"/>
        <pt x="358" y="-8" on="0"/>
        <pt x="400" y="59" on="0"/>
        <pt x="400" y="128" on="1"/>
        <pt x="400" y="137" on="0"/>
        <pt x="394" y="295" on="1"/>
        <pt x="379" y="387" on="0"/>
        <pt x="304" y="387" on="1"/>
        <pt x="270" y="387" on="0"/>
        <pt x="203" y="350" on="0"/>
        <pt x="188" y="325" on="1"/>
        <pt x="191" y="262" on="0"/>
        <pt x="194" y="58" on="0"/>
        <pt x="196" y="3" on="1"/>
        <pt x="172" y="-1" on="0"/>
        <pt x="155" y="-1" on="1"/>
        <pt x="130" y="-1" on="0"/>
        <pt x="113" y="5" on="1"/>
        <pt x="115" y="54" on="0"/>
        <pt x="115" y="160" on="1"/>
        <pt x="115" y="209" on="0"/>
        <pt x="113" y="471" on="0"/>
        <pt x="113" y="566" on="1"/>
      </contour>
    </TTGlyph>
    <TTGlyph name="afii10100" xMin="41" yMin="0" xMax="374" yMax="727">
      <contour>
        <pt x="61" y="513" on="1"/>
        <pt x="104" y="517" on="0"/>
        <pt x="278" y="536" on="0"/>
        <pt x="314" y="539" on="1"/>
        <pt x="339" y="538" on="0"/>
        <pt x="374" y="503" on="0"/>
        <pt x="374" y="483" on="1"/>
        <pt x="374" y="453" on="0"/>
        <pt x="334" y="449" on="1"/>
        <pt x="297" y="452" on="0"/>
        <pt x="147" y="466" on="0"/>
        <pt x="108" y="469" on="1"/>
        <pt x="109" y="408" on="0"/>
        <pt x="131" y="134" on="0"/>
        <pt x="131" y="62" on="1"/>
        <pt x="131" y="0" on="0"/>
        <pt x="82" y="0" on="1"/>
        <pt x="41" y="0" on="0"/>
        <pt x="41" y="56" on="1"/>
        <pt x="41" y="122" on="0"/>
        <pt x="47" y="273" on="0"/>
        <pt x="59" y="468" on="0"/>
      </contour>
      <contour>
        <pt x="181" y="572" on="1"/>
        <pt x="152" y="600" on="1"/>
        <pt x="154" y="603" on="0"/>
        <pt x="199" y="649" on="0"/>
        <pt x="246" y="704" on="0"/>
        <pt x="254" y="723" on="1"/>
        <pt x="260" y="727" on="0"/>
        <pt x="272" y="727" on="1"/>
        <pt x="290" y="727" on="0"/>
        <pt x="325" y="712" on="0"/>
        <pt x="325" y="701" on="1"/>
        <pt x="325" y="677" on="0"/>
        <pt x="217" y="587" on="0"/>
      </contour>
    </TTGlyph>
    <TTGlyph name="afii10101" xMin="41" yMin="-22" xMax="390" yMax="519">
      <contour>
        <pt x="124" y="203" on="1"/>
        <pt x="110" y="201" on="1"/>
        <pt x="109" y="193" on="0"/>
        <pt x="109" y="177" on="1"/>
        <pt x="109" y="37" on="0"/>
        <pt x="216" y="37" on="1"/>
        <pt x="232" y="37" on="0"/>
        <pt x="337" y="62" on="0"/>
        <pt x="385" y="62" on="0"/>
        <pt x="390" y="6" on="1"/>
        <pt x="302" y="-22" on="0"/>
        <pt x="227" y="-22" on="1"/>
        <pt x="168" y="-22" on="0"/>
        <pt x="92" y="9" on="0"/>
        <pt x="54" y="73" on="0"/>
        <pt x="41" y="148" on="0"/>
        <pt x="41" y="205" on="1"/>
        <pt x="41" y="275" on="0"/>
        <pt x="60" y="380" on="0"/>
        <pt x="108" y="471" on="0"/>
        <pt x="199" y="519" on="0"/>
        <pt x="265" y="519" on="1"/>
        <pt x="339" y="519" on="0"/>
        <pt x="378" y="496" on="1"/>
        <pt x="373" y="453" on="1"/>
        <pt x="331" y="459" on="0"/>
        <pt x="301" y="459" on="1"/>
        <pt x="218" y="459" on="0"/>
        <pt x="139" y="363" on="0"/>
        <pt x="119" y="274" on="1"/>
        <pt x="154" y="275" on="0"/>
        <pt x="276" y="283" on="0"/>
        <pt x="288" y="284" on="1"/>
        <pt x="291" y="234" on="1"/>
        <pt x="221" y="215" on="0"/>
      </contour>
    </TTGlyph>
    <TTGlyph name="afii10102" xMin="20" yMin="-16" xMax="368" yMax="537">
      <component glyphName="s" x="0" y="0" flags="0x200"/>
    </TTGlyph>
    <TTGlyph name="afii10103" xMin="41" yMin="-2" xMax="140" yMax="693">
      <component glyphName="i" x="0" y="0" flags="0x200"/>
    </TTGlyph>
    <TTGlyph name="afii10104" xMin="-20" yMin="-2" xMax="232" yMax="693">
      <contour>
        <pt x="84" y="514" on="1"/>
        <pt x="129" y="504" on="1"/>
        <pt x="137" y="421" on="0"/>
        <pt x="150" y="66" on="0"/>
        <pt x="152" y="29" on="1"/>
        <pt x="143" y="-2" on="0"/>
        <pt x="117" y="-2" on="1"/>
        <pt x="99" y="-2" on="0"/>
        <pt x="65" y="27" on="0"/>
        <pt x="61" y="48" on="1"/>
        <pt x="63" y="85" on="0"/>
        <pt x="76" y="433" on="0"/>
      </contour>
      <contour>
        <pt x="169" y="693" on="1"/>
        <pt x="196" y="693" on="0"/>
        <pt x="232" y="646" on="0"/>
        <pt x="232" y="616" on="1"/>
        <pt x="232" y="594" on="0"/>
        <pt x="212" y="567" on="0"/>
        <pt x="194" y="567" on="1"/>
        <pt x="166" y="567" on="0"/>
        <pt x="133" y="613" on="0"/>
        <pt x="133" y="644" on="1"/>
        <pt x="133" y="666" on="0"/>
        <pt x="152" y="693" on="0"/>
      </contour>
      <contour>
        <pt x="15" y="693" on="1"/>
        <pt x="42" y="693" on="0"/>
        <pt x="79" y="646" on="0"/>
        <pt x="79" y="616" on="1"/>
        <pt x="79" y="594" on="0"/>
        <pt x="58" y="567" on="0"/>
        <pt x="40" y="567" on="1"/>
        <pt x="12" y="567" on="0"/>
        <pt x="-20" y="613" on="0"/>
        <pt x="-20" y="644" on="1"/>
        <pt x="-20" y="666" on="0"/>
        <pt x="-2" y="693" on="0"/>
      </contour>
    </TTGlyph>
    <TTGlyph name="afii10105" xMin="-82" yMin="-195" xMax="126" yMax="695">
      <component glyphName="j" x="0" y="0" flags="0x200"/>
    </TTGlyph>
    <TTGlyph name="afii10106" xMin="-41" yMin="-90" xMax="680" yMax="529">
      <contour>
        <pt x="-25" y="-90" on="1"/>
        <pt x="-41" y="-47" on="1"/>
        <pt x="15" y="-24" on="0"/>
        <pt x="80" y="82" on="0"/>
        <pt x="113" y="218" on="0"/>
        <pt x="121" y="371" on="0"/>
        <pt x="121" y="440" on="1"/>
        <pt x="121" y="473" on="0"/>
        <pt x="122" y="508" on="0"/>
        <pt x="150" y="525" on="0"/>
        <pt x="219" y="528" on="0"/>
        <pt x="287" y="528" on="1"/>
        <pt x="343" y="528" on="0"/>
        <pt x="405" y="528" on="0"/>
        <pt x="413" y="529" on="1"/>
        <pt x="413" y="327" on="1"/>
        <pt x="447" y="337" on="0"/>
        <pt x="481" y="337" on="1"/>
        <pt x="524" y="337" on="0"/>
        <pt x="598" y="304" on="0"/>
        <pt x="650" y="250" on="0"/>
        <pt x="680" y="181" on="0"/>
        <pt x="680" y="145" on="1"/>
        <pt x="680" y="110" on="0"/>
        <pt x="650" y="52" on="0"/>
        <pt x="600" y="11" on="0"/>
        <pt x="534" y="-12" on="0"/>
        <pt x="497" y="-12" on="1"/>
        <pt x="382" y="-12" on="0"/>
        <pt x="335" y="20" on="1"/>
        <pt x="334" y="35" on="0"/>
        <pt x="334" y="80" on="0"/>
        <pt x="334" y="110" on="1"/>
        <pt x="334" y="203" on="1"/>
        <pt x="334" y="235" on="0"/>
        <pt x="335" y="287" on="0"/>
        <pt x="335" y="306" on="1"/>
        <pt x="336" y="320" on="0"/>
        <pt x="334" y="362" on="0"/>
        <pt x="334" y="390" on="1"/>
        <pt x="334" y="475" on="1"/>
        <pt x="313" y="472" on="0"/>
        <pt x="270" y="468" on="0"/>
        <pt x="232" y="466" on="0"/>
        <pt x="202" y="465" on="0"/>
        <pt x="193" y="464" on="1"/>
        <pt x="191" y="447" on="0"/>
        <pt x="189" y="398" on="0"/>
        <pt x="188" y="366" on="1"/>
        <pt x="184" y="251" on="1"/>
        <pt x="182" y="198" on="0"/>
        <pt x="165" y="87" on="0"/>
        <pt x="120" y="-8" on="0"/>
        <pt x="40" y="-78" on="0"/>
      </contour>
      <contour>
        <pt x="414" y="263" on="1"/>
        <pt x="416" y="126" on="0"/>
        <pt x="420" y="57" on="1"/>
        <pt x="448" y="48" on="0"/>
        <pt x="481" y="48" on="1"/>
        <pt x="509" y="48" on="0"/>
        <pt x="556" y="67" on="0"/>
        <pt x="588" y="98" on="0"/>
        <pt x="606" y="138" on="0"/>
        <pt x="606" y="160" on="1"/>
        <pt x="606" y="182" on="0"/>
        <pt x="588" y="221" on="0"/>
        <pt x="552" y="251" on="0"/>
        <pt x="500" y="268" on="0"/>
        <pt x="467" y="268" on="1"/>
        <pt x="456" y="268" on="0"/>
        <pt x="430" y="265" on="0"/>
      </contour>
    </TTGlyph>
    <TTGlyph name="afii10107" xMin="41" yMin="-19" xMax="668" yMax="508">
      <contour>
        <pt x="385" y="497" on="1"/>
        <pt x="388" y="395" on="1"/>
        <pt x="389" y="361" on="0"/>
        <pt x="391" y="312" on="0"/>
        <pt x="393" y="297" on="1"/>
        <pt x="433" y="309" on="0"/>
        <pt x="469" y="309" on="1"/>
        <pt x="512" y="309" on="0"/>
        <pt x="586" y="279" on="0"/>
        <pt x="638" y="229" on="0"/>
        <pt x="668" y="163" on="0"/>
        <pt x="668" y="128" on="1"/>
        <pt x="668" y="94" on="0"/>
        <pt x="639" y="40" on="0"/>
        <pt x="590" y="2" on="0"/>
        <pt x="523" y="-19" on="0"/>
        <pt x="484" y="-19" on="1"/>
        <pt x="400" y="-19" on="0"/>
        <pt x="322" y="6" on="0"/>
        <pt x="317" y="32" on="1"/>
        <pt x="326" y="229" on="1"/>
        <pt x="311" y="230" on="0"/>
        <pt x="256" y="231" on="0"/>
        <pt x="194" y="232" on="0"/>
        <pt x="136" y="235" on="0"/>
        <pt x="118" y="237" on="1"/>
        <pt x="119" y="228" on="0"/>
        <pt x="121" y="190" on="0"/>
        <pt x="124" y="144" on="0"/>
        <pt x="127" y="96" on="0"/>
        <pt x="129" y="56" on="0"/>
        <pt x="131" y="29" on="0"/>
        <pt x="131" y="29" on="1"/>
        <pt x="122" y="-2" on="0"/>
        <pt x="96" y="-2" on="1"/>
        <pt x="78" y="-2" on="0"/>
        <pt x="45" y="27" on="0"/>
        <pt x="41" y="48" on="1"/>
        <pt x="44" y="97" on="0"/>
        <pt x="44" y="148" on="1"/>
        <pt x="44" y="161" on="0"/>
        <pt x="43" y="214" on="0"/>
        <pt x="43" y="273" on="0"/>
        <pt x="42" y="326" on="0"/>
        <pt x="42" y="339" on="1"/>
        <pt x="42" y="435" on="0"/>
        <pt x="48" y="500" on="1"/>
        <pt x="93" y="489" on="1"/>
        <pt x="103" y="394" on="1"/>
        <pt x="106" y="362" on="0"/>
        <pt x="112" y="308" on="0"/>
        <pt x="114" y="287" on="1"/>
        <pt x="228" y="281" on="0"/>
        <pt x="290" y="281" on="1"/>
        <pt x="331" y="281" on="0"/>
        <pt x="331" y="283" on="1"/>
        <pt x="331" y="284" on="0"/>
        <pt x="332" y="320" on="0"/>
        <pt x="335" y="370" on="0"/>
        <pt x="337" y="428" on="0"/>
        <pt x="339" y="477" on="0"/>
        <pt x="340" y="508" on="0"/>
        <pt x="340" y="507" on="1"/>
      </contour>
      <contour>
        <pt x="393" y="236" on="1"/>
        <pt x="395" y="54" on="1"/>
        <pt x="428" y="41" on="0"/>
        <pt x="469" y="41" on="1"/>
        <pt x="527" y="41" on="0"/>
        <pt x="594" y="99" on="0"/>
        <pt x="594" y="142" on="1"/>
        <pt x="594" y="185" on="0"/>
        <pt x="524" y="241" on="0"/>
        <pt x="455" y="241" on="1"/>
        <pt x="440" y="241" on="0"/>
        <pt x="409" y="238" on="0"/>
      </contour>
    </TTGlyph>
    <TTGlyph name="afii10108" xMin="0" yMin="-1" xMax="475" yMax="720">
      <contour>
        <pt x="10" y="575" on="1"/>
        <pt x="0" y="621" on="1"/>
        <pt x="114" y="631" on="1"/>
        <pt x="116" y="689" on="0"/>
        <pt x="118" y="720" on="1"/>
        <pt x="170" y="708" on="1"/>
        <pt x="173" y="636" on="1"/>
        <pt x="251" y="643" on="1"/>
        <pt x="276" y="642" on="0"/>
        <pt x="310" y="608" on="0"/>
        <pt x="310" y="588" on="1"/>
        <pt x="310" y="575" on="0"/>
        <pt x="290" y="555" on="0"/>
        <pt x="270" y="553" on="1"/>
        <pt x="174" y="561" on="1"/>
        <pt x="176" y="440" on="0"/>
        <pt x="178" y="401" on="1"/>
        <pt x="233" y="459" on="0"/>
        <pt x="307" y="459" on="1"/>
        <pt x="375" y="459" on="0"/>
        <pt x="475" y="363" on="0"/>
        <pt x="475" y="283" on="1"/>
        <pt x="475" y="5" on="1"/>
        <pt x="462" y="-1" on="0"/>
        <pt x="441" y="-1" on="1"/>
        <pt x="419" y="-1" on="0"/>
        <pt x="401" y="3" on="1"/>
        <pt x="401" y="11" on="0"/>
        <pt x="402" y="44" on="0"/>
        <pt x="402" y="52" on="1"/>
        <pt x="402" y="92" on="0"/>
        <pt x="396" y="232" on="0"/>
        <pt x="396" y="295" on="1"/>
        <pt x="388" y="343" on="0"/>
        <pt x="338" y="387" on="0"/>
        <pt x="270" y="387" on="0"/>
        <pt x="203" y="350" on="0"/>
        <pt x="188" y="325" on="1"/>
        <pt x="191" y="262" on="0"/>
        <pt x="194" y="58" on="0"/>
        <pt x="196" y="3" on="1"/>
        <pt x="172" y="-1" on="0"/>
        <pt x="155" y="-1" on="1"/>
        <pt x="130" y="-1" on="0"/>
        <pt x="113" y="5" on="1"/>
        <pt x="115" y="54" on="0"/>
        <pt x="115" y="160" on="1"/>
        <pt x="115" y="209" on="0"/>
        <pt x="113" y="471" on="0"/>
        <pt x="113" y="566" on="1"/>
      </contour>
    </TTGlyph>
    <TTGlyph name="afii10109" xMin="41" yMin="-25" xMax="402" yMax="727">
      <contour>
        <pt x="399" y="25" on="1"/>
        <pt x="402" y="-19" on="1"/>
        <pt x="378" y="-25" on="0"/>
        <pt x="368" y="-25" on="1"/>
        <pt x="330" y="-25" on="0"/>
        <pt x="268" y="25" on="0"/>
        <pt x="228" y="97" on="0"/>
        <pt x="193" y="169" on="0"/>
        <pt x="153" y="219" on="0"/>
        <pt x="132" y="219" on="1"/>
        <pt x="124" y="219" on="0"/>
        <pt x="117" y="216" on="1"/>
        <pt x="121" y="156" on="0"/>
        <pt x="131" y="22" on="1"/>
        <pt x="122" y="-9" on="0"/>
        <pt x="96" y="-9" on="1"/>
        <pt x="78" y="-9" on="0"/>
        <pt x="45" y="20" on="0"/>
        <pt x="41" y="41" on="1"/>
        <pt x="45" y="209" on="0"/>
        <pt x="45" y="357" on="1"/>
        <pt x="45" y="466" on="0"/>
        <pt x="54" y="530" on="1"/>
        <pt x="99" y="514" on="1"/>
        <pt x="107" y="475" on="0"/>
        <pt x="109" y="330" on="0"/>
        <pt x="110" y="313" on="1"/>
        <pt x="140" y="318" on="0"/>
        <pt x="185" y="370" on="0"/>
        <pt x="214" y="436" on="0"/>
        <pt x="246" y="500" on="0"/>
        <pt x="297" y="544" on="0"/>
        <pt x="332" y="544" on="1"/>
        <pt x="350" y="544" on="0"/>
        <pt x="388" y="532" on="1"/>
        <pt x="384" y="498" on="1"/>
        <pt x="378" y="499" on="0"/>
        <pt x="368" y="499" on="1"/>
        <pt x="328" y="499" on="0"/>
        <pt x="269" y="432" on="0"/>
        <pt x="240" y="351" on="0"/>
        <pt x="196" y="277" on="0"/>
        <pt x="170" y="271" on="1"/>
        <pt x="207" y="262" on="0"/>
        <pt x="260" y="180" on="0"/>
        <pt x="287" y="93" on="0"/>
        <pt x="339" y="22" on="0"/>
        <pt x="377" y="22" on="1"/>
        <pt x="387" y="22" on="0"/>
      </contour>
      <contour>
        <pt x="168" y="572" on="1"/>
        <pt x="138" y="600" on="1"/>
        <pt x="140" y="603" on="0"/>
        <pt x="185" y="649" on="0"/>
        <pt x="233" y="704" on="0"/>
        <pt x="241" y="723" on="1"/>
        <pt x="247" y="727" on="0"/>
        <pt x="259" y="727" on="1"/>
        <pt x="277" y="727" on="0"/>
        <pt x="311" y="712" on="0"/>
        <pt x="311" y="701" on="1"/>
        <pt x="311" y="677" on="0"/>
        <pt x="204" y="587" on="0"/>
      </contour>
    </TTGlyph>
    <TTGlyph name="afii10110" xMin="20" yMin="-296" xMax="437" yMax="663">
      <contour>
        <pt x="113" y="-296" on="1"/>
        <pt x="51" y="-261" on="1"/>
        <pt x="92" y="-190" on="0"/>
        <pt x="196" y="9" on="1"/>
        <pt x="115" y="81" on="0"/>
        <pt x="29" y="373" on="0"/>
        <pt x="20" y="519" on="1"/>
        <pt x="78" y="516" on="1"/>
        <pt x="83" y="492" on="0"/>
        <pt x="116" y="321" on="0"/>
        <pt x="136" y="239" on="0"/>
        <pt x="187" y="116" on="0"/>
        <pt x="220" y="74" on="1"/>
        <pt x="359" y="341" on="0"/>
        <pt x="359" y="512" on="1"/>
        <pt x="359" y="523" on="1"/>
        <pt x="411" y="515" on="0"/>
        <pt x="437" y="504" on="1"/>
        <pt x="421" y="399" on="0"/>
        <pt x="353" y="181" on="0"/>
        <pt x="251" y="-40" on="0"/>
        <pt x="172" y="-190" on="0"/>
      </contour>
      <contour>
        <pt x="112" y="596" on="1"/>
        <pt x="104" y="628" on="1"/>
        <pt x="128" y="625" on="0"/>
        <pt x="152" y="625" on="1"/>
        <pt x="221" y="625" on="0"/>
        <pt x="279" y="663" on="1"/>
        <pt x="302" y="661" on="0"/>
        <pt x="334" y="637" on="0"/>
        <pt x="334" y="621" on="1"/>
        <pt x="334" y="608" on="0"/>
        <pt x="316" y="592" on="0"/>
        <pt x="280" y="585" on="0"/>
        <pt x="256" y="584" on="0"/>
        <pt x="236" y="584" on="1"/>
        <pt x="167" y="584" on="0"/>
      </contour>
    </TTGlyph>
    <TTGlyph name="afii10145" xMin="41" yMin="-167" xMax="439" yMax="731">
      <contour>
        <pt x="253" y="-167" on="1"/>
        <pt x="208" y="-157" on="1"/>
        <pt x="198" y="-23" on="1"/>
        <pt x="56" y="-23" on="1"/>
        <pt x="49" y="98" on="0"/>
        <pt x="44" y="595" on="0"/>
        <pt x="41" y="681" on="1"/>
        <pt x="45" y="702" on="0"/>
        <pt x="78" y="731" on="0"/>
        <pt x="96" y="731" on="1"/>
        <pt x="122" y="731" on="0"/>
        <pt x="131" y="700" on="1"/>
        <pt x="129" y="635" on="0"/>
        <pt x="114" y="55" on="0"/>
        <pt x="114" y="52" on="1"/>
        <pt x="140" y="54" on="0"/>
        <pt x="188" y="54" on="1"/>
        <pt x="218" y="54" on="0"/>
        <pt x="317" y="48" on="0"/>
        <pt x="339" y="48" on="1"/>
        <pt x="339" y="103" on="0"/>
        <pt x="349" y="600" on="0"/>
        <pt x="349" y="681" on="1"/>
        <pt x="353" y="702" on="0"/>
        <pt x="386" y="731" on="0"/>
        <pt x="404" y="731" on="1"/>
        <pt x="430" y="731" on="0"/>
        <pt x="439" y="700" on="1"/>
        <pt x="434" y="619" on="0"/>
        <pt x="425" y="118" on="0"/>
        <pt x="407" y="-23" on="1"/>
        <pt x="263" y="-23" on="1"/>
      </contour>
    </TTGlyph>
    <TTGlyph name="afii10193" xMin="41" yMin="-146" xMax="408" yMax="500">
      <contour>
        <pt x="240" y="-146" on="1"/>
        <pt x="195" y="-136" on="1"/>
        <pt x="185" y="-16" on="1"/>
        <pt x="48" y="-16" on="1"/>
        <pt x="42" y="52" on="0"/>
        <pt x="42" y="153" on="1"/>
        <pt x="42" y="188" on="0"/>
        <pt x="44" y="307" on="0"/>
        <pt x="44" y="333" on="1"/>
        <pt x="44" y="384" on="0"/>
        <pt x="41" y="433" on="1"/>
        <pt x="45" y="454" on="0"/>
        <pt x="78" y="483" on="0"/>
        <pt x="96" y="483" on="1"/>
        <pt x="122" y="483" on="0"/>
        <pt x="131" y="453" on="1"/>
        <pt x="129" y="424" on="0"/>
        <pt x="125" y="68" on="0"/>
        <pt x="122" y="35" on="1"/>
        <pt x="164" y="39" on="0"/>
        <pt x="247" y="39" on="1"/>
        <pt x="330" y="39" on="1"/>
        <pt x="329" y="65" on="0"/>
        <pt x="323" y="241" on="0"/>
        <pt x="318" y="431" on="0"/>
        <pt x="317" y="450" on="1"/>
        <pt x="321" y="471" on="0"/>
        <pt x="355" y="500" on="0"/>
        <pt x="373" y="500" on="1"/>
        <pt x="399" y="500" on="0"/>
        <pt x="408" y="469" on="1"/>
        <pt x="385" y="-15" on="1"/>
        <pt x="249" y="-15" on="1"/>
      </contour>
    </TTGlyph>
    <TTGlyph name="afii61352" xMin="41" yMin="-23" xMax="899" yMax="727">
      <contour>
        <pt x="41" y="28" on="1"/>
        <pt x="54" y="720" on="1"/>
        <pt x="108" y="720" on="1"/>
        <pt x="435" y="99" on="1"/>
        <pt x="435" y="178" on="1"/>
        <pt x="435" y="480" on="0"/>
        <pt x="446" y="721" on="1"/>
        <pt x="503" y="710" on="1"/>
        <pt x="514" y="493" on="0"/>
        <pt x="521" y="-5" on="1"/>
        <pt x="500" y="-14" on="0"/>
        <pt x="477" y="-14" on="1"/>
        <pt x="443" y="-14" on="0"/>
        <pt x="406" y="6" on="1"/>
        <pt x="345" y="100" on="0"/>
        <pt x="164" y="462" on="0"/>
        <pt x="126" y="529" on="1"/>
        <pt x="127" y="461" on="0"/>
        <pt x="128" y="101" on="0"/>
        <pt x="131" y="8" on="1"/>
        <pt x="122" y="-23" on="0"/>
        <pt x="96" y="-23" on="1"/>
        <pt x="78" y="-23" on="0"/>
        <pt x="45" y="7" on="0"/>
      </contour>
      <contour>
        <pt x="565" y="554" on="1"/>
        <pt x="565" y="618" on="0"/>
        <pt x="667" y="727" on="0"/>
        <pt x="732" y="727" on="1"/>
        <pt x="791" y="727" on="0"/>
        <pt x="887" y="628" on="0"/>
        <pt x="887" y="566" on="1"/>
        <pt x="887" y="498" on="0"/>
        <pt x="799" y="394" on="0"/>
        <pt x="732" y="394" on="1"/>
        <pt x="667" y="394" on="0"/>
        <pt x="565" y="485" on="0"/>
      </contour>
      <contour>
        <pt x="731" y="662" on="1"/>
        <pt x="692" y="662" on="0"/>
        <pt x="627" y="598" on="0"/>
        <pt x="627" y="558" on="1"/>
        <pt x="627" y="518" on="0"/>
        <pt x="689" y="462" on="0"/>
        <pt x="731" y="462" on="1"/>
        <pt x="771" y="462" on="0"/>
        <pt x="828" y="522" on="0"/>
        <pt x="828" y="565" on="1"/>
        <pt x="828" y="602" on="0"/>
        <pt x="769" y="662" on="0"/>
      </contour>
      <contour>
        <pt x="599" y="270" on="1"/>
        <pt x="589" y="315" on="1"/>
        <pt x="840" y="338" on="1"/>
        <pt x="865" y="337" on="0"/>
        <pt x="899" y="303" on="0"/>
        <pt x="899" y="283" on="1"/>
        <pt x="899" y="270" on="0"/>
        <pt x="879" y="250" on="0"/>
        <pt x="859" y="248" on="1"/>
      </contour>
    </TTGlyph>
    <TTGlyph name="agrave" xMin="20" yMin="-18" xMax="371" yMax="766">
      <component glyphName="a" x="0" y="0" flags="0x204"/>
      <component glyphName="grave" x="-75" y="0" flags="0x4"/>
    </TTGlyph>
    <TTGlyph name="ampersand" xMin="20" yMin="0" xMax="570" yMax="695">
      <contour>
        <pt x="438" y="535" on="1"/>
        <pt x="488" y="531" on="1"/>
        <pt x="491" y="512" on="0"/>
        <pt x="501" y="397" on="1"/>
        <pt x="502" y="397" on="0"/>
        <pt x="540" y="399" on="0"/>
        <pt x="558" y="399" on="0"/>
        <pt x="558" y="398" on="1"/>
        <pt x="570" y="374" on="0"/>
        <pt x="570" y="337" on="1"/>
        <pt x="570" y="331" on="1"/>
        <pt x="508" y="331" on="1"/>
        <pt x="511" y="306" on="0"/>
        <pt x="511" y="280" on="1"/>
        <pt x="511" y="165" on="0"/>
        <pt x="387" y="13" on="0"/>
        <pt x="262" y="0" on="1"/>
        <pt x="237" y="0" on="0"/>
        <pt x="183" y="9" on="0"/>
        <pt x="116" y="38" on="0"/>
        <pt x="64" y="81" on="0"/>
        <pt x="24" y="158" on="0"/>
        <pt x="20" y="207" on="1"/>
        <pt x="20" y="262" on="0"/>
        <pt x="66" y="357" on="0"/>
        <pt x="110" y="383" on="1"/>
        <pt x="36" y="440" on="0"/>
        <pt x="36" y="518" on="1"/>
        <pt x="36" y="593" on="0"/>
        <pt x="161" y="695" on="0"/>
        <pt x="245" y="695" on="1"/>
        <pt x="308" y="695" on="0"/>
        <pt x="345" y="680" on="1"/>
        <pt x="330" y="642" on="1"/>
        <pt x="305" y="646" on="0"/>
        <pt x="270" y="646" on="1"/>
        <pt x="204" y="646" on="0"/>
        <pt x="111" y="586" on="0"/>
        <pt x="111" y="522" on="1"/>
        <pt x="111" y="390" on="0"/>
        <pt x="330" y="390" on="1"/>
        <pt x="350" y="390" on="0"/>
        <pt x="427" y="393" on="0"/>
        <pt x="446" y="393" on="1"/>
        <pt x="439" y="453" on="0"/>
      </contour>
      <contour>
        <pt x="444" y="330" on="1"/>
        <pt x="190" y="341" on="1"/>
        <pt x="105" y="277" on="0"/>
        <pt x="105" y="214" on="1"/>
        <pt x="105" y="160" on="0"/>
        <pt x="200" y="76" on="0"/>
        <pt x="260" y="71" on="1"/>
        <pt x="339" y="71" on="0"/>
        <pt x="449" y="214" on="0"/>
        <pt x="449" y="293" on="1"/>
        <pt x="449" y="312" on="0"/>
      </contour>
    </TTGlyph>
    <TTGlyph name="aring" xMin="20" yMin="-18" xMax="371" yMax="732">
      <component glyphName="a" x="0" y="0" flags="0x204"/>
      <component glyphName="ring" x="-30" y="0" flags="0x4"/>
    </TTGlyph>
    <TTGlyph name="asciicircum" xMin="0" yMin="339" xMax="453" yMax="731">
      <contour>
        <pt x="453" y="339" on="1"/>
        <pt x="387" y="340" on="1"/>
        <pt x="364" y="366" on="0"/>
        <pt x="242" y="595" on="0"/>
        <pt x="223" y="622" on="1"/>
        <pt x="203" y="580" on="0"/>
        <pt x="76" y="385" on="0"/>
        <pt x="43" y="356" on="1"/>
        <pt x="0" y="379" on="1"/>
        <pt x="28" y="440" on="0"/>
        <pt x="144" y="647" on="0"/>
        <pt x="185" y="711" on="1"/>
        <pt x="189" y="718" on="0"/>
        <pt x="221" y="731" on="0"/>
        <pt x="237" y="731" on="1"/>
        <pt x="265" y="731" on="0"/>
        <pt x="273" y="706" on="1"/>
        <pt x="290" y="654" on="0"/>
        <pt x="349" y="532" on="0"/>
        <pt x="436" y="373" on="0"/>
      </contour>
    </TTGlyph>
    <TTGlyph name="asciitilde" xMin="20" yMin="289" xMax="513" yMax="430">
      <contour>
        <pt x="365" y="362" on="1"/>
        <pt x="396" y="362" on="0"/>
        <pt x="433" y="384" on="0"/>
        <pt x="462" y="420" on="1"/>
        <pt x="513" y="394" on="1"/>
        <pt x="499" y="360" on="0"/>
        <pt x="462" y="316" on="0"/>
        <pt x="417" y="296" on="0"/>
        <pt x="376" y="289" on="0"/>
        <pt x="347" y="289" on="1"/>
        <pt x="307" y="289" on="0"/>
        <pt x="198" y="356" on="0"/>
        <pt x="169" y="356" on="1"/>
        <pt x="138" y="356" on="0"/>
        <pt x="95" y="333" on="0"/>
        <pt x="72" y="299" on="1"/>
        <pt x="20" y="325" on="1"/>
        <pt x="48" y="391" on="0"/>
        <pt x="118" y="430" on="0"/>
        <pt x="176" y="430" on="1"/>
        <pt x="217" y="430" on="0"/>
        <pt x="333" y="362" on="0"/>
      </contour>
    </TTGlyph>
</ttFont>
